<svg width="131" height="49" fill="none" xmlns="http://www.w3.org/2000/svg"><path d="M67.542 20.39h-3.845v-2.187h10.471v2.188h-3.845v9.414h-2.781V20.39zm15.8 6.929h-5.579L76.7 29.805h-2.85l5.356-11.602h2.747l5.373 11.602h-2.919l-1.064-2.486zm-.875-2.039l-1.906-4.442-1.905 4.442h3.81z" fill="#292F42"/><path d="M95.889 29.805l-2.901-4.028-2.85 4.028h-3.193l4.447-5.9-4.223-5.702h3.158l2.764 3.762 2.712-3.762h3.004l-4.188 5.602 4.48 6h-3.21zm12.735-5.983h2.541v4.707a7.362 7.362 0 0 1-2.266 1.094 9.085 9.085 0 0 1-2.592.38c-1.247 0-2.369-.253-3.365-.762-.995-.519-1.779-1.232-2.351-2.138-.561-.917-.841-1.95-.841-3.1 0-1.148.28-2.176.841-3.082.572-.917 1.362-1.63 2.369-2.138 1.007-.52 2.14-.78 3.398-.78 1.053 0 2.009.172 2.867.515.858.342 1.579.84 2.163 1.491l-1.785 1.591c-.858-.873-1.894-1.309-3.107-1.309-.767 0-1.448.155-2.043.464a3.395 3.395 0 0 0-1.39 1.31c-.332.563-.498 1.21-.498 1.939 0 .718.166 1.359.498 1.922a3.535 3.535 0 0 0 1.373 1.326c.595.31 1.27.465 2.025.465.802 0 1.523-.166 2.163-.498v-3.398zm5.492-5.619h2.781v11.602h-2.781V18.203zm14.12 5.619h2.54v4.707a7.351 7.351 0 0 1-2.266 1.094 9.085 9.085 0 0 1-2.592.38c-1.247 0-2.368-.253-3.364-.762-.996-.519-1.78-1.232-2.352-2.138-.561-.917-.841-1.95-.841-3.1 0-1.148.28-2.176.841-3.082.572-.917 1.362-1.63 2.369-2.138 1.007-.52 2.14-.78 3.399-.78 1.053 0 2.008.172 2.867.515.858.342 1.579.84 2.163 1.491l-1.786 1.591c-.858-.873-1.894-1.309-3.107-1.309-.766 0-1.447.155-2.042.464a3.392 3.392 0 0 0-1.391 1.31c-.332.563-.498 1.21-.498 1.939 0 .718.166 1.359.498 1.922.332.564.79 1.006 1.373 1.326.595.31 1.271.465 2.026.465.801 0 1.522-.166 2.163-.498v-3.398z" fill="#292F42"/><path d="M14 33.384l-3.82-5.044c-1.356 2.042-2.444 6.787-1.356 10.207 1.528 4.803 6.78 7.176 8.505 8.165 3.352 1.921 6.82 1.28 8.135.72a7469.219 7469.219 0 0 1 14.051-7.805c3.648-2.017 4.807-5.003 4.93-6.243V16.093l-.246 3.362-3.082 7.204-5.3 6.004-10.353 3.602c-4.712.988-7.225.393-11.463-2.881z" fill="url(#paint0_linear)"/><path d="M31.504 23.295c-9.491 10.807-21.324 4.923-21.324 4.923 2.835 7.085 11.977 12.368 24.405 5.764 10.847-5.764 9.86-15.747 9.86-17.651 0-3.458-2.218-5.924-3.327-6.724-1.11-.8-9.614-5.284-9.614-5.284s9.49 8.165 0 18.972z" fill="url(#paint1_linear)"/><path d="M30.467 14.62l3.798 4.712c1.356-2.04 2.467-6.456 1.379-9.876-1.528-4.802-6.78-7.176-8.505-8.165-3.352-1.92-6.82-1.28-8.135-.72A7494.746 7494.746 0 0 1 4.953 8.376C1.304 10.393.146 13.379.023 14.62v17.29l.246-3.362 3.082-7.204 5.3-6.004 10.353-3.602 11.463 2.882z" fill="url(#paint2_linear)"/><path d="M12.966 24.705c9.491-10.807 21.3-5.373 21.3-5.373-2.834-7.085-11.953-11.918-24.381-5.314C-.962 19.782.025 29.767.025 31.67c0 3.459 2.218 5.924 3.327 6.725 1.11.8 9.345 5.433 9.345 5.433s-9.221-8.315.27-19.122z" fill="url(#paint3_linear)"/><defs><linearGradient id="paint0_linear" x1="45.111" y1="34.825" x2="14.775" y2="43.145" gradientUnits="userSpaceOnUse"><stop stop-color="#B4D57C"/><stop offset="1" stop-color="#86BE26"/></linearGradient><linearGradient id="paint1_linear" x1="46.22" y1="7.205" x2="16.452" y2="42.916" gradientUnits="userSpaceOnUse"><stop offset=".377" stop-color="#C4E58B"/><stop offset="1" stop-color="#B4D57C"/></linearGradient><linearGradient id="paint2_linear" x1="28.965" y1="7.325" x2="-2.543" y2="22.117" gradientUnits="userSpaceOnUse"><stop stop-color="#B4D57C"/><stop offset=".685" stop-color="#86BE26"/></linearGradient><linearGradient id="paint3_linear" x1="2.22" y1="36.502" x2="28.656" y2="14.694" gradientUnits="userSpaceOnUse"><stop stop-color="#C4E58B"/><stop offset=".877" stop-color="#86BE26"/></linearGradient></defs></svg>