<svg width="112" height="40" fill="none" xmlns="http://www.w3.org/2000/svg"><path d="M58.193 17.048h-3.136V15.2h8.54v1.848h-3.136V25h-2.268v-7.952zM71.079 22.9h-4.55l-.868 2.1h-2.324l4.368-9.8h2.24l4.382 9.8h-2.38l-.868-2.1zm-.714-1.722l-1.554-3.752-1.554 3.752h3.108zM81.312 25l-2.366-3.402L76.622 25h-2.604l3.626-4.984L74.2 15.2h2.576l2.254 3.178 2.212-3.178h2.45l-3.416 4.732L83.93 25h-2.618zm10.387-5.054h2.072v3.976a5.921 5.921 0 0 1-1.848.924c-.7.215-1.405.322-2.114.322-1.018 0-1.932-.215-2.744-.644a4.964 4.964 0 0 1-1.918-1.806c-.458-.775-.686-1.647-.686-2.618 0-.97.228-1.839.686-2.604a4.806 4.806 0 0 1 1.932-1.806c.821-.439 1.745-.658 2.772-.658.858 0 1.638.145 2.338.434.7.29 1.288.71 1.764 1.26l-1.456 1.344c-.7-.737-1.545-1.106-2.534-1.106-.626 0-1.181.13-1.666.392-.486.261-.864.63-1.134 1.106-.271.476-.406 1.022-.406 1.638 0 .607.135 1.148.406 1.624.27.476.644.85 1.12 1.12.485.261 1.036.392 1.652.392.653 0 1.241-.14 1.764-.42v-2.87zm4.478-4.746h2.268V25h-2.268v-9.8zm11.516 4.746h2.072v3.976a5.921 5.921 0 0 1-1.848.924 7.17 7.17 0 0 1-2.114.322c-1.017 0-1.932-.215-2.744-.644a4.966 4.966 0 0 1-1.918-1.806c-.457-.775-.686-1.647-.686-2.618 0-.97.229-1.839.686-2.604a4.811 4.811 0 0 1 1.932-1.806c.822-.439 1.746-.658 2.772-.658.859 0 1.638.145 2.338.434.7.29 1.288.71 1.764 1.26l-1.456 1.344c-.7-.737-1.544-1.106-2.534-1.106-.625 0-1.18.13-1.666.392-.485.261-.863.63-1.134 1.106-.27.476-.406 1.022-.406 1.638 0 .607.136 1.148.406 1.624.271.476.644.85 1.12 1.12.486.261 1.036.392 1.652.392.654 0 1.242-.14 1.764-.42v-2.87z" fill="#FDFDFD"/><path d="M11.651 27.817l-3.179-4.202c-1.128 1.7-2.033 5.655-1.128 8.505 1.271 4.002 5.64 5.98 7.076 6.804 2.79 1.601 5.675 1.068 6.769.6 2.632-1.467 8.655-4.822 11.69-6.504 3.036-1.68 4-4.169 4.103-5.203V13.408l-.206 2.802-2.563 6.004-4.41 5.003-8.614 3.002c-3.92.823-6.011.327-9.538-2.402z" fill="url(#paint0_linear)"/><path d="M26.214 19.412c-7.897 9.006-17.742 4.103-17.742 4.103 2.359 5.903 9.965 10.306 20.306 4.803 9.024-4.803 8.204-13.123 8.204-14.71 0-2.881-1.846-4.936-2.77-5.603-.922-.667-7.998-4.403-7.998-4.403s7.896 6.804 0 15.81z" fill="url(#paint1_linear)"/><path d="M25.35 12.183l3.16 3.927c1.128-1.701 2.053-5.38 1.148-8.23-1.271-4.002-5.64-5.98-7.076-6.804-2.79-1.601-5.675-1.067-6.769-.6A6216.913 6216.913 0 0 1 4.123 6.98c-3.036 1.68-4 4.169-4.103 5.203v14.409l.205-2.802 2.564-6.004 4.41-5.003 8.614-3.002 9.538 2.402z" fill="url(#paint2_linear)"/><path d="M10.788 20.588c7.897-9.006 17.722-4.478 17.722-4.478-2.358-5.904-9.945-9.931-20.286-4.428C-.8 16.485.02 24.805.02 26.392c0 2.881 1.846 4.936 2.77 5.603.922.667 7.774 4.528 7.774 4.528s-7.672-6.93.224-15.935z" fill="url(#paint3_linear)"/><defs><linearGradient id="paint0_linear" x1="37.535" y1="29.018" x2="12.29" y2="35.932" gradientUnits="userSpaceOnUse"><stop stop-color="#B4D57C"/><stop offset="1" stop-color="#86BE26"/></linearGradient><linearGradient id="paint1_linear" x1="38.458" y1="6.004" x2="13.645" y2="35.724" gradientUnits="userSpaceOnUse"><stop offset=".377" stop-color="#B4D57C"/><stop offset="1" stop-color="#B4D57C"/></linearGradient><linearGradient id="paint2_linear" x1="24.101" y1="6.104" x2="-2.129" y2="18.399" gradientUnits="userSpaceOnUse"><stop stop-color="#B4D57C"/><stop offset=".685" stop-color="#86BE26"/></linearGradient><linearGradient id="paint3_linear" x1="1.847" y1="30.419" x2="23.87" y2="12.279" gradientUnits="userSpaceOnUse"><stop stop-color="#B4D57C"/><stop offset=".877" stop-color="#86BE26"/></linearGradient></defs></svg>