<svg width="56" height="55" fill="none" xmlns="http://www.w3.org/2000/svg"><g clip-path="url(#clip0)" fill="#86BE26"><path d="M48.342 24.198c0-.514-.392-.952-.923-1.032l-2.717-.412-1.399-3.225 1.615-2.13a1.01 1.01 0 0 0-.112-1.353l-4.853-4.637a1.131 1.131 0 0 0-1.416-.107l-2.225 1.545-3.376-1.335-.432-2.596c-.085-.508-.543-.882-1.08-.882H28c-.604 0-1.094.469-1.094 1.046 0 .578.49 1.046 1.094 1.046h2.49l.382 2.293c.06.359.31.662.662.801l4.508 1.784c.351.139.753.093 1.06-.12l1.965-1.365 3.532 3.376-1.426 1.88c-.223.294-.27.678-.125 1.014l1.868 4.307c.146.336.464.576.84.633l2.399.363.002 4.775-2.398.365a1.086 1.086 0 0 0-.838.633l-1.866 4.31c-.145.336-.098.72.126 1.014l1.427 1.878-3.53 3.378-1.966-1.364a1.136 1.136 0 0 0-1.062-.12l-4.504 1.787c-.352.14-.602.443-.662.802l-.38 2.295H28c-.604 0-1.094.468-1.094 1.046 0 .577.49 1.046 1.094 1.046h3.438c.538 0 .996-.374 1.08-.883l.431-2.599 3.374-1.337 2.226 1.544a1.131 1.131 0 0 0 1.416-.107l4.85-4.64c.38-.365.428-.939.112-1.355l-1.616-2.126 1.397-3.228 2.715-.414c.531-.08.922-.519.922-1.033l-.003-6.56z"/><path d="M27.99 34.329c-.6.005-1.084.471-1.084 1.045 0 .578.49 1.046 1.094 1.046h.05c.604-.023 1.075-.509 1.051-1.086-.022-.57-.52-1.012-1.11-1.005zM28 18.553c-.604 0-1.094.468-1.094 1.046 0 .577.49 1.045 1.094 1.045 3.946 0 7.157 3.07 7.157 6.843 0 2.547-1.465 4.867-3.824 6.057-.534.27-.739.902-.457 1.413.196.355.575.558.968.558.172 0 .347-.04.51-.121 3.078-1.553 4.99-4.582 4.99-7.907 0-4.926-4.192-8.934-9.344-8.934zM6.344 47.147h-5.25C.49 47.147 0 47.615 0 48.192v5.02c0 .577.49 1.046 1.094 1.046h5.25c.604 0 1.093-.469 1.093-1.046v-5.02c0-.577-.49-1.045-1.093-1.045zm-1.094 5.02H2.187v-2.929H5.25v2.928zm49.656-5.02h-5.25c-.604 0-1.093.468-1.093 1.045v5.02c0 .577.49 1.046 1.093 1.046h5.25c.604 0 1.094-.469 1.094-1.046v-5.02c0-.577-.49-1.045-1.094-1.045zm-1.093 5.02H50.75v-2.929h3.063v2.928zM6.344.715h-5.25C.49.715 0 1.183 0 1.76v5.02c0 .577.49 1.045 1.094 1.045h5.25c.604 0 1.093-.468 1.093-1.046V1.76c0-.577-.49-1.045-1.093-1.045zM5.25 5.735H2.187v-2.93H5.25v2.928zM54.906.715h-5.25c-.604 0-1.093.468-1.093 1.046v5.02c0 .577.49 1.045 1.093 1.045h5.25C55.51 7.826 56 7.358 56 6.78V1.76c0-.577-.49-1.045-1.094-1.045zm-1.093 5.02H50.75v-2.93h3.063v2.928zm-1.532 35.511c-.604 0-1.093.468-1.093 1.046v1.046c0 .577.49 1.045 1.093 1.045.604 0 1.094-.468 1.094-1.045v-1.046c0-.578-.49-1.046-1.094-1.046zm0-5.229c-.604 0-1.093.469-1.093 1.046v1.046c0 .577.49 1.046 1.093 1.046.604 0 1.094-.469 1.094-1.046v-1.046c0-.577-.49-1.046-1.094-1.046zm0-25.261c-.604 0-1.093.469-1.093 1.046v.162c0 .577.49 1.046 1.093 1.046.604 0 1.094-.469 1.094-1.046v-.162c0-.577-.49-1.046-1.094-1.046zm0 20.032c-.604 0-1.093.469-1.093 1.046v1.046c0 .577.49 1.046 1.093 1.046.604 0 1.094-.469 1.094-1.046v-1.046c0-.577-.49-1.046-1.094-1.046zm0-15.686c-.604 0-1.093.468-1.093 1.046v1.046c0 .577.49 1.045 1.093 1.045.604 0 1.094-.468 1.094-1.045v-1.046c0-.578-.49-1.046-1.094-1.046zm0 10.458c-.604 0-1.093.468-1.093 1.045v1.046c0 .578.49 1.046 1.093 1.046.604 0 1.094-.468 1.094-1.046v-1.046c0-.577-.49-1.045-1.094-1.045zm0-5.23c-.604 0-1.093.47-1.093 1.047v1.045c0 .578.49 1.046 1.093 1.046.604 0 1.094-.468 1.094-1.046v-1.045c0-.578-.49-1.046-1.094-1.046zM3.719 25.56c-.604 0-1.094.468-1.094 1.045v1.046c0 .578.49 1.046 1.094 1.046.604 0 1.094-.468 1.094-1.046v-1.046c0-.577-.49-1.045-1.094-1.045zm0 5.228c-.604 0-1.094.469-1.094 1.046v1.046c0 .577.49 1.046 1.094 1.046.604 0 1.094-.469 1.094-1.046v-1.046c0-.577-.49-1.046-1.094-1.046zm0-20.032c-.604 0-1.094.469-1.094 1.046v.162c0 .577.49 1.046 1.094 1.046.604 0 1.094-.469 1.094-1.046v-.162c0-.577-.49-1.046-1.094-1.046zm0 9.574c-.604 0-1.094.47-1.094 1.047v1.045c0 .578.49 1.046 1.094 1.046.604 0 1.094-.468 1.094-1.046v-1.045c0-.578-.49-1.046-1.094-1.046zm0 15.687c-.604 0-1.094.469-1.094 1.046v1.046c0 .577.49 1.046 1.094 1.046.604 0 1.094-.469 1.094-1.046v-1.046c0-.577-.49-1.046-1.094-1.046zm0-20.915c-.604 0-1.094.468-1.094 1.046v1.046c0 .577.49 1.045 1.094 1.045.604 0 1.094-.468 1.094-1.045v-1.046c0-.578-.49-1.046-1.094-1.046zm0 26.144c-.604 0-1.094.468-1.094 1.046v1.046c0 .577.49 1.045 1.094 1.045.604 0 1.094-.468 1.094-1.045v-1.046c0-.578-.49-1.046-1.094-1.046zm30.759 8.494h-1.093c-.604 0-1.094.467-1.094 1.045 0 .577.49 1.046 1.094 1.046h1.093c.605 0 1.094-.469 1.094-1.046 0-.578-.49-1.046-1.094-1.046zm-10.937 0h-1.094c-.604 0-1.093.467-1.093 1.045 0 .577.49 1.046 1.093 1.046h1.094c.604 0 1.094-.469 1.094-1.046 0-.578-.49-1.046-1.094-1.046zm5.469 0h-1.094c-.604 0-1.094.467-1.094 1.045 0 .577.49 1.046 1.094 1.046h1.094c.604 0 1.093-.469 1.093-1.046 0-.578-.49-1.046-1.093-1.046zm-10.938 0H16.98c-.604 0-1.094.467-1.094 1.045 0 .577.49 1.046 1.094 1.046h1.093c.604 0 1.094-.469 1.094-1.046 0-.578-.49-1.046-1.094-1.046zm21.875 0h-1.094c-.604 0-1.093.467-1.093 1.045 0 .577.49 1.046 1.093 1.046h1.094c.604 0 1.094-.469 1.094-1.046 0-.578-.49-1.046-1.094-1.046zm-27.343 0H11.51c-.604 0-1.094.467-1.094 1.045 0 .577.49 1.046 1.094 1.046h1.094c.604 0 1.093-.469 1.093-1.046 0-.578-.49-1.046-1.093-1.046zm31.887 0h-.169c-.604 0-1.094.467-1.094 1.045 0 .577.49 1.046 1.094 1.046h.17c.603 0 1.093-.469 1.093-1.046 0-.578-.49-1.046-1.094-1.046zM34.478 3.307h-1.093c-.604 0-1.094.469-1.094 1.046 0 .578.49 1.046 1.094 1.046h1.093c.605 0 1.094-.468 1.094-1.046 0-.577-.49-1.046-1.094-1.046zm-5.468 0h-1.094c-.604 0-1.094.469-1.094 1.046 0 .578.49 1.046 1.094 1.046h1.094c.604 0 1.093-.468 1.093-1.046 0-.577-.49-1.046-1.093-1.046zm15.481 0h-.169c-.604 0-1.094.469-1.094 1.046 0 .578.49 1.046 1.094 1.046h.17c.603 0 1.093-.468 1.093-1.046 0-.577-.49-1.046-1.094-1.046zm-4.544 0h-1.094c-.604 0-1.093.469-1.093 1.046 0 .578.49 1.046 1.093 1.046h1.094c.604 0 1.094-.468 1.094-1.046 0-.577-.49-1.046-1.094-1.046zm-16.406 0h-1.094c-.604 0-1.093.469-1.093 1.046 0 .578.49 1.046 1.093 1.046h1.094c.604 0 1.094-.468 1.094-1.046 0-.577-.49-1.046-1.094-1.046zm-5.469 0H16.98c-.604 0-1.094.469-1.094 1.046 0 .578.49 1.046 1.094 1.046h1.093c.604 0 1.094-.468 1.094-1.046 0-.577-.49-1.046-1.094-1.046zm-5.468 0H11.51c-.604 0-1.094.469-1.094 1.046 0 .578.49 1.046 1.094 1.046h1.094c.604 0 1.093-.468 1.093-1.046 0-.577-.49-1.046-1.093-1.046zm4.808 20.198a1.128 1.128 0 0 0-1.546 0c-.205.195-.32.463-.32.74 0 .274.115.544.32.739a1.126 1.126 0 0 0 1.546 0 1.03 1.03 0 0 0 .32-.74 1.03 1.03 0 0 0-.32-.739z"/><path d="M22.389 7.53h-4.5c-1.293 0-2.344 1.005-2.344 2.24v10.85c0 .577.49 1.045 1.094 1.045.604 0 1.093-.468 1.093-1.046v-4.544h4.813v21.121h-4.813v-8.873c0-.578-.49-1.046-1.093-1.046-.604 0-1.094.468-1.094 1.046v9.92c0 .143.031.286.092.418l3.5 7.65c.174.38.567.626 1.002.626.434 0 .828-.246 1.002-.627l3.5-7.649c.06-.132.091-.275.091-.419V9.771c0-1.236-1.05-2.241-2.343-2.241zm-2.25 35.752l-1.828-3.994h3.655l-1.827 3.994zm2.406-29.298h-4.813V9.77c0-.083.07-.15.157-.15h4.5c.086 0 .156.067.156.15v4.213z"/></g><defs><clipPath id="clip0"><path fill="#fff" transform="translate(0 .715)" d="M0 0h56v53.543H0z"/></clipPath></defs></svg>