<svg height="682pt" viewBox="-46 -21 682 682.66669" width="682pt" xmlns="http://www.w3.org/2000/svg"><path d="m555.371094 345.15625h-523.808594c-18.214844 0-32.980469 14.765625-32.980469 32.976562v228.890626c0 18.210937 14.765625 32.976562 32.980469 32.976562h523.808594c18.207031 0 32.972656-14.765625 32.972656-32.976562v-228.890626c0-18.210937-14.765625-32.976562-32.972656-32.976562zm-429.710938 247.339844h-47.574218c-10.1875 0-18.449219-8.257813-18.449219-18.449219v-162.9375c0-10.191406 8.261719-18.449219 18.449219-18.449219 10.191406 0 18.445312 8.257813 18.445312 18.449219v144.492187h29.128906c10.1875 0 18.445313 8.261719 18.445313 18.445313 0 10.191406-8.257813 18.449219-18.445313 18.449219zm92.546875-18.449219c0 10.191406-8.257812 18.449219-18.441406 18.449219-10.191406 0-18.449219-8.257813-18.449219-18.449219v-162.9375c0-10.191406 8.257813-18.449219 18.449219-18.449219 10.183594 0 18.441406 8.257813 18.441406 18.449219zm176.71875-158.011719-45.191406 162.945313c-2.210937 7.988281-9.480469 13.515625-17.773437 13.515625-8.289063 0-15.558594-5.527344-17.773438-13.515625l-45.1875-162.945313c-2.722656-9.816406 3.03125-19.980468 12.84375-22.699218 9.816406-2.726563 19.980469 3.027343 22.707031 12.839843l27.410157 98.855469 27.417968-98.855469c2.71875-9.8125 12.886719-15.566406 22.707032-12.839843 9.8125 2.71875 15.566406 12.882812 12.839843 22.699218zm97.789063 56.015625c10.191406 0 18.445312 8.257813 18.445312 18.449219 0 10.183594-8.253906 18.441406-18.445312 18.441406h-27.230469v42.5h43.359375c10.1875 0 18.445312 8.253906 18.445312 18.441406 0 10.191407-8.257812 18.445313-18.445312 18.445313h-61.804688c-10.1875 0-18.445312-8.253906-18.445312-18.445313v-158.773437c0-10.1875 8.257812-18.445313 18.445312-18.445313h61.804688c10.1875 0 18.445312 8.257813 18.445312 18.445313s-8.257812 18.445313-18.445312 18.445313h-43.359375v42.496093zm0 0"/><path d="m454.449219 221.855469c-.773438-30.144531-4.082031-59.433594-9.71875-86.953125 23.285156-4.847656 45.367187-10.878906 65.71875-18.019532 17.90625 31.28125 28.953125 66.953126 31.121093 104.972657zm-132.382813 85.808593v-46.023437h92.070313c-.832031 15.722656-2.390625 31.203125-4.722657 46.273437zm-127.199218-.367187c-2.28125-14.882813-3.835938-30.140625-4.652344-45.65625h92.066406v45.90625zm-132.089844-85.441406c2.152344-37.769531 13.078125-73.222657 30.777344-104.351563 20.453124 7.070313 42.617187 13.039063 65.976562 17.824219-5.585938 27.390625-8.867188 56.539063-9.632812 86.527344zm135.941406-79.785157c26.988281 3.8125 55.070312 6.128907 83.5625 6.839844v72.945313h-92.578125c.761719-27.796875 3.828125-54.675781 9.015625-79.785157zm123.347656-142.070312c20.402344 8.5 40.136719 29.71875 56.125 61.046875 6.570313 12.867187 12.316406 26.957031 17.195313 42.015625-23.683594 3.242188-48.296875 5.265625-73.320313 6zm-39.785156 0v109.117188c-25.035156-.65625-49.683594-2.613282-73.410156-5.789063 4.898437-15.15625 10.675781-29.339844 17.285156-42.289063 15.992188-31.316406 35.71875-52.539062 56.125-61.039062zm39.785156 221.855469v-72.996094c28.488282-.792969 56.550782-3.191406 83.503906-7.082031 5.226563 25.191406 8.3125 52.171875 9.078126 80.078125zm164.792969-139.011719c-16.296875 5.234375-33.695313 9.738281-51.914063 13.480469-5.878906-19.171875-13.011718-37.089844-21.316406-53.371094-5.074218-9.9375-10.496094-19.0625-16.21875-27.382813 34.882813 15.15625 65.488282 38.359376 89.449219 67.273438zm-279.921875-67.273438c-5.722656 8.320313-11.148438 17.445313-16.214844 27.382813-8.371094 16.390625-15.542968 34.460937-21.445312 53.78125-18.320313-3.691406-35.824219-8.160156-52.238282-13.355469 24.023438-29.160156 54.796876-52.558594 89.898438-67.808594zm-143.167969 246.070313h86.597657c.75 15.425781 2.167968 30.640625 4.25 45.542969l-81.472657-.234375c-4.589843-14.761719-7.71875-29.902344-9.375-45.308594zm385.816407 46.390625c2.152343-15.175781 3.621093-30.671875 4.386718-46.390625h86.601563c-1.703125 15.867187-4.96875 31.453125-9.785157 46.625zm0 0"/></svg>