<svg width="867" height="470" viewBox="0 0 867 470" fill="none" xmlns="http://www.w3.org/2000/svg">
<g opacity="0.25">
<rect width="867" height="470" fill="black" fill-opacity="0"/>
<rect width="867" height="470" fill="black" fill-opacity="0"/>
<path d="M223.128 3.319C221.791 3.32059 220.645 4.27519 220.403 5.58969L62.0682 8.65609C61.7868 7.38824 60.6633 6.48521 59.3641 6.48279C57.8312 6.48256 56.5885 7.72487 56.5887 9.25725C56.5905 10.134 57.0068 10.9583 57.7114 11.4803L25.0001 110.873C24.9526 110.869 24.905 110.864 24.8573 110.864C23.3244 110.864 22.0817 112.106 22.0819 113.639C22.0835 114.722 22.7154 115.704 23.7 116.156L5.80865 336.664L6.18723 336.673L5.88221 336.96L82.3681 462.564C82.0019 462.952 81.7976 463.465 81.797 463.998C81.7965 465.153 82.733 466.091 83.8888 466.091C85.0455 466.092 85.9833 465.154 85.9828 463.998C85.9819 463.846 85.9643 463.696 85.931 463.548L87.3089 462.828L259.96 434.194L386.771 461.444L386.864 461.413L734.801 443.151L734.77 442.593L803.124 402.358C803.791 403.165 804.785 403.633 805.833 403.633C807.773 403.633 809.345 402.061 809.346 400.121C809.343 398.876 808.682 397.725 807.606 397.096L827.705 345.758L861.023 265.975C861.086 265.984 861.149 265.988 861.212 265.988C862.257 265.988 863.103 265.141 863.103 264.096C863.101 263.106 862.336 262.285 861.348 262.213L836.354 153.303L836.469 152.366L835.789 152.713L834.152 151.943L741.848 31.6645L741.556 31.7707L331.827 33.5049L330.721 33.0465C330.723 33.0245 330.724 33.0069 330.725 32.9858C330.726 32.1096 330.016 31.3989 329.14 31.3985C328.62 31.3987 328.134 31.6531 327.837 32.0797L225.896 6.22048C225.899 6.17644 225.901 6.13544 225.902 6.09272C225.902 4.56034 224.659 3.31804 223.127 3.31826L223.128 3.319ZM220.424 6.69905C220.505 7.05845 220.656 7.39798 220.87 7.69814L121.737 113.665C121.3 113.394 120.796 113.251 120.281 113.25C119.989 113.251 119.698 113.298 119.42 113.389L61.1942 11.3375C61.6622 10.927 61.9784 10.371 62.092 9.75901L220.424 6.69905ZM225.627 7.29584L327.563 33.1528C327.583 33.3361 327.634 33.5149 327.715 33.6805L184.504 184.58C184.343 184.474 184.173 184.382 183.995 184.307L223.076 8.86571C223.094 8.86659 223.111 8.86728 223.128 8.86786C224.194 8.86689 225.165 8.25587 225.627 7.29571V7.29584ZM221.679 8.45494C221.781 8.51793 221.887 8.5743 221.997 8.62363L182.92 184.069C182.874 184.065 182.828 184.061 182.782 184.061C182.211 184.062 181.652 184.218 181.163 184.512L122.485 117.702C122.854 117.22 123.055 116.631 123.057 116.024C123.056 115.448 122.876 114.887 122.542 114.417L221.679 8.45494ZM60.2338 11.889L118.451 113.942C117.851 114.468 117.507 115.226 117.506 116.024C117.508 116.788 117.825 117.517 118.382 118.04L77.3732 184.342C77.2967 184.329 77.2194 184.32 77.1417 184.32C76.9702 184.321 76.8003 184.351 76.6398 184.413L26.841 115.577C27.3474 115.059 27.6315 114.365 27.6328 113.641C27.6313 112.586 27.0309 111.623 26.0839 111.156L58.7152 11.9517C58.9276 12.0037 59.1454 12.0306 59.3641 12.0315C59.6598 12.0305 59.9533 11.9821 60.2338 11.8888V11.889ZM738.457 32.8934L620.735 75.6243C620.344 75.0686 619.708 74.7373 619.028 74.7355C618.197 74.736 617.445 75.2283 617.112 75.9898L337.616 34.5909L738.457 32.8934ZM741.455 32.9863L831.967 150.912L755.297 114.841L621.042 77.3911C621.094 77.2083 621.121 77.0189 621.122 76.8288C621.121 76.7733 621.118 76.7178 621.113 76.6623L741.455 32.9863ZM330.298 34.0654V34.0742L330.293 34.1007L330.285 34.0786C330.289 34.0742 330.293 34.0698 330.298 34.0654H330.298ZM328.519 34.4437H328.522C328.717 34.5265 328.928 34.5693 329.14 34.5693C329.19 34.5687 329.24 34.5658 329.29 34.5605L398.029 175.806C396.98 176.502 396.3 177.633 396.177 178.886L185.845 186.534C185.751 186.103 185.568 185.696 185.306 185.341L328.519 34.4437ZM330.57 34.6644L332.392 34.9348L504.281 106.276C504.268 106.361 504.259 106.447 504.259 106.533C504.26 106.766 504.299 106.998 504.378 107.218L403.447 176.494C402.654 175.613 401.525 175.11 400.34 175.108C399.895 175.109 399.452 175.181 399.029 175.322L330.57 34.6644ZM336.876 35.5986L616.954 77.0839C616.967 77.1795 616.984 77.2742 617.008 77.3671L508.435 106.306C508.319 105.245 507.423 104.44 506.356 104.439C505.711 104.44 505.103 104.738 504.707 105.246L336.876 35.5986ZM617.605 78.3576C617.721 78.466 617.848 78.5611 617.985 78.6408L572.514 204.025C572.082 203.915 571.638 203.858 571.192 203.856C569.391 203.856 567.705 204.742 566.684 206.226L509.235 195.052C509.208 194.128 508.578 193.33 507.684 193.091L506.929 108.544C507.476 108.388 507.936 108.016 508.203 107.515L617.605 78.3576ZM620.432 78.3797L754.906 115.89L833.443 152.837L834.033 153.606L686.751 228.548C686.09 227.641 685.037 227.105 683.915 227.103C682.817 227.105 681.782 227.621 681.12 228.496L576.527 208.149C576.166 206.515 575.076 205.137 573.57 204.408L619.069 78.9223C619.574 78.9135 620.058 78.7187 620.432 78.3795V78.3797ZM505.003 108.131C505.24 108.33 505.516 108.474 505.815 108.553L506.574 193.098C506.213 193.201 505.887 193.399 505.629 193.671L436.312 156.409C436.299 156.08 436.14 155.774 435.877 155.576L505.003 108.131ZM26.0969 116.407L75.8264 185.168C75.7398 185.357 75.6948 185.562 75.6945 185.769C75.6954 186.072 75.7915 186.367 75.9692 186.613L56.7921 217.621C56.5997 217.563 56.4001 217.534 56.1993 217.534C56.1016 217.534 56.004 217.543 55.9073 217.556L26.0969 116.407ZM24.8076 116.416C24.8243 116.417 24.8406 116.418 24.8573 116.418C24.8701 116.417 24.8833 116.417 24.8961 116.416L54.8882 217.997C54.3943 218.394 54.1072 218.994 54.1073 219.628C54.1082 220.484 54.631 221.253 55.4269 221.569L40.057 357.543C39.6702 357.604 39.3083 357.772 39.0122 358.027L6.91609 336.387L24.8076 116.416ZM121.657 118.429V118.431L180.326 185.252C179.884 185.807 179.642 186.494 179.641 187.203C179.642 188.255 180.171 189.237 181.049 189.817L150.692 259.891C150.322 259.786 149.939 259.732 149.554 259.731C148.69 259.733 147.847 260.002 147.142 260.501L78.4548 186.372C78.5425 186.183 78.5882 185.977 78.5889 185.769C78.5882 185.467 78.4928 185.173 78.3163 184.928L119.329 118.626C119.634 118.738 119.956 118.796 120.281 118.797C120.764 118.795 121.238 118.669 121.657 118.428L121.657 118.429ZM835.121 154.294L822.767 256.051L687.304 229.696C687.287 229.641 687.269 229.586 687.253 229.532L835.121 154.294ZM835.963 156.535L860.267 262.458C859.96 262.635 859.709 262.894 859.542 263.206L823.855 256.263L835.963 156.535ZM434.172 156.744C434.264 157.07 434.503 157.334 434.817 157.46L443.466 213.242C442.871 213.417 442.323 213.723 441.861 214.137L403.848 181.574C404.29 180.896 404.526 180.104 404.527 179.295C404.527 178.637 404.372 177.989 404.075 177.403L434.172 156.744ZM435.942 157.454L505.107 194.64C505.072 194.795 505.052 194.953 505.051 195.111C505.051 195.161 505.052 195.211 505.055 195.261L448.372 215.351C447.656 213.952 446.216 213.071 444.644 213.071C444.613 213.072 444.587 213.073 444.557 213.074L435.942 157.454ZM396.214 179.993C396.286 180.415 396.422 180.824 396.618 181.204L329.776 227.689C329.188 227.101 328.389 226.77 327.557 226.77C326.368 226.773 325.283 227.446 324.753 228.509L186.189 187.629L396.214 179.993ZM397.254 182.115C397.554 182.443 397.905 182.722 398.293 182.941L333.824 344.425L333.478 344.064L328.253 232.966C329.682 232.642 330.697 231.373 330.698 229.908C330.696 229.455 330.597 229.008 330.406 228.598L397.254 182.115ZM403.121 182.413H403.123L441.138 214.978C440.696 215.655 440.46 216.446 440.459 217.255C440.459 219.566 442.333 221.439 444.645 221.44C446.045 221.439 447.352 220.738 448.127 219.573L481.355 235.842C481.328 235.971 481.315 236.103 481.315 236.235C481.316 236.682 481.459 237.117 481.725 237.476L418.433 318.07C418.207 318.013 417.976 317.983 417.743 317.982C417.555 317.983 417.367 318.004 417.183 318.04L401.369 183.345C402.019 183.179 402.619 182.859 403.119 182.413L403.121 182.413ZM399.318 183.345C399.629 183.425 399.949 183.468 400.27 183.475L416.12 318.491C415.339 319.026 414.872 319.912 414.872 320.858C414.872 320.885 414.873 320.915 414.874 320.943L335.868 346.277C335.608 345.788 335.224 345.377 334.754 345.085L399.318 183.345ZM77.6414 187.127L146.329 261.249C146.228 261.373 146.134 261.502 146.048 261.636L58.2587 219.997C58.2812 219.875 58.2931 219.751 58.2935 219.628C58.292 219.101 58.0919 218.595 57.7332 218.209L76.9169 187.197C76.9912 187.21 77.0664 187.219 77.1419 187.219C77.3124 187.219 77.4815 187.188 77.6416 187.13L77.6414 187.127ZM185.585 188.604L324.437 229.566C324.425 229.679 324.418 229.793 324.418 229.908C324.42 231.48 325.586 232.809 327.145 233.015L332.307 342.84L185.315 189.051C185.417 188.91 185.507 188.76 185.585 188.604L185.585 188.604ZM184.517 189.813V189.815L332.385 344.52L332.394 344.691C331.364 344.928 330.523 345.667 330.155 346.657L234.706 329.374C234.612 328.294 233.708 327.464 232.623 327.463C232.574 327.462 232.525 327.464 232.476 327.467L184.324 189.928C184.39 189.892 184.454 189.854 184.517 189.813ZM182.059 190.252C182.296 190.31 182.538 190.34 182.782 190.341C182.946 190.339 183.11 190.323 183.273 190.297L231.431 327.836C231.415 327.849 231.399 327.858 231.383 327.871L153.149 266.045C153.534 265.4 153.738 264.664 153.74 263.913C153.737 262.448 152.968 261.092 151.713 260.336L182.059 190.252ZM508.969 196.13L566.133 207.247C565.861 207.906 565.721 208.612 565.72 209.325C565.722 211.423 566.925 213.334 568.815 214.245L549.123 268.552L485.498 236.097C485.463 235.594 485.251 235.121 484.896 234.763L506.62 197.131C506.791 197.177 506.968 197.201 507.145 197.202C507.903 197.201 508.6 196.791 508.969 196.13H508.969ZM505.427 196.305C505.496 196.404 505.573 196.496 505.657 196.582L483.938 234.214C483.766 234.168 483.588 234.145 483.41 234.145C483.017 234.146 482.633 234.258 482.301 234.467L480.762 233.682L481.093 234.488L448.612 218.579C448.756 218.153 448.829 217.705 448.831 217.255C448.829 216.967 448.8 216.681 448.738 216.399L505.427 196.305ZM576.663 209.302L680.579 229.521C680.462 229.873 680.402 230.242 680.401 230.613C680.402 232.553 681.974 234.125 683.914 234.125C684.461 234.124 684.999 233.996 685.487 233.751L743.964 315.053L691.215 338.247C690.569 337.245 689.458 336.639 688.265 336.639C687.143 336.64 686.089 337.177 685.429 338.083L550.122 269.063L569.864 214.624C570.298 214.735 570.744 214.793 571.192 214.795C574.214 214.794 576.663 212.346 576.663 209.326C576.663 209.317 576.663 209.308 576.663 209.299L576.663 209.302ZM57.7828 220.992L145.569 262.635C145.436 263.049 145.368 263.481 145.368 263.916C145.37 265.472 146.234 266.898 147.614 267.62L119.662 344.082C119.606 344.077 119.549 344.073 119.492 344.073C118.415 344.073 117.514 344.889 117.408 345.961L42.2702 358.726C42.0458 358.243 41.6459 357.864 41.1518 357.666L56.526 221.694C57.0149 221.616 57.4602 221.367 57.7828 220.992L57.7828 220.992ZM687.417 230.851L822.633 257.158L819.825 280.29C818.922 280.45 818.264 281.233 818.263 282.15C818.265 282.224 818.272 282.297 818.281 282.37L745.001 314.596L686.39 233.106C686.995 232.504 687.36 231.703 687.417 230.851L687.417 230.851ZM485.255 237.219L548.742 269.605L524.724 335.84C524.619 335.827 524.513 335.818 524.407 335.814C524.265 335.815 524.122 335.827 523.981 335.854L483.851 238.275C484.451 238.146 484.964 237.76 485.255 237.22L485.255 237.219ZM482.346 238.489L446.133 403.325C446.115 403.326 446.102 403.327 446.085 403.327L419.168 323.352C420.065 322.842 420.62 321.89 420.622 320.858C420.62 319.952 420.19 319.099 419.462 318.558L482.346 238.489ZM483.222 239.661L522.956 336.277C522.278 336.75 521.874 337.524 521.872 338.351C521.874 339.213 522.314 340.016 523.041 340.481L493.841 421.004C493.322 420.814 492.774 420.716 492.221 420.714C490.34 420.716 488.637 421.825 487.875 423.545L448.318 406.002C448.362 405.831 448.384 405.654 448.384 405.477C448.384 404.67 447.933 403.931 447.216 403.561L483.222 239.661ZM823.721 257.37L859.332 264.298C859.333 264.307 859.334 264.311 859.334 264.32L821.586 280.92C821.403 280.708 821.177 280.54 820.922 280.427L823.721 257.37ZM859.782 265.33C859.85 265.409 859.924 265.482 860.003 265.548L826.682 345.342L806.906 395.854L820.485 284.012C821.388 283.852 822.047 283.067 822.047 282.15C822.045 282.077 822.038 282.004 822.029 281.931L859.782 265.33ZM152.466 266.921L230.693 328.743C230.585 329 230.529 329.277 230.529 329.556C230.529 330.04 230.698 330.508 231.005 330.882L169.259 417.752C169.126 417.703 168.988 417.669 168.848 417.648L150.605 267.964C151.305 267.783 151.946 267.424 152.466 266.922V266.921ZM148.654 268C148.935 268.062 149.221 268.095 149.509 268.098L167.702 417.462L121.069 347.537C121.4 347.157 121.583 346.669 121.583 346.164C121.582 345.487 121.254 344.852 120.701 344.46L148.654 268ZM549.742 270.115L684.923 339.071C684.81 339.419 684.752 339.784 684.752 340.15C684.753 340.45 684.791 340.749 684.869 341.039L550.427 400.157L525.861 340.423C526.537 339.949 526.94 339.176 526.941 338.351C526.94 337.487 526.499 336.684 525.771 336.219L549.742 270.115ZM818.724 283.384C818.906 283.596 819.133 283.764 819.388 283.878L805.703 396.615C805.201 396.633 804.709 396.76 804.26 396.985L745.662 315.515L818.724 283.384ZM744.624 315.971L803.358 397.629C803.227 397.761 803.106 397.904 802.997 398.055L691.605 341.233C691.719 340.884 691.777 340.518 691.778 340.15C691.777 339.85 691.738 339.551 691.661 339.261L744.624 315.971ZM415.125 322.028C415.227 322.26 415.359 322.476 415.518 322.673L338.483 415.383C337.924 415.031 337.288 414.816 336.629 414.756L333.787 350.805C335.217 350.482 336.234 349.213 336.236 347.747L336.636 347.369L336.508 347.235L415.125 322.028ZM416.373 323.382C416.795 323.612 417.267 323.732 417.747 323.732C417.871 323.73 417.994 323.719 418.117 323.701L445.04 403.675C444.522 404.018 444.177 404.567 444.093 405.182L340.309 417.867C340.135 417.202 339.8 416.59 339.333 416.086L416.373 323.382ZM234.507 330.46L329.956 347.736C329.956 347.741 329.956 347.745 329.956 347.749C329.957 348.097 330.017 348.442 330.131 348.77L273.67 380.288C273.276 379.889 272.739 379.665 272.178 379.666C271.913 379.666 271.651 379.717 271.405 379.815L234.377 330.696C234.425 330.621 234.469 330.542 234.507 330.462L234.507 330.46ZM233.549 331.433L270.521 380.479C270.239 380.844 270.086 381.293 270.086 381.754C270.087 382.513 270.498 383.211 271.161 383.58L259.103 432.541L170.616 419.462C170.568 419.069 170.411 418.698 170.161 418.392L231.909 331.522C232.138 331.606 232.379 331.649 232.623 331.65C232.944 331.65 233.261 331.576 233.549 331.434V331.433ZM8.14714 338.548L38.3958 358.942C38.323 359.158 38.2857 359.383 38.2855 359.61C38.2861 360.765 39.2223 361.701 40.3773 361.702C40.4664 361.7 40.5553 361.693 40.6434 361.68L80.5575 457.459L8.14714 338.548ZM524.836 340.846L549.413 400.605L496.673 423.798C496.319 422.86 495.679 422.058 494.843 421.505L524.085 340.862C524.193 340.875 524.3 340.884 524.408 340.884C524.552 340.883 524.695 340.87 524.836 340.844L524.836 340.846ZM685.31 342.053C685.957 343.057 687.07 343.663 688.265 343.662C688.581 343.662 688.895 343.618 689.199 343.536L733.752 441.437L598.596 434.366L496.943 426.027C496.965 425.843 496.978 425.657 496.983 425.471C496.98 425.277 496.965 425.082 496.939 424.89L685.31 342.053ZM691.099 342.22L802.491 399.044C802.377 399.392 802.319 399.756 802.318 400.123C802.319 400.562 802.401 400.997 802.562 401.405L734.879 441.247L690.203 343.076C690.55 342.846 690.853 342.556 691.099 342.22ZM117.597 347.049C117.767 347.412 118.038 347.719 118.377 347.933L83.9408 461.912C83.9236 461.911 83.906 461.91 83.8889 461.91C83.802 461.912 83.7153 461.919 83.6293 461.932L41.6666 361.255C42.1158 360.905 42.4025 360.386 42.4605 359.819L117.597 347.049ZM120.153 348.147L166.966 418.338C166.632 418.719 166.447 419.208 166.447 419.715C166.448 419.865 166.465 420.014 166.499 420.161L86.9888 461.759L85.3274 462.033L85.4161 462.574C85.2936 462.443 85.1547 462.328 85.0029 462.232L119.44 348.255C119.457 348.256 119.474 348.257 119.492 348.257C119.717 348.256 119.94 348.218 120.154 348.147L120.153 348.147ZM330.674 349.739C331.177 350.35 331.893 350.749 332.677 350.855L335.522 414.806C333.527 415.164 332.074 416.898 332.074 418.924C332.075 418.995 332.078 419.065 332.082 419.136L260.263 432.459L272.234 383.844C273.367 383.813 274.27 382.888 274.272 381.755C274.271 381.586 274.25 381.419 274.209 381.255L330.674 349.739ZM444.225 406.277C444.275 406.402 444.336 406.521 444.409 406.635L386.579 460.264L261.376 433.373L332.288 420.223C332.85 421.941 334.452 423.103 336.259 423.106C338.552 423.105 340.417 421.261 340.443 418.969L444.225 406.277ZM447.781 406.97L487.544 424.609C487.49 424.894 487.463 425.182 487.462 425.472C487.464 425.845 487.51 426.217 487.599 426.579L389.004 459.527L445.225 407.385C445.534 407.548 445.879 407.633 446.229 407.633C446.815 407.632 447.376 407.392 447.782 406.969L447.781 406.97ZM170.458 420.548L257.714 433.451L90.4543 461.183L167.014 421.14C167.409 421.563 167.962 421.804 168.541 421.804C169.373 421.803 170.125 421.31 170.458 420.548ZM496.679 427.118L598.523 435.469L729.453 442.318L390.788 460.102L487.977 427.619C488.786 429.219 490.427 430.229 492.221 430.229C494.212 430.227 495.991 428.985 496.679 427.118Z" fill="#00CCFF"/>
<path d="M57.4986 10.94L8.08677 30.3642L5.29865 336.952L6.46036 336.961L9.23989 31.1558L57.9202 12.0241L57.4986 10.94Z" fill="#00CCFF"/>
<path d="M222.248 5.09903L222.187 6.26895L741.424 33.5642L741.485 32.4029L222.248 5.09903Z" fill="#00CCFF"/>
<path d="M848.802 1.03878L222.213 5.0991L222.222 6.26902L847.95 2.2087L861.305 44.6097L834.551 154.152L835.687 154.436L862.519 44.5755L848.802 1.03878Z" fill="#00CCFF"/>
<path d="M741.511 32.4031L741.399 33.5644L861.856 45.169L861.968 44.0163L741.511 32.4031Z" fill="#00CCFF"/>
<path d="M848.208 1.06471L741.287 32.4289L741.622 33.5472L848.535 2.18302L848.208 1.06471Z" fill="#00CCFF"/>
<path d="M861.331 44.5926L860.763 262.206L861.933 262.215L862.493 44.5928L861.331 44.5926Z" fill="#00CCFF"/>
<path d="M860.849 262.456L859.687 262.465L861.226 455.12L390.8 459.519L390.774 460.68L862.404 456.307L860.849 262.456Z" fill="#00CCFF"/>
<path d="M806.153 399.749L805.25 400.489L859.418 454.527L734.901 442.297L734.669 443.441L862.404 456.308L806.153 399.749Z" fill="#00CCFF"/>
<path d="M386.575 459.682L83.2887 463.536L83.2975 464.706L386.584 460.844L386.575 459.682Z" fill="#00CCFF"/>
<path d="M6.46061 336.858L5.3075 337.055L22.7161 438.142L83.6418 466.615L84.1323 465.566L23.7573 437.342L6.46061 336.858Z" fill="#00CCFF"/>
<path d="M83.2942 470C86.5431 470 89.1768 467.367 89.1768 464.12C89.1768 460.872 86.5431 458.239 83.2942 458.239C80.0453 458.239 77.4116 460.872 77.4116 464.12C77.4116 467.367 80.0453 470 83.2942 470Z" fill="#00CCFF"/>
<path d="M166.966 424.218C170.215 424.218 172.849 421.585 172.849 418.338C172.849 415.09 170.215 412.457 166.966 412.457C163.717 412.457 161.083 415.09 161.083 418.338C161.083 421.585 163.717 424.218 166.966 424.218Z" fill="#00CCFF"/>
<path d="M5.8826 342.84C9.13147 342.84 11.7652 340.207 11.7652 336.96C11.7652 333.712 9.13147 331.079 5.8826 331.079C2.63373 331.079 0 333.712 0 336.96C0 340.207 2.63373 342.84 5.8826 342.84Z" fill="#00CCFF"/>
<path d="M506.575 198.979C509.824 198.979 512.458 196.346 512.458 193.098C512.458 189.85 509.824 187.218 506.575 187.218C503.326 187.218 500.693 189.85 500.693 193.098C500.693 196.346 503.326 198.979 506.575 198.979Z" fill="#00CCFF"/>
<path d="M859.335 270.2C862.584 270.2 865.218 267.567 865.218 264.319C865.218 261.071 862.584 258.439 859.335 258.439C856.086 258.439 853.452 261.071 853.452 264.319C853.452 267.567 856.086 270.2 859.335 270.2Z" fill="#00CCFF"/>
<path d="M834.972 164.087C838.221 164.087 840.854 161.454 840.854 158.207C840.854 154.959 838.221 152.326 834.972 152.326C831.723 152.326 829.089 154.959 829.089 158.207C829.089 161.454 831.723 164.087 834.972 164.087Z" fill="#00CCFF"/>
<path d="M741.485 39.4481C744.734 39.4481 747.368 36.8152 747.368 33.5675C747.368 30.3197 744.734 27.6869 741.485 27.6869C738.236 27.6869 735.603 30.3197 735.603 33.5675C735.603 36.8152 738.236 39.4481 741.485 39.4481Z" fill="#00CCFF"/>
<path d="M734.801 449.03C738.05 449.03 740.684 446.397 740.684 443.149C740.684 439.901 738.05 437.269 734.801 437.269C731.552 437.269 728.919 439.901 728.919 443.149C728.919 446.397 731.552 449.03 734.801 449.03Z" fill="#00CCFF"/>
<path d="M329.139 43.1597C332.388 43.1597 335.022 40.5268 335.022 37.2791C335.022 34.0313 332.388 31.3985 329.139 31.3985C325.891 31.3985 323.257 34.0313 323.257 37.2791C323.257 40.5268 325.891 43.1597 329.139 43.1597Z" fill="#00CCFF"/>
<path d="M23.3665 440.35C24.8261 440.35 26.0093 439.167 26.0093 437.708C26.0093 436.249 24.8261 435.066 23.3665 435.066C21.907 435.066 20.7238 436.249 20.7238 437.708C20.7238 439.167 21.907 440.35 23.3665 440.35Z" fill="#00CCFF"/>
<path d="M8.08677 33.1515C9.62661 33.1515 10.8749 31.9036 10.8749 30.3643C10.8749 28.825 9.62661 27.5771 8.08677 27.5771C6.54693 27.5771 5.29865 28.825 5.29865 30.3643C5.29865 31.9036 6.54693 33.1515 8.08677 33.1515Z" fill="#00CCFF"/>
<path d="M861.226 460.893C864.415 460.893 867 458.309 867 455.121C867 451.933 864.415 449.348 861.226 449.348C858.037 449.348 855.452 451.933 855.452 455.121C855.452 458.309 858.037 460.893 861.226 460.893Z" fill="#00CCFF"/>
<path d="M861.968 47.5109C863.262 47.5109 864.311 46.4623 864.311 45.1688C864.311 43.8753 863.262 42.8268 861.968 42.8268C860.674 42.8268 859.625 43.8753 859.625 45.1688C859.625 46.4623 860.674 47.5109 861.968 47.5109Z" fill="#00CCFF"/>
<path d="M847.993 4.68412C849.287 4.68412 850.336 3.63555 850.336 2.34206C850.336 1.04857 849.287 0 847.993 0C846.699 0 845.65 1.04857 845.65 2.34206C845.65 3.63555 846.699 4.68412 847.993 4.68412Z" fill="#00CCFF"/>
<path d="M822.634 259.083C823.698 259.083 824.56 258.221 824.56 257.158C824.56 256.094 823.698 255.232 822.634 255.232C821.57 255.232 820.707 256.094 820.707 257.158C820.707 258.221 821.57 259.083 822.634 259.083Z" fill="#00CCFF"/>
</g>
<rect width="557" height="428" fill="black" fill-opacity="0" transform="translate(156 22)"/>
<rect width="134.171" height="151.713" fill="black" fill-opacity="0" transform="translate(164.662 106.114)"/>
<path d="M164.662 257.826H197.45V161.38L270.575 257.826H298.833V106.114H266.045V199.525L195.292 106.114H164.662V257.826Z" fill="#4D4D4D"/>
<path d="M356.621 177.107L339.583 181.707L351.207 207.466L368.245 202.866L356.621 177.107Z" fill="#80E5FF"/>
<path d="M388.628 105.073L345.674 138.671L356.462 152.67L399.456 119.072L388.628 105.073Z" fill="#80E5FF"/>
<path d="M344.609 281.576V298.489C344.817 303.867 368.439 301.737 353.269 294.494V281.62L344.609 281.576Z" fill="#E9C6AF"/>
<rect width="121.444" height="160.382" fill="black" fill-opacity="0" transform="translate(437.681 104.643)"/>
<path d="M490.314 265.025C507.355 265.025 518.356 257.006 526.338 246.169V262.857H559.125V104.643H526.338V161.86C518.572 152.541 507.787 144.522 490.314 144.522C462.919 144.522 437.681 165.761 437.681 204.556C437.681 243.785 463.351 265.025 490.314 265.025ZM498.727 237.066C483.412 237.066 470.469 224.279 470.469 204.99C470.469 185.051 483.412 172.48 498.727 172.48C514.042 172.48 526.769 185.267 526.769 204.556C526.769 224.279 514.042 237.066 498.727 237.066Z" fill="#4D4D4D"/>
<path d="M666.268 238.882H671.429V257.245H666.268V238.882Z" fill="#E9C6AF"/>
<path d="M681.098 238.882H686.259V257.245H681.098V238.882Z" fill="#E9C6AF"/>
<path d="M654.085 132.729H698.443V189.487H654.085V132.729Z" fill="#BF3F1B"/>
<path d="M703.755 181.896V218.728C703.547 230.44 679.925 225.802 695.095 210.027V181.993L703.755 181.896Z" fill="#E9C6AF"/>
<path d="M648.765 181.622V218.454C648.972 230.166 672.594 225.527 657.424 209.753V181.718L648.765 181.622Z" fill="#E9C6AF"/>
<path d="M682.116 200.315H713V219.698H682.116V200.315Z" fill="#B3B3B3"/>
<path d="M657.423 181.719H695.614V239.259H657.423V181.719Z" fill="#5F8DD3"/>
<path d="M668.849 253.963C667.991 253.963 667.141 254.133 666.349 254.463C665.556 254.793 664.836 255.276 664.23 255.886C663.623 256.495 663.142 257.219 662.814 258.015C662.485 258.811 662.316 259.665 662.317 260.526H675.379C675.379 258.786 674.691 257.117 673.466 255.886C672.242 254.655 670.581 253.964 668.849 253.963Z" fill="#162D50"/>
<path d="M367 157.524C367 164.916 364.078 172.005 358.876 177.231C353.674 182.458 346.618 185.394 339.262 185.394C331.905 185.394 324.85 182.458 319.648 177.231C314.446 172.005 311.524 164.916 311.523 157.524C311.523 153.864 312.241 150.24 313.635 146.859C315.029 143.478 317.072 140.405 319.648 137.817C322.224 135.229 325.281 133.176 328.647 131.776C332.012 130.375 335.619 129.654 339.262 129.654C342.904 129.654 346.511 130.375 349.877 131.776C353.242 133.176 356.3 135.229 358.876 137.817C361.452 140.405 363.495 143.478 364.889 146.859C366.283 150.24 367 153.864 367 157.524Z" fill="#00CCFF"/>
<path d="M454.446 93.8067C454.446 105.19 449.945 116.107 441.934 124.157C433.922 132.206 423.057 136.728 411.727 136.728C406.117 136.728 400.562 135.618 395.379 133.461C390.196 131.304 385.487 128.142 381.52 124.157C377.553 120.171 374.407 115.44 372.26 110.232C370.113 105.025 369.008 99.4432 369.008 93.8067C369.008 88.1701 370.113 82.5888 372.26 77.3813C374.407 72.1738 377.553 67.4422 381.52 63.4565C385.487 59.4709 390.196 56.3093 395.379 54.1523C400.562 51.9953 406.117 50.8851 411.727 50.8851C423.057 50.8851 433.922 55.4072 441.934 63.4565C449.945 71.5059 454.446 82.4231 454.446 93.8067Z" fill="#00CCFF"/>
<path d="M379.526 352.011C378.668 352.011 377.818 352.181 377.026 352.511C376.233 352.841 375.513 353.324 374.907 353.934C374.3 354.543 373.819 355.267 373.491 356.063C373.162 356.859 372.994 357.713 372.994 358.575H386.056C386.056 356.834 385.368 355.165 384.143 353.934C382.919 352.704 381.258 352.012 379.526 352.011Z" fill="black"/>
<rect width="106.344" height="119.636" fill="black" fill-opacity="0" transform="translate(249.102 326.499)"/>
<path d="M288.792 446.135C304.755 446.135 315.756 440.283 323.737 431.397V443.968H355.446V376.564C355.446 360.959 351.563 348.172 342.935 339.503C334.738 331.267 321.796 326.499 303.892 326.499C284.262 326.499 271.751 330.183 259.024 335.818L267.221 360.959C277.791 357.058 286.635 354.674 299.146 354.674C315.54 354.674 323.953 362.26 323.953 375.914V377.864C315.756 375.047 307.343 373.096 295.695 373.096C268.3 373.096 249.102 384.8 249.102 410.158C249.102 433.565 267.006 446.135 288.792 446.135ZM298.715 423.378C288.145 423.378 280.811 418.177 280.811 409.291C280.811 398.454 289.439 392.819 303.46 392.819C311.442 392.819 318.776 394.553 324.384 397.154V403.005C324.384 414.926 314.03 423.378 298.715 423.378Z" fill="#4D4D4D"/>
<path d="M394.287 233.225C394.287 236.151 393.714 239.049 392.599 241.753C391.484 244.457 389.851 246.913 387.791 248.982C385.732 251.052 383.287 252.693 380.596 253.813C377.905 254.933 375.021 255.509 372.108 255.509C369.196 255.509 366.312 254.933 363.621 253.813C360.93 252.693 358.485 251.052 356.425 248.982C354.366 246.913 352.732 244.457 351.617 241.753C350.503 239.049 349.929 236.151 349.929 233.225C349.929 230.299 350.503 227.401 351.617 224.697C352.732 221.993 354.366 219.537 356.425 217.467C358.485 215.398 360.93 213.757 363.621 212.637C366.312 211.517 369.196 210.941 372.108 210.941C375.021 210.941 377.905 211.517 380.596 212.637C383.287 213.757 385.732 215.398 387.791 217.467C389.851 219.537 391.484 221.993 392.599 224.697C393.714 227.401 394.287 230.299 394.287 233.225Z" fill="#333333"/>
<path d="M367.415 253.459H376.804V260.842H367.415V253.459Z" fill="#E9C6AF"/>
<path d="M372.108 259.319C363.695 259.32 355.626 261.898 349.678 266.487C343.729 271.076 340.387 277.3 340.387 283.789C340.396 284.992 340.519 286.193 340.757 287.382H403.449C403.69 286.193 403.817 284.992 403.828 283.789C403.828 277.3 400.486 271.076 394.538 266.487C388.589 261.898 380.521 259.32 372.108 259.319H372.108Z" fill="#8DD35F"/>
<path d="M357.394 260.093H365.77C367.825 260.093 369.48 261.755 369.48 263.82V283.417C369.48 285.482 367.825 287.144 365.77 287.144H357.394C355.339 287.144 353.684 285.482 353.684 283.417V263.82C353.684 261.755 355.339 260.093 357.394 260.093Z" fill="#E6E6E6"/>
<rect width="121.444" height="160.382" fill="black" fill-opacity="0" transform="translate(361.856 285.753)"/>
<path d="M414.489 446.135C431.53 446.135 442.531 438.116 450.513 427.28V443.968H483.3V285.753H450.513V342.971C442.747 333.651 431.962 325.632 414.489 325.632C387.094 325.632 361.856 346.872 361.856 385.667C361.856 424.895 387.526 446.135 414.489 446.135ZM422.902 418.177C407.587 418.177 394.644 405.39 394.644 386.1C394.644 366.161 407.587 353.591 422.902 353.591C438.217 353.591 450.944 366.378 450.944 385.667C450.944 405.39 438.217 418.177 422.902 418.177Z" fill="#4D4D4D"/>
<path d="M473.903 424.616C474.385 425.886 474.433 427.308 474.044 428.801C473.656 430.294 472.838 431.828 471.638 433.317C470.439 434.805 468.88 436.219 467.051 437.476C465.223 438.733 463.16 439.81 460.981 440.645C458.802 441.479 456.549 442.056 454.352 442.341C452.154 442.626 450.055 442.615 448.173 442.307C446.292 441.999 444.665 441.401 443.386 440.547C442.106 439.693 441.2 438.599 440.718 437.329C440.236 436.059 440.188 434.637 440.576 433.144C440.965 431.651 441.782 430.116 442.982 428.628C444.182 427.139 445.741 425.726 447.569 424.469C449.398 423.211 451.461 422.135 453.64 421.3C455.819 420.465 458.071 419.889 460.269 419.604C462.466 419.318 464.566 419.33 466.447 419.638C468.329 419.946 469.956 420.544 471.235 421.398C472.514 422.252 473.421 423.345 473.903 424.616Z" fill="#333333"/>
<path d="M474.744 444.416C474.804 443.694 474.725 442.967 474.513 442.276C474.301 441.586 473.959 440.945 473.507 440.391C473.055 439.837 472.503 439.38 471.88 439.047C471.258 438.714 470.578 438.511 469.88 438.45L468.976 449.446C470.386 449.57 471.786 449.11 472.867 448.167C473.949 447.224 474.624 445.875 474.744 444.416Z" fill="#CCCCCC"/>
<rect width="48.2929" height="46.6816" fill="black" fill-opacity="0" transform="translate(314.248 192.991) scale(2.59067)"/>
<path d="M376.588 313.927C412.611 313.927 439.359 286.836 439.359 253.459C439.359 219.649 412.827 192.991 377.019 192.991C340.996 192.991 314.248 220.082 314.248 253.459C314.248 287.269 340.78 313.927 376.588 313.927ZM377.019 285.536C358.9 285.536 346.604 270.581 346.604 253.459C346.604 235.904 357.821 221.383 376.588 221.383C394.707 221.383 407.003 236.337 407.003 253.459C407.003 271.014 395.786 285.536 377.019 285.536Z" fill="#00CCFF"/>
<rect width="93.8332" height="120.07" fill="black" fill-opacity="0" transform="translate(488.909 326.065)"/>
<path d="M538.521 446.135C563.544 446.135 582.742 434.431 582.742 408.64C582.742 386.967 563.975 379.164 547.797 373.746C535.286 369.412 524.285 366.377 524.285 359.875C524.285 354.89 528.383 351.423 536.364 351.423C544.777 351.423 556.21 355.541 567.642 362.259L580.153 339.503C567.642 331.05 551.68 326.065 537.012 326.065C513.715 326.065 494.733 339.286 494.733 362.91C494.733 385.883 513.068 393.469 529.246 398.237C541.973 402.138 553.19 404.522 553.19 411.674C553.19 417.309 548.875 420.777 539.384 420.777C528.599 420.777 515.441 416.009 502.93 406.906L488.909 428.579C504.224 440.716 522.343 446.135 538.521 446.135Z" fill="#4D4D4D"/>
<path d="M683.681 253.963C682.823 253.963 681.974 254.133 681.181 254.463C680.388 254.793 679.668 255.276 679.062 255.886C678.455 256.495 677.974 257.219 677.646 258.015C677.318 258.811 677.149 259.665 677.149 260.526H690.211C690.211 258.786 689.523 257.117 688.298 255.886C687.074 254.655 685.413 253.964 683.681 253.963Z" fill="#162D50"/>
<path d="M698.443 133.493C698.443 136.42 697.87 139.318 696.755 142.021C695.64 144.725 694.007 147.182 691.947 149.251C689.888 151.32 687.443 152.962 684.752 154.082C682.061 155.201 679.177 155.778 676.264 155.778C673.351 155.778 670.467 155.201 667.776 154.082C665.086 152.962 662.641 151.32 660.581 149.251C658.521 147.182 656.888 144.725 655.773 142.021C654.659 139.318 654.085 136.42 654.085 133.493C654.085 127.583 656.422 121.915 660.581 117.736C664.74 113.557 670.382 111.209 676.264 111.209C682.146 111.209 687.788 113.557 691.947 117.736C696.106 121.915 698.443 127.583 698.443 133.493Z" fill="#BF3F1B"/>
<path d="M671.57 153.726H680.959V161.109H671.57V153.726Z" fill="#E9C6AF"/>
<path d="M676.265 159.184C668.885 159.185 661.808 161.446 656.59 165.471C651.372 169.497 648.441 174.956 648.441 180.648C648.448 181.703 648.557 182.757 648.765 183.799H703.757C703.968 182.757 704.079 181.704 704.089 180.648C704.089 174.956 701.158 169.497 695.94 165.471C690.722 161.446 683.644 159.185 676.265 159.184H676.265Z" fill="#5F8DD3"/>
<path d="M657.119 136.299C657.119 136.904 656.879 137.485 656.453 137.914C656.026 138.342 655.448 138.583 654.845 138.583C654.242 138.583 653.664 138.342 653.237 137.914C652.811 137.485 652.571 136.904 652.571 136.299C652.571 135.999 652.63 135.702 652.745 135.424C652.859 135.147 653.026 134.895 653.237 134.683C653.448 134.471 653.699 134.303 653.975 134.188C654.251 134.073 654.546 134.014 654.845 134.014C655.448 134.014 656.026 134.255 656.453 134.683C656.879 135.112 657.119 135.693 657.119 136.299Z" fill="#E9C6AF"/>
<path d="M698.446 136.299C698.446 141.465 696.109 146.42 691.95 150.073C687.791 153.726 682.149 155.778 676.267 155.778C670.385 155.778 664.743 153.726 660.584 150.073C656.424 146.42 654.088 141.465 654.088 136.299C654.088 133.741 654.661 131.208 655.776 128.845C656.891 126.481 658.524 124.334 660.584 122.525C662.643 120.716 665.088 119.282 667.779 118.303C670.47 117.324 673.354 116.82 676.267 116.82C679.18 116.82 682.064 117.324 684.755 118.303C687.445 119.282 689.89 120.716 691.95 122.525C694.009 124.334 695.643 126.481 696.758 128.845C697.872 131.208 698.446 133.741 698.446 136.299Z" fill="#E9C6AF"/>
<path d="M699.922 136.299C699.922 136.904 699.682 137.485 699.256 137.914C698.829 138.342 698.251 138.583 697.648 138.583C697.045 138.583 696.467 138.342 696.04 137.914C695.614 137.485 695.375 136.904 695.375 136.299C695.375 135.693 695.614 135.112 696.04 134.683C696.467 134.255 697.045 134.014 697.648 134.014C697.947 134.014 698.242 134.073 698.518 134.188C698.794 134.303 699.045 134.471 699.256 134.683C699.467 134.895 699.634 135.147 699.749 135.424C699.863 135.702 699.922 135.999 699.922 136.299Z" fill="#E9C6AF"/>
<path d="M676.263 111.209C673.386 111.214 670.538 111.781 667.877 112.879L664.97 118.955L698.387 131.937C697.574 120.263 687.911 111.21 676.263 111.209Z" fill="#BF3F1B"/>
<path d="M676.264 111.209C664.016 111.21 654.087 121.186 654.086 133.492V133.517L673.029 117.908C671.93 117.731 677.377 111.219 676.264 111.21V111.209Z" fill="#BF3F1B"/>
<path d="M671.015 143.192C671.159 144.49 671.773 145.69 672.742 146.562C673.71 147.434 674.964 147.917 676.265 147.919C677.566 147.918 678.821 147.435 679.79 146.563C680.759 145.691 681.374 144.491 681.517 143.192H671.015Z" fill="#333333"/>
<rect width="113.463" height="120.937" fill="black" fill-opacity="0" transform="translate(563.705 144.088)"/>
<path d="M624.104 265.024C645.027 265.024 660.558 256.789 671.344 243.351L652.577 226.663C643.517 235.115 635.536 238.583 624.535 238.583C609.867 238.583 599.513 230.781 596.277 215.826H676.737C676.952 212.792 677.168 209.758 677.168 207.157C677.168 174.214 659.48 144.088 620.868 144.088C587.218 144.088 563.705 171.396 563.705 204.556C563.705 240.534 589.375 265.024 624.104 265.024ZM595.846 195.237C598.434 180.282 607.278 170.529 620.868 170.529C634.673 170.529 643.302 180.499 645.243 195.237H595.846Z" fill="#4D4D4D"/>
<rect width="12.7571" height="3.16048" fill="black" fill-opacity="0" transform="translate(669.887 131.937)"/>
<path d="M682.645 133.516C682.645 133.724 682.604 133.929 682.525 134.121C682.446 134.313 682.33 134.487 682.184 134.634C682.038 134.78 681.865 134.897 681.674 134.976C681.483 135.056 681.279 135.096 681.072 135.096C680.866 135.096 680.661 135.056 680.47 134.976C680.28 134.897 680.106 134.78 679.96 134.634C679.814 134.487 679.698 134.313 679.619 134.121C679.54 133.929 679.5 133.724 679.5 133.516C679.5 133.309 679.54 133.104 679.619 132.912C679.698 132.72 679.814 132.546 679.96 132.399C680.106 132.253 680.28 132.136 680.47 132.057C680.661 131.977 680.866 131.937 681.072 131.937C681.279 131.937 681.483 131.977 681.674 132.057C681.865 132.136 682.038 132.253 682.184 132.399C682.33 132.546 682.446 132.72 682.525 132.912C682.604 133.104 682.645 133.309 682.645 133.516Z" fill="#333333"/>
<path d="M673.032 133.517C673.032 133.725 672.992 133.93 672.913 134.122C672.834 134.313 672.718 134.488 672.572 134.634C672.426 134.781 672.252 134.897 672.062 134.977C671.871 135.056 671.666 135.097 671.46 135.097C671.253 135.097 671.049 135.056 670.858 134.977C670.667 134.897 670.494 134.781 670.348 134.634C670.202 134.488 670.086 134.313 670.007 134.122C669.928 133.93 669.887 133.725 669.887 133.517C669.887 133.31 669.928 133.104 670.007 132.913C670.086 132.721 670.202 132.547 670.348 132.4C670.494 132.253 670.667 132.137 670.858 132.058C671.049 131.978 671.253 131.937 671.46 131.937C671.666 131.937 671.871 131.978 672.062 132.058C672.252 132.137 672.426 132.253 672.572 132.4C672.718 132.547 672.834 132.721 672.913 132.913C672.992 133.104 673.032 133.31 673.032 133.517Z" fill="#333333"/>
<path d="M703.014 219.7C703.014 220.433 702.855 221.159 702.548 221.836C702.24 222.513 701.788 223.129 701.219 223.647C700.65 224.165 699.975 224.577 699.231 224.857C698.488 225.138 697.691 225.282 696.886 225.282C696.082 225.282 695.285 225.138 694.541 224.857C693.798 224.577 693.123 224.165 692.554 223.647C691.985 223.129 691.533 222.513 691.225 221.836C690.917 221.159 690.759 220.433 690.759 219.7C690.759 218.967 690.917 218.241 691.225 217.564C691.533 216.886 691.985 216.271 692.554 215.753C693.123 215.234 693.798 214.823 694.541 214.543C695.285 214.262 696.082 214.118 696.886 214.118C697.691 214.118 698.488 214.262 699.231 214.543C699.975 214.823 700.65 215.234 701.219 215.753C701.788 216.271 702.24 216.886 702.548 217.564C702.855 218.241 703.014 218.967 703.014 219.7Z" fill="#E9C6AF"/>
<path d="M707.42 207.759C707.581 207.759 707.74 207.791 707.888 207.853C708.037 207.915 708.171 208.005 708.285 208.119C708.399 208.233 708.489 208.369 708.55 208.518C708.612 208.667 708.643 208.827 708.643 208.988V210.612C708.643 210.773 708.612 210.933 708.55 211.082C708.489 211.231 708.399 211.367 708.285 211.481C708.171 211.595 708.037 211.685 707.888 211.747C707.74 211.809 707.581 211.841 707.42 211.841H704.367C704.367 212.008 704.504 212.253 704.671 212.253H706.505V212.975C706.505 213.136 706.474 213.296 706.412 213.445C706.351 213.594 706.261 213.73 706.147 213.844C706.034 213.958 705.899 214.048 705.75 214.11C705.602 214.172 705.443 214.204 705.282 214.204H703.452C703.292 214.204 703.133 214.172 702.984 214.11C702.836 214.048 702.701 213.958 702.587 213.844C702.474 213.73 702.384 213.594 702.322 213.445C702.261 213.296 702.229 213.136 702.229 212.975V211.364C702.229 210.685 702.777 210.139 703.452 210.139H705.697C706.373 210.139 706.916 209.589 706.916 208.911V207.759H707.42H707.42ZM705.59 212.825C705.419 212.825 705.282 212.953 705.282 213.207C705.282 213.46 705.419 213.512 705.59 213.512C705.63 213.512 705.67 213.504 705.707 213.489C705.743 213.474 705.777 213.451 705.805 213.423C705.833 213.394 705.856 213.361 705.871 213.324C705.886 213.287 705.894 213.247 705.894 213.207C705.894 212.954 705.757 212.825 705.59 212.825ZM701.314 212.056C700.639 212.056 700.091 211.506 700.091 210.827V209.203C700.091 208.524 700.639 207.974 701.314 207.974H704.367C704.367 207.806 704.231 207.562 704.064 207.562H702.229V206.84C702.229 206.161 702.777 205.611 703.452 205.611H705.282C705.958 205.611 706.505 206.161 706.505 206.84V208.451C706.505 209.13 705.958 209.675 705.282 209.675H703.037C702.362 209.675 701.819 210.225 701.819 210.904V212.056H701.314H701.314ZM703.144 206.99C703.315 206.99 703.452 206.861 703.452 206.608C703.452 206.354 703.315 206.303 703.144 206.303C702.977 206.303 702.841 206.354 702.841 206.608C702.841 206.861 702.977 206.99 703.144 206.99Z" fill="#808080"/>
<path d="M352.265 235.436C352.265 235.744 352.204 236.049 352.087 236.334C351.97 236.619 351.798 236.877 351.581 237.095C351.364 237.313 351.107 237.486 350.823 237.604C350.54 237.722 350.236 237.782 349.93 237.782C349.623 237.782 349.319 237.722 349.036 237.604C348.753 237.486 348.495 237.313 348.279 237.095C348.062 236.877 347.89 236.619 347.772 236.334C347.655 236.049 347.595 235.744 347.595 235.436C347.595 234.814 347.841 234.217 348.279 233.777C348.716 233.337 349.31 233.09 349.93 233.09C350.549 233.09 351.143 233.337 351.581 233.777C352.019 234.217 352.265 234.814 352.265 235.436Z" fill="#E9C6AF"/>
<path d="M396.223 235.436C396.223 235.744 396.163 236.049 396.045 236.334C395.928 236.619 395.756 236.877 395.539 237.095C395.322 237.313 395.065 237.486 394.782 237.604C394.498 237.722 394.195 237.782 393.888 237.782C393.581 237.782 393.278 237.722 392.995 237.604C392.711 237.486 392.454 237.313 392.237 237.095C392.02 236.877 391.848 236.619 391.731 236.334C391.613 236.049 391.553 235.744 391.553 235.436C391.553 234.814 391.799 234.217 392.237 233.777C392.675 233.337 393.269 233.09 393.888 233.09C394.507 233.09 395.101 233.337 395.539 233.777C395.977 234.217 396.223 234.814 396.223 235.436Z" fill="#E9C6AF"/>
<path d="M394.287 235.436C394.287 238.072 393.714 240.682 392.599 243.118C391.484 245.553 389.851 247.766 387.791 249.63C385.732 251.494 383.287 252.973 380.596 253.982C377.905 254.99 375.021 255.51 372.108 255.51C369.196 255.51 366.312 254.99 363.621 253.982C360.93 252.973 358.485 251.494 356.425 249.63C354.366 247.766 352.732 245.553 351.617 243.118C350.503 240.682 349.929 238.072 349.929 235.436C349.929 230.112 352.266 225.006 356.425 221.241C360.585 217.477 366.226 215.362 372.108 215.362C377.99 215.362 383.632 217.477 387.791 221.241C391.951 225.006 394.287 230.112 394.287 235.436Z" fill="#E9C6AF"/>
<path d="M378.623 246.734C378.623 247.114 378.454 247.49 378.127 247.84C377.799 248.191 377.319 248.51 376.714 248.778C376.109 249.047 375.391 249.259 374.601 249.405C373.81 249.55 372.963 249.625 372.107 249.625C371.252 249.625 370.405 249.55 369.614 249.405C368.824 249.259 368.105 249.047 367.5 248.778C366.895 248.51 366.416 248.191 366.088 247.84C365.761 247.49 365.592 247.114 365.592 246.734C365.592 246.355 365.761 245.979 366.088 245.628C366.416 245.277 366.895 244.959 367.5 244.69C368.105 244.422 368.824 244.209 369.614 244.064C370.405 243.919 371.252 243.844 372.107 243.844C372.963 243.844 373.81 243.919 374.601 244.064C375.391 244.209 376.109 244.422 376.714 244.69C377.319 244.959 377.799 245.277 378.127 245.628C378.454 245.979 378.623 246.355 378.623 246.734Z" fill="#E9C6AF"/>
<path d="M366.253 243.682C366.413 245.13 367.098 246.468 368.178 247.44C369.257 248.412 370.656 248.951 372.106 248.953C373.556 248.952 374.955 248.414 376.036 247.441C377.116 246.469 377.802 245.131 377.962 243.682H366.253Z" fill="#333333"/>
<path d="M377.077 206.17C348.961 213.19 350.147 229.642 350.02 232.769H350.15C351.625 222.811 361.844 221.565 372.945 221.554C384.045 221.565 392.589 222.81 394.065 232.767H394.185C391.034 213.9 385.985 212.924 377.077 206.17Z" fill="#333333"/>
<path d="M363.723 270.644C363.459 271.04 363.179 271.426 362.753 271.433C362.327 271.44 362.19 271.18 361.707 271.18C361.22 271.18 361.071 271.427 360.667 271.442C360.251 271.46 359.936 271.021 359.669 270.634C359.125 269.845 358.709 268.392 359.268 267.414C359.545 266.928 360.041 266.622 360.578 266.612C360.985 266.605 361.373 266.89 361.624 266.89C361.872 266.89 362.343 266.548 362.835 266.599C363.042 266.606 363.621 266.682 363.993 267.232C363.964 267.25 363.303 267.641 363.309 268.449C363.319 269.414 364.152 269.736 364.161 269.739C364.152 269.761 364.028 270.199 363.723 270.644ZM361.907 265.532C362.139 265.267 362.524 265.066 362.842 265.053C362.883 265.427 362.734 265.804 362.511 266.072C362.292 266.344 361.929 266.555 361.573 266.526C361.526 266.158 361.704 265.775 361.907 265.532Z" fill="#4D4D4D"/>
<path d="M430.104 401.698H461.298V434.27H430.104V401.698Z" fill="#D35F5F"/>
<path d="M426.587 429.015L470.39 438.473L469.57 449.515L425.766 440.057L426.587 429.015Z" fill="#333333"/>
<path d="M415.55 444.951C415.49 444.229 415.569 443.501 415.781 442.811C415.994 442.12 416.335 441.479 416.787 440.925C417.239 440.371 417.791 439.915 418.414 439.582C419.036 439.249 419.716 439.046 420.414 438.984L421.318 449.98C419.908 450.105 418.509 449.644 417.427 448.701C416.345 447.758 415.67 446.409 415.55 444.951Z" fill="#CCCCCC"/>
<rect width="20.7151" height="34.6116" fill="black" fill-opacity="0" transform="translate(448.977 399.427)"/>
<path d="M464.687 399.427C462.747 399.427 461.185 401.234 461.185 403.479V417.773C461.185 420.018 462.747 421.825 464.687 421.825C466.627 421.825 468.189 420.018 468.189 417.773V403.479C468.189 401.234 466.627 399.427 464.687 399.427Z" fill="#E9C6AF"/>
<path d="M467.215 415.713C465.844 414.335 463.468 414.503 461.888 416.09L451.828 426.198C450.248 427.785 450.081 430.172 451.453 431.551C452.825 432.929 455.201 432.761 456.78 431.174L466.84 421.066C468.42 419.479 468.587 417.092 467.215 415.713Z" fill="#E9C6AF"/>
<path d="M450.365 436.048C449.937 437.337 449.077 438.468 447.835 439.375C446.592 440.282 444.992 440.949 443.125 441.336C441.258 441.723 439.161 441.823 436.953 441.631C434.746 441.439 432.471 440.958 430.259 440.216C428.047 439.474 425.941 438.485 424.062 437.306C422.182 436.127 420.565 434.781 419.304 433.345C418.043 431.908 417.162 430.41 416.712 428.935C416.261 427.459 416.25 426.036 416.678 424.747C417.107 423.457 417.966 422.327 419.209 421.419C420.451 420.512 422.052 419.846 423.919 419.459C425.786 419.072 427.883 418.971 430.09 419.163C432.298 419.356 434.573 419.836 436.785 420.578C438.997 421.32 441.102 422.309 442.982 423.488C444.862 424.667 446.478 426.013 447.739 427.45C449 428.886 449.881 430.385 450.332 431.86C450.783 433.335 450.794 434.758 450.365 436.048Z" fill="#333333"/>
<path d="M421.316 449.958L464.878 439.433L463.791 428.415L420.229 438.94L421.316 449.958Z" fill="#333333"/>
<path d="M427.543 361.349H463.775V384.529H427.543V361.349Z" fill="#D38D5F"/>
<path d="M441.825 378.499H449.494V384.529H441.825V378.499Z" fill="#E9C6AF"/>
<rect width="20.7151" height="34.6116" fill="black" fill-opacity="0" transform="translate(421.659 399.427)"/>
<path d="M426.663 399.427C428.603 399.427 430.165 401.234 430.165 403.479V417.773C430.165 420.018 428.603 421.825 426.663 421.825C424.723 421.825 423.161 420.018 423.161 417.773V403.479C423.161 401.234 424.723 399.427 426.663 399.427Z" fill="#E9C6AF"/>
<path d="M424.135 415.713C425.507 414.335 427.883 414.503 429.462 416.09L439.523 426.198C441.102 427.785 441.269 430.172 439.898 431.551C438.526 432.929 436.15 432.761 434.57 431.174L424.51 421.066C422.93 419.479 422.763 417.092 424.135 415.713Z" fill="#E9C6AF"/>
<path d="M445.66 382.958C439.632 382.958 433.852 384.805 429.59 388.093C425.328 391.381 422.933 395.84 422.933 400.49C422.939 401.351 423.028 402.212 423.198 403.063H468.115C468.287 402.212 468.378 401.351 468.386 400.49C468.386 395.84 465.992 391.381 461.73 388.093C457.468 384.805 451.687 382.958 445.66 382.958H445.66Z" fill="#D35F5F"/>
<path d="M463.775 361.974C463.775 366.801 461.866 371.431 458.469 374.845C455.072 378.258 450.464 380.176 445.659 380.176C440.854 380.176 436.247 378.258 432.849 374.845C429.452 371.431 427.543 366.801 427.543 361.974C427.543 357.146 429.452 352.517 432.849 349.103C436.247 345.69 440.854 343.772 445.659 343.772C448.038 343.772 450.394 344.243 452.592 345.158C454.79 346.072 456.787 347.413 458.469 349.103C460.151 350.793 461.486 352.8 462.396 355.008C463.306 357.217 463.775 359.584 463.775 361.974Z" fill="#D38D5F"/>
<path d="M430.023 364.264C430.023 364.509 429.975 364.752 429.882 364.978C429.788 365.204 429.652 365.41 429.479 365.583C429.307 365.757 429.102 365.894 428.877 365.988C428.651 366.082 428.41 366.13 428.166 366.13C427.922 366.13 427.681 366.082 427.455 365.988C427.23 365.894 427.025 365.757 426.853 365.583C426.68 365.41 426.544 365.204 426.45 364.978C426.357 364.752 426.309 364.509 426.309 364.264C426.309 363.769 426.505 363.295 426.853 362.945C427.201 362.595 427.673 362.398 428.166 362.398C428.658 362.398 429.131 362.595 429.479 362.945C429.827 363.295 430.023 363.769 430.023 364.264Z" fill="#E9C6AF"/>
<path d="M463.777 364.265C463.777 368.485 461.869 372.532 458.471 375.515C455.074 378.499 450.466 380.175 445.661 380.175C443.282 380.175 440.927 379.764 438.729 378.964C436.531 378.165 434.534 376.993 432.851 375.515C431.169 374.038 429.835 372.284 428.924 370.354C428.014 368.423 427.545 366.354 427.545 364.265C427.545 362.176 428.014 360.107 428.924 358.176C429.835 356.246 431.169 354.492 432.851 353.015C434.534 351.537 436.531 350.365 438.729 349.566C440.927 348.766 443.282 348.355 445.661 348.355C450.466 348.355 455.074 350.031 458.471 353.015C461.869 355.998 463.777 360.045 463.777 364.265Z" fill="#E9C6AF"/>
<path d="M464.983 364.264C464.983 364.759 464.788 365.234 464.439 365.583C464.091 365.933 463.619 366.13 463.126 366.13C462.882 366.13 462.641 366.082 462.416 365.988C462.19 365.894 461.986 365.757 461.813 365.583C461.641 365.41 461.504 365.204 461.411 364.978C461.317 364.752 461.269 364.509 461.269 364.264C461.269 363.769 461.465 363.295 461.813 362.945C462.161 362.595 462.634 362.398 463.126 362.398C463.619 362.398 464.091 362.595 464.439 362.945C464.788 363.295 464.983 363.769 464.983 364.264Z" fill="#E9C6AF"/>
<path d="M445.66 343.772C443.31 343.776 440.984 344.239 438.81 345.136L437.472 347.911L463.731 360.703C463.411 356.107 461.368 351.804 458.014 348.662C454.66 345.52 450.245 343.772 445.66 343.772Z" fill="#D38D5F"/>
<path d="M445.66 343.772C440.856 343.773 436.248 345.69 432.851 349.104C429.454 352.517 427.546 357.146 427.545 361.973C427.545 361.979 427.545 361.985 427.545 361.991L448.374 343.998C447.476 343.854 446.569 343.778 445.66 343.771V343.772Z" fill="#D38D5F"/>
<path d="M441.374 369.897C441.491 370.957 441.993 371.937 442.784 372.65C443.575 373.362 444.599 373.756 445.661 373.758C446.724 373.757 447.749 373.363 448.54 372.651C449.332 371.938 449.834 370.958 449.952 369.897H441.374Z" fill="#333333"/>
<path d="M438.012 362.812C439.199 361.136 440.715 361.066 442.183 362.812" stroke="#333333" stroke-linecap="round"/>
<path d="M449.14 362.812C450.327 361.136 451.843 361.066 453.311 362.812" stroke="#333333" stroke-linecap="round"/>
<path d="M456.274 401.509C456.274 400.877 456.067 400.292 455.655 399.76V403.261C456.067 402.745 456.274 402.16 456.274 401.509ZM455.23 403.688H451.745C451.956 403.859 452.231 403.999 452.572 404.127C452.91 404.248 453.216 404.31 453.486 404.31C453.759 404.31 454.062 404.248 454.4 404.127C454.74 403.999 455.016 403.859 455.23 403.688ZM453.176 403.065L451.937 400.575V403.065H453.176ZM455.035 400.575L453.796 403.065H455.035V400.575ZM453.486 402.296L454.648 399.953H452.324L453.486 402.296ZM455.23 399.33C454.716 398.916 454.133 398.708 453.486 398.708C452.838 398.708 452.256 398.916 451.745 399.33H455.23ZM451.317 403.261V399.76C450.905 400.292 450.698 400.877 450.698 401.509C450.698 402.16 450.905 402.745 451.317 403.261ZM456.894 401.509C456.894 402.452 456.565 403.261 455.896 403.931C455.23 404.603 454.425 404.933 453.486 404.933C452.547 404.933 451.745 404.603 451.076 403.931C450.407 403.261 450.078 402.452 450.078 401.509C450.078 400.566 450.407 399.76 451.076 399.087C451.745 398.415 452.547 398.085 453.486 398.085C454.425 398.085 455.23 398.415 455.896 399.087C456.565 399.76 456.894 400.566 456.894 401.509Z" fill="#E9AFAF"/>
<path d="M428.292 409.15H462.612C463.7 409.15 464.575 410.03 464.575 411.122V431.493C464.575 432.585 463.7 433.465 462.612 433.465H428.292C427.205 433.465 426.33 432.585 426.33 431.493V411.122C426.33 410.03 427.205 409.15 428.292 409.15Z" fill="#ECECEC"/>
<path d="M448.13 424.306C447.799 424.801 447.45 425.285 446.917 425.293C446.384 425.303 446.213 424.977 445.608 424.977C445 424.977 444.813 425.285 444.308 425.304C443.787 425.326 443.393 424.777 443.059 424.293C442.379 423.306 441.858 421.488 442.558 420.265C442.904 419.658 443.524 419.274 444.196 419.262C444.705 419.255 445.191 419.61 445.505 419.61C445.815 419.61 446.404 419.182 447.02 419.246C447.279 419.257 448.002 419.35 448.468 420.038C448.432 420.063 447.605 420.549 447.613 421.56C447.623 422.767 448.667 423.171 448.679 423.175C448.668 423.203 448.512 423.75 448.13 424.305V424.306ZM445.859 417.912C446.149 417.58 446.63 417.328 447.028 417.312C447.08 417.78 446.893 418.251 446.614 418.587C446.34 418.927 445.887 419.19 445.441 419.154C445.381 418.695 445.604 418.215 445.859 417.912Z" fill="#4D4D4D"/>
<path d="M169.134 106.806H191.21C191.476 106.806 191.689 107.021 191.689 107.288V110.809C191.689 111.076 191.476 111.291 191.21 111.291H169.134C168.868 111.291 168.655 111.076 168.655 110.809V107.288C168.655 107.021 168.868 106.806 169.134 106.806Z" fill="#502D16"/>
<path d="M176.147 57.8469H184.063V64.0712H176.147V57.8469Z" fill="#E9C6AF"/>
<path d="M198.46 87.9143C198.46 94.5876 196.527 100.988 193.084 105.706C189.642 110.425 184.973 113.076 180.105 113.076C175.237 113.076 170.568 110.425 167.126 105.706C163.684 100.988 161.75 94.5876 161.75 87.9143C161.75 81.241 163.684 74.8411 167.126 70.1223C170.568 65.4036 175.237 62.7527 180.105 62.7527C184.973 62.7527 189.642 65.4036 193.084 70.1223C196.527 74.8411 198.46 81.241 198.46 87.9143Z" fill="#FFCC00"/>
<path d="M197.608 79.2825H200.852C202.207 79.2825 203.299 80.3789 203.299 81.7408V95.9417C203.299 97.3036 202.207 98.4 200.852 98.4H197.608C196.252 98.4 195.161 97.3036 195.161 95.9417V81.7408C195.161 80.3789 196.252 79.2825 197.608 79.2825Z" fill="#E9C6AF"/>
<path d="M162.552 78.9752H159.308C157.952 78.9752 156.861 80.0716 156.861 81.4335V95.6344C156.861 96.9963 157.952 98.0926 159.308 98.0926H162.552C163.908 98.0926 164.999 96.9963 164.999 95.6344V81.4335C164.999 80.0716 163.908 78.9752 162.552 78.9752Z" fill="#E9C6AF"/>
<path d="M180.106 62.5437C173.884 62.544 167.917 64.4508 163.518 67.8445C159.118 71.2383 156.647 75.841 156.647 80.6404C156.653 81.5299 156.744 82.4178 156.92 83.2969H203.284C203.462 82.4179 203.556 81.53 203.564 80.6404C203.564 75.841 201.093 71.2383 196.694 67.8445C192.294 64.4508 186.327 62.544 180.106 62.5437H180.106Z" fill="#FFCC00"/>
<path d="M186.457 104.364L184.835 101.541C184.157 100.361 184.557 98.8636 185.73 98.1827L197.971 91.0822C199.145 90.4013 200.635 90.8026 201.313 91.982L202.935 94.8052C203.613 95.9846 203.213 97.4823 202.04 98.1633L189.799 105.264C188.626 105.945 187.135 105.543 186.457 104.364Z" fill="#E9C6AF"/>
<path d="M198.804 40.1149C198.804 42.4938 198.321 44.8494 197.381 47.0472C196.441 49.245 195.064 51.242 193.327 52.9241C191.591 54.6063 189.53 55.9406 187.261 56.8509C184.992 57.7613 182.56 58.2299 180.105 58.2299C177.649 58.2299 175.218 57.7613 172.949 56.8509C170.68 55.9406 168.619 54.6063 166.882 52.9241C165.146 51.242 163.769 49.245 162.829 47.0472C161.889 44.8494 161.405 42.4938 161.405 40.1149C161.405 35.3106 163.375 30.7029 166.882 27.3057C170.389 23.9085 175.145 22 180.105 22C185.064 22 189.821 23.9085 193.327 27.3057C196.834 30.7029 198.804 35.3106 198.804 40.1149Z" fill="#502D16"/>
<path d="M198.804 42.9015C198.804 47.324 196.834 51.5653 193.327 54.6925C189.821 57.8197 185.064 59.5765 180.105 59.5765C175.145 59.5765 170.389 57.8197 166.882 54.6925C163.375 51.5653 161.405 47.324 161.405 42.9015C161.405 38.4789 163.375 34.2376 166.882 31.1104C170.389 27.9832 175.145 26.2264 180.105 26.2264C185.064 26.2264 189.821 27.9832 193.327 31.1104C196.834 34.2376 198.804 38.4789 198.804 42.9015Z" fill="#E9C6AF"/>
<path d="M193.373 29.141C193.373 30.5088 192.427 31.8207 190.742 32.7879C189.057 33.7551 186.773 34.2984 184.39 34.2984C183.211 34.2984 182.042 34.165 180.953 33.9059C179.863 33.6467 178.872 33.2668 178.038 32.7879C177.204 32.309 176.543 31.7404 176.091 31.1147C175.64 30.4889 175.407 29.8183 175.407 29.141C175.407 28.4637 175.64 27.7931 176.091 27.1673C176.543 26.5416 177.204 25.9731 178.038 25.4941C178.872 25.0152 179.863 24.6353 180.953 24.3762C182.042 24.117 183.211 23.9836 184.39 23.9836C186.773 23.9836 189.057 24.5269 190.742 25.4941C192.427 26.4613 193.373 27.7732 193.373 29.141Z" fill="#502D16"/>
<path d="M179.874 29.1418C179.874 30.108 179.205 31.0346 178.015 31.7178C176.825 32.401 175.211 32.7848 173.529 32.7848C171.846 32.7848 170.232 32.401 169.042 31.7178C167.852 31.0346 167.184 30.108 167.184 29.1418C167.184 28.1757 167.852 27.2491 169.042 26.5659C170.232 25.8827 171.846 25.4989 173.529 25.4989C175.211 25.4989 176.825 25.8827 178.015 26.5659C179.205 27.2491 179.874 28.1757 179.874 29.1418Z" fill="#502D16"/>
<rect width="12.7575" height="3.16014" fill="black" fill-opacity="0" transform="translate(174.53 39.6364) scale(0.874209)"/>
<path d="M185.682 41.0176C185.682 41.1989 185.647 41.3786 185.578 41.5461C185.509 41.7137 185.407 41.8659 185.28 41.9942C185.152 42.1225 185.001 42.2242 184.834 42.2936C184.667 42.363 184.488 42.3987 184.308 42.3987C184.127 42.3987 183.948 42.363 183.782 42.2936C183.615 42.2242 183.463 42.1225 183.336 41.9942C183.208 41.8659 183.107 41.7137 183.038 41.5461C182.969 41.3786 182.933 41.1989 182.933 41.0176C182.933 40.8362 182.969 40.6566 183.038 40.489C183.107 40.3214 183.208 40.1692 183.336 40.0409C183.463 39.9127 183.615 39.8109 183.782 39.7415C183.948 39.6721 184.127 39.6364 184.308 39.6364C184.488 39.6364 184.667 39.6721 184.834 39.7415C185.001 39.8109 185.152 39.9127 185.28 40.0409C185.407 40.1692 185.509 40.3214 185.578 40.489C185.647 40.6566 185.682 40.8362 185.682 41.0176Z" fill="#333333"/>
<path d="M177.279 41.0178C177.279 41.1992 177.243 41.3788 177.174 41.5464C177.105 41.714 177.004 41.8662 176.876 41.9945C176.749 42.1227 176.597 42.2245 176.43 42.2939C176.264 42.3633 176.085 42.399 175.904 42.399C175.724 42.399 175.545 42.3633 175.378 42.2939C175.212 42.2245 175.06 42.1227 174.932 41.9945C174.805 41.8662 174.703 41.714 174.634 41.5464C174.565 41.3788 174.53 41.1992 174.53 41.0178C174.53 40.8365 174.565 40.6569 174.634 40.4893C174.703 40.3217 174.805 40.1695 174.932 40.0412C175.06 39.913 175.212 39.8112 175.378 39.7418C175.545 39.6724 175.724 39.6367 175.904 39.6367C176.085 39.6367 176.264 39.6724 176.43 39.7418C176.597 39.8112 176.749 39.913 176.876 40.0412C177.004 40.1695 177.105 40.3217 177.174 40.4893C177.243 40.6569 177.279 40.8365 177.279 41.0178Z" fill="#333333"/>
<path d="M163.688 42.9013C163.688 43.4143 163.485 43.9062 163.124 44.2689C162.763 44.6316 162.274 44.8354 161.763 44.8354C161.252 44.8354 160.763 44.6316 160.402 44.2689C160.041 43.9062 159.838 43.4143 159.838 42.9013C159.838 42.3884 160.041 41.8965 160.402 41.5338C160.763 41.1711 161.252 40.9673 161.763 40.9673C162.274 40.9673 162.763 41.1711 163.124 41.5338C163.485 41.8965 163.688 42.3884 163.688 42.9013Z" fill="#E9C6AF"/>
<path d="M199.926 42.9013C199.926 43.4143 199.723 43.9062 199.362 44.2689C199.001 44.6316 198.511 44.8354 198.001 44.8354C197.49 44.8354 197.001 44.6316 196.64 44.2689C196.279 43.9062 196.076 43.4143 196.076 42.9013C196.076 42.3884 196.279 41.8965 196.64 41.5338C197.001 41.1711 197.49 40.9673 198.001 40.9673C198.511 40.9673 199.001 41.1711 199.362 41.5338C199.723 41.8965 199.926 42.3884 199.926 42.9013Z" fill="#E9C6AF"/>
<path d="M183.148 49.0358C181.417 51.4812 179.206 51.5827 177.064 49.0358" stroke="#333333" stroke-linecap="round"/>
<path d="M191.728 110.954C191.728 111.485 191.43 112.012 190.851 112.503C190.272 112.994 189.423 113.44 188.354 113.815C187.284 114.191 186.014 114.489 184.616 114.693C183.219 114.896 181.721 115.001 180.208 115.001C178.695 115.001 177.197 114.896 175.799 114.693C174.401 114.489 173.131 114.191 172.062 113.815C170.992 113.44 170.143 112.994 169.565 112.503C168.986 112.012 168.688 111.485 168.688 110.954C168.688 109.881 169.901 108.851 172.062 108.093C174.222 107.334 177.152 106.907 180.208 106.907C183.263 106.907 186.193 107.334 188.354 108.093C190.514 108.851 191.728 109.881 191.728 110.954Z" fill="#502D16"/>
<path d="M182.108 102.002C182.108 103.238 182.597 104.422 183.466 105.296C184.336 106.17 185.515 106.661 186.745 106.661C187.974 106.661 189.154 106.17 190.023 105.296C190.893 104.422 191.381 103.238 191.381 102.002C191.381 101.39 191.261 100.785 191.028 100.219C190.795 99.6541 190.454 99.1406 190.023 98.708C189.593 98.2754 189.082 97.9323 188.519 97.6982C187.956 97.464 187.354 97.3435 186.745 97.3435C185.515 97.3435 184.336 97.8344 183.466 98.708C182.597 99.5816 182.108 100.767 182.108 102.002Z" fill="#E9C6AF"/>
<path d="M169.336 108.236H191.259C191.567 108.236 191.815 108.485 191.815 108.794V112.877C191.815 113.187 191.567 113.436 191.259 113.436H169.336C169.028 113.436 168.78 113.187 168.78 112.877V108.794C168.78 108.485 169.028 108.236 169.336 108.236Z" fill="#502D16"/>
<rect width="11.7687" height="21.7553" fill="black" fill-opacity="0" transform="matrix(1.32079 -0.0411534 0.0407659 1.32081 172.49 79.4829)"/>
<path d="M175.035 79.4036L185.49 79.0779C186.899 79.0339 188.069 80.1389 188.113 81.5552L188.842 105.177C188.886 106.593 187.786 107.769 186.377 107.812L175.922 108.138C174.512 108.182 173.342 107.077 173.298 105.661L172.569 82.0396C172.525 80.6232 173.625 79.4475 175.035 79.4036Z" fill="#CCCCCC"/>
<path d="M181.882 102.039L181.005 102.066L181.013 102.329L181.635 102.309C181.615 102.676 181.317 102.842 181.03 102.851C180.664 102.862 180.334 102.582 180.322 102.174C180.31 101.781 180.606 101.467 180.988 101.455C181.284 101.446 181.462 101.629 181.462 101.629L181.638 101.434C181.638 101.434 181.397 101.18 180.971 101.193C180.428 101.21 180.023 101.684 180.038 102.183C180.053 102.668 180.462 103.131 181.044 103.113C181.555 103.097 181.917 102.733 181.901 102.213C181.898 102.102 181.882 102.039 181.882 102.039L181.882 102.039Z" fill="#999999"/>
<path d="M174.747 81.7214C174.751 81.8688 174.697 82.012 174.597 82.1194C174.496 82.2269 174.358 82.2898 174.211 82.2944C174.064 82.299 173.922 82.2448 173.815 82.1438C173.708 82.0428 173.645 81.9032 173.64 81.7558C173.636 81.6084 173.69 81.4652 173.79 81.3578C173.891 81.2503 174.03 81.1874 174.176 81.1828C174.323 81.1782 174.466 81.2324 174.573 81.3334C174.68 81.4344 174.742 81.574 174.747 81.7214Z" fill="#999999"/>
<path d="M177.899 81.6225C177.9 81.6485 177.89 81.6738 177.873 81.6928C177.855 81.7118 177.83 81.7229 177.804 81.7237C177.778 81.7245 177.753 81.715 177.734 81.6971C177.715 81.6793 177.704 81.6546 177.703 81.6286C177.702 81.6025 177.712 81.5772 177.73 81.5582C177.747 81.5393 177.772 81.5281 177.798 81.5273C177.824 81.5265 177.849 81.5361 177.868 81.5539C177.887 81.5718 177.898 81.5964 177.899 81.6225Z" fill="#999999"/>
<path d="M176.83 81.656C176.835 81.8034 176.781 81.9466 176.68 82.0541C176.58 82.1615 176.441 82.2245 176.294 82.229C176.147 82.2336 176.005 82.1794 175.898 82.0784C175.791 81.9774 175.728 81.8379 175.724 81.6905C175.719 81.5431 175.773 81.3999 175.874 81.2924C175.974 81.185 176.113 81.122 176.26 81.1174C176.406 81.1129 176.549 81.167 176.656 81.268C176.763 81.369 176.825 81.5086 176.83 81.656Z" fill="#666666"/>
<path d="M178.28 81.6103C178.281 81.6363 178.271 81.6616 178.254 81.6806C178.236 81.6996 178.211 81.7107 178.185 81.7115C178.159 81.7123 178.134 81.7028 178.115 81.6849C178.096 81.6671 178.085 81.6424 178.084 81.6164C178.083 81.5903 178.093 81.565 178.111 81.546C178.128 81.527 178.153 81.5159 178.179 81.5151C178.205 81.5143 178.23 81.5239 178.249 81.5417C178.268 81.5596 178.279 81.5842 178.28 81.6103Z" fill="#999999"/>
<path d="M178.585 81.6019C178.585 81.6097 178.584 81.6175 178.581 81.6247C178.578 81.632 178.574 81.6387 178.569 81.6444C178.563 81.6501 178.557 81.6547 178.55 81.6579C178.543 81.6611 178.535 81.6629 178.527 81.6631C178.519 81.6633 178.512 81.662 178.504 81.6593C178.497 81.6565 178.49 81.6524 178.485 81.647C178.479 81.6417 178.475 81.6353 178.471 81.6282C178.468 81.621 178.466 81.6134 178.466 81.6056C178.466 81.5978 178.467 81.59 178.47 81.5827C178.473 81.5754 178.477 81.5687 178.482 81.563C178.488 81.5574 178.494 81.5528 178.501 81.5496C178.508 81.5464 178.516 81.5446 178.524 81.5443C178.531 81.5441 178.539 81.5454 178.546 81.5482C178.554 81.5509 178.56 81.5551 178.566 81.5604C178.572 81.5658 178.576 81.5722 178.579 81.5793C178.583 81.5864 178.584 81.5941 178.585 81.6019Z" fill="#999999"/>
<path d="M173.701 104.058L175.324 101.235C176.001 100.055 175.602 98.5577 174.428 97.8768L162.188 90.7763C161.014 90.0954 159.523 90.4967 158.846 91.6761L157.223 94.4993C156.546 95.6787 156.945 97.1764 158.119 97.8574L170.359 104.958C171.533 105.639 173.024 105.237 173.701 104.058Z" fill="#E9C6AF"/>
<path d="M178.008 100.687C178.008 101.348 177.879 102.003 177.627 102.614C177.375 103.225 177.006 103.781 176.54 104.248C176.074 104.716 175.522 105.087 174.913 105.34C174.305 105.594 173.653 105.724 172.995 105.724C171.665 105.724 170.39 105.193 169.45 104.248C168.51 103.304 167.981 102.023 167.981 100.687C167.981 99.3507 168.51 98.0694 169.45 97.1248C170.39 96.1801 171.665 95.6494 172.995 95.6494C173.653 95.6494 174.305 95.7797 174.913 96.0328C175.522 96.286 176.074 96.657 176.54 97.1248C177.006 97.5925 177.375 98.1478 177.627 98.7589C177.879 99.3701 178.008 100.025 178.008 100.687Z" fill="#E9C6AF"/>
<rect width="11.0384" height="21.6082" fill="black" fill-opacity="0" transform="translate(169.522 105.692) scale(1.91743)"/>
<path d="M173.853 105.693C176.252 105.693 178.183 107.633 178.183 110.044V142.773C178.183 145.184 176.252 147.124 173.853 147.124C171.454 147.124 169.522 145.184 169.522 142.773V110.044C169.522 107.633 171.454 105.693 173.853 105.693Z" fill="#502D16"/>
<path d="M186.357 105.692C188.756 105.692 190.688 107.632 190.688 110.043V142.772C190.688 145.183 188.756 147.123 186.357 147.123C183.958 147.123 182.027 145.183 182.027 142.772V110.043C182.027 107.632 183.958 105.692 186.357 105.692Z" fill="#502D16"/>
<path d="M173.854 142.452C173.131 142.452 172.415 142.595 171.746 142.873C171.078 143.151 170.471 143.559 169.96 144.072C169.448 144.586 169.043 145.196 168.766 145.868C168.489 146.539 168.347 147.259 168.347 147.985H179.36C179.36 146.518 178.78 145.111 177.747 144.073C176.715 143.035 175.314 142.452 173.854 142.452Z" fill="black"/>
<path d="M186.359 142.452C185.636 142.452 184.92 142.595 184.251 142.873C183.583 143.151 182.976 143.559 182.465 144.072C181.953 144.586 181.548 145.196 181.271 145.868C180.994 146.539 180.852 147.259 180.852 147.985H191.865C191.865 146.518 191.285 145.111 190.252 144.073C189.22 143.035 187.819 142.452 186.359 142.452Z" fill="black"/>
<rect width="12.7565" height="3.16022" fill="black" fill-opacity="0" transform="translate(364.019 232.779) scale(1.26817)"/>
<path d="M380.196 234.782C380.196 235.046 380.144 235.306 380.044 235.549C379.944 235.792 379.797 236.013 379.612 236.199C379.427 236.385 379.207 236.533 378.965 236.633C378.723 236.734 378.464 236.786 378.202 236.786C377.94 236.786 377.681 236.734 377.439 236.633C377.197 236.533 376.977 236.385 376.792 236.199C376.607 236.013 376.46 235.792 376.359 235.549C376.259 235.306 376.208 235.046 376.208 234.782C376.208 234.519 376.259 234.259 376.359 234.016C376.46 233.773 376.607 233.552 376.792 233.366C376.977 233.18 377.197 233.032 377.439 232.931C377.681 232.831 377.94 232.779 378.202 232.779C378.464 232.779 378.723 232.831 378.965 232.931C379.207 233.032 379.427 233.18 379.612 233.366C379.797 233.552 379.944 233.773 380.044 234.016C380.144 234.259 380.196 234.519 380.196 234.782Z" fill="#333333"/>
<path d="M368.007 234.783C368.007 235.046 367.955 235.307 367.855 235.55C367.755 235.793 367.608 236.014 367.423 236.2C367.238 236.386 367.018 236.533 366.776 236.634C366.534 236.735 366.275 236.787 366.013 236.787C365.751 236.787 365.492 236.735 365.25 236.634C365.008 236.533 364.788 236.386 364.603 236.2C364.417 236.014 364.271 235.793 364.17 235.55C364.07 235.307 364.019 235.046 364.019 234.783C364.019 234.52 364.07 234.259 364.17 234.016C364.271 233.773 364.417 233.552 364.603 233.366C364.788 233.18 365.008 233.033 365.25 232.932C365.492 232.831 365.751 232.779 366.013 232.779C366.275 232.779 366.534 232.831 366.776 232.932C367.018 233.033 367.238 233.18 367.423 233.366C367.608 233.552 367.755 233.773 367.855 234.016C367.955 234.259 368.007 234.52 368.007 234.783Z" fill="#333333"/>
</svg>
