<svg width="293" height="339" viewBox="0 0 293 339" fill="none" xmlns="http://www.w3.org/2000/svg">
<path d="M285.704 41.1876H141.708V297.078H285.704V41.1876Z" fill="#F7F7F7"/>
<path d="M259.434 166.684C259.434 157.188 256.301 148.392 250.081 140.392V193.023C256.301 185.257 259.434 176.462 259.434 166.684ZM243.674 199.433H191.062C194.242 202.006 198.404 204.111 203.549 206.029C208.646 207.853 213.276 208.789 217.345 208.789C221.46 208.789 226.043 207.853 231.141 206.029C236.285 204.111 240.447 202.006 243.674 199.433ZM212.668 190.076L193.962 152.65V190.076H212.668ZM240.728 152.65L222.021 190.076H240.728V152.65ZM217.345 178.521L234.882 143.293H199.807L217.345 178.521ZM243.674 133.936C235.911 127.714 227.119 124.58 217.345 124.58C207.571 124.58 198.779 127.714 191.062 133.936H243.674ZM184.608 193.023V140.392C178.389 148.392 175.255 157.188 175.255 166.684C175.255 176.462 178.389 185.257 184.608 193.023ZM268.787 166.684C268.787 180.86 263.83 193.023 253.729 203.082C243.674 213.187 231.515 218.146 217.345 218.146C203.175 218.146 191.062 213.187 180.961 203.082C170.859 193.023 165.902 180.86 165.902 166.684C165.902 152.509 170.859 140.392 180.961 130.287C191.062 120.182 203.175 115.223 217.345 115.223C231.515 115.223 243.674 120.182 253.729 130.287C263.83 140.392 268.787 152.509 268.787 166.684Z" fill="#80E5FF"/>
<path d="M154.988 0C143.59 0 134.412 9.17735 134.412 20.576V317.691C134.412 329.09 143.59 338.265 154.988 338.265H272.424C283.823 338.265 293 329.09 293 317.691V20.576C293 9.17735 283.823 0 272.424 0H154.988ZM141.708 41.1876H285.704V297.079H141.708V41.1876Z" fill="#80E5FF"/>
<path d="M116.768 167.172H107.787V158.168H116.768V167.172ZM71.8577 167.172H62.8755V158.168H71.8577V167.172ZM121.529 141.599L133.296 129.803C135.003 128.092 135.003 125.21 133.296 123.409C131.5 121.698 128.625 121.698 126.919 123.409L113.625 136.736C106.439 133.224 98.3552 131.153 89.822 131.153C81.1992 131.153 73.1151 133.224 65.9295 136.826L52.5459 123.409C50.8393 121.698 47.965 121.698 46.2584 123.409C44.4619 125.21 44.4619 128.092 46.2584 129.803L58.0251 141.599C44.6416 151.504 35.9289 167.172 35.9289 185.182H143.715C143.715 167.172 134.733 151.414 121.529 141.599ZM166.171 194.187C162.597 194.187 159.171 195.61 156.644 198.143C154.117 200.676 152.697 204.112 152.697 207.694V270.728C152.697 274.31 154.117 277.746 156.644 280.279C159.171 282.812 162.597 284.235 166.171 284.235C169.744 284.235 173.172 282.812 175.698 280.279C178.225 277.746 179.644 274.31 179.644 270.728V207.694C179.644 204.112 178.225 200.676 175.698 198.143C173.172 195.61 169.744 194.187 166.171 194.187ZM13.4733 194.187C9.89997 194.187 6.47298 195.61 3.94624 198.143C1.4195 200.676 0 204.112 0 207.694V270.728C0 274.31 1.4195 277.746 3.94624 280.279C6.47298 282.812 9.89997 284.235 13.4733 284.235C17.0466 284.235 20.4736 282.812 23.0004 280.279C25.5271 277.746 26.9466 274.31 26.9466 270.728V207.694C26.9466 204.112 25.5271 200.676 23.0004 198.143C20.4736 195.61 17.0466 194.187 13.4733 194.187ZM35.9289 284.235C35.9289 286.623 36.8752 288.914 38.5597 290.602C40.2442 292.291 42.5288 293.24 44.9111 293.24H53.8933V324.756C53.8933 328.339 55.3127 331.774 57.8395 334.308C60.3662 336.841 63.7932 338.264 67.3666 338.264C70.9399 338.264 74.3669 336.841 76.8936 334.308C79.4204 331.774 80.8399 328.339 80.8399 324.756V293.24H98.8043V324.756C98.8043 328.339 100.224 331.774 102.751 334.308C105.277 336.841 108.704 338.264 112.278 338.264C115.851 338.264 119.278 336.841 121.805 334.308C124.331 331.774 125.751 328.339 125.751 324.756V293.24H134.733C137.115 293.24 139.4 292.291 141.084 290.602C142.769 288.914 143.715 286.623 143.715 284.235V194.187H35.9289V284.235Z" fill="#00CCFF"/>
<path d="M152.458 24.4545C155.151 24.4545 157.334 22.274 157.334 19.5843C157.334 16.8946 155.151 14.7142 152.458 14.7142C149.766 14.7142 147.583 16.8946 147.583 19.5843C147.583 22.274 149.766 24.4545 152.458 24.4545Z" fill="#F9F9F9"/>
<path d="M240.038 19.6761H187.374C186.567 19.6761 185.913 20.3302 185.913 21.1371C185.913 21.944 186.567 22.5982 187.374 22.5982H240.038C240.845 22.5982 241.499 21.944 241.499 21.1371C241.499 20.3302 240.845 19.6761 240.038 19.6761Z" fill="#F9F9F9"/>
<path d="M217.122 30.8773H210.29C208.945 30.8773 207.855 31.9675 207.855 33.3123C207.855 34.6572 208.945 35.7474 210.29 35.7474H217.122C218.467 35.7474 219.557 34.6572 219.557 33.3123C219.557 31.9675 218.467 30.8773 217.122 30.8773Z" fill="#F9F9F9"/>
</svg>
