<svg width="205" height="205" viewBox="0 0 205 205" fill="none" xmlns="http://www.w3.org/2000/svg">
<path fill-rule="evenodd" clip-rule="evenodd" d="M80.0077 2.485C80.0077 3.65691 79.1952 4.67068 78.0585 4.95611C41.9693 14.0191 13.6264 42.6911 4.96093 79.0341C4.68663 80.1846 3.66671 81.0122 2.48401 81.0122C0.891568 81.0122 -0.300525 79.5479 0.0668911 77.9985C9.13681 39.7487 38.9689 9.56396 76.9656 0.0739369C78.5226 -0.314947 80.0077 0.880134 80.0077 2.485ZM128.071 204.925C126.513 205.314 125.028 204.119 125.028 202.514C125.028 201.342 125.84 200.329 126.976 200.043C162.395 191.135 190.347 163.338 199.549 127.942C199.842 126.815 200.851 126.014 202.015 126.014C203.628 126.014 204.825 127.513 204.421 129.076C194.785 166.332 165.363 195.597 128.071 204.925Z" fill="#00CCFF"/>
<path fill-rule="evenodd" clip-rule="evenodd" d="M124.99 2.48525C124.99 3.65718 125.803 4.67095 126.939 4.95637C163.03 14.0193 191.374 42.6928 200.039 79.0375C200.313 80.188 201.333 81.0156 202.516 81.0156C204.108 81.0156 205.3 79.5514 204.933 78.002C195.864 39.7504 166.03 9.56413 128.032 0.0741768C126.475 -0.314688 124.99 0.880393 124.99 2.48525ZM2.98409 126.014C4.14804 126.014 5.15714 126.815 5.44999 127.942C14.6516 163.338 42.6033 191.135 78.0221 200.043C79.1583 200.329 79.9703 201.343 79.9703 202.514C79.9703 204.12 78.4847 205.315 76.9274 204.925C39.6349 195.597 10.2133 166.332 0.577692 129.076C0.173655 127.514 1.37054 126.014 2.98409 126.014Z" fill="#80E5FF"/>
<path d="M118.309 63.0263H112.859V57.4019H118.309V63.0263ZM91.0586 63.0263H85.6086V57.4019H91.0586V63.0263ZM121.197 47.0529L128.337 39.6849C129.372 38.6163 129.372 36.8165 128.337 35.6916C127.247 34.623 125.503 34.623 124.467 35.6916L116.401 44.0157C112.041 41.8222 107.136 40.5286 101.959 40.5286C96.7266 40.5286 91.8216 41.8222 87.4616 44.072L79.3411 35.6916C78.3056 34.623 76.5616 34.623 75.5261 35.6916C74.4361 36.8165 74.4361 38.6163 75.5261 39.6849L82.6656 47.0529C74.5451 53.2398 69.2586 63.0263 69.2586 74.2751H134.659C134.659 63.0263 129.209 53.1835 121.197 47.0529ZM148.284 79.8995C146.115 79.8995 144.036 80.7884 142.503 82.3705C140.97 83.9527 140.109 86.0986 140.109 88.3361V127.707C140.109 129.945 140.97 132.09 142.503 133.673C144.036 135.255 146.115 136.144 148.284 136.144C150.452 136.144 152.531 135.255 154.064 133.673C155.597 132.09 156.459 129.945 156.459 127.707V88.3361C156.459 86.0986 155.597 83.9527 154.064 82.3705C152.531 80.7884 150.452 79.8995 148.284 79.8995ZM55.6336 79.8995C53.4654 79.8995 51.3861 80.7884 49.853 82.3705C48.3199 83.9527 47.4586 86.0986 47.4586 88.3361V127.707C47.4586 129.945 48.3199 132.09 49.853 133.673C51.3861 135.255 53.4654 136.144 55.6336 136.144C57.8017 136.144 59.8811 135.255 61.4142 133.673C62.9473 132.09 63.8086 129.945 63.8086 127.707V88.3361C63.8086 86.0986 62.9473 83.9527 61.4142 82.3705C59.8811 80.7884 57.8017 79.8995 55.6336 79.8995ZM69.2586 136.144C69.2586 137.635 69.8328 139.066 70.8549 140.121C71.8769 141.175 73.2632 141.768 74.7086 141.768H80.1586V161.454C80.1586 163.691 81.0199 165.837 82.553 167.419C84.0861 169.001 86.1654 169.89 88.3336 169.89C90.5017 169.89 92.5811 169.001 94.1142 167.419C95.6473 165.837 96.5086 163.691 96.5086 161.454V141.768H107.409V161.454C107.409 163.691 108.27 165.837 109.803 167.419C111.336 169.001 113.415 169.89 115.584 169.89C117.752 169.89 119.831 169.001 121.364 167.419C122.897 165.837 123.759 163.691 123.759 161.454V141.768H129.209C130.654 141.768 132.04 141.175 133.062 140.121C134.084 139.066 134.659 137.635 134.659 136.144V79.8995H69.2586V136.144Z" fill="#00CCFF"/>
</svg>
