<svg width="824" height="244" viewBox="0 0 824 244" fill="none" xmlns="http://www.w3.org/2000/svg">
<g opacity="0.15">
<path d="M216.738 -95C216.092 -94.9992 215.466 -94.7721 214.97 -94.3581C214.473 -93.9441 214.137 -93.3692 214.02 -92.7332L56.109 -89.6719C55.9727 -90.2863 55.6314 -90.8361 55.1412 -91.2304C54.651 -91.6248 54.0412 -91.8404 53.4122 -91.8415C53.0486 -91.8416 52.6887 -91.77 52.3528 -91.6308C52.017 -91.4916 51.7118 -91.2876 51.4548 -91.0304C51.1977 -90.7732 50.9938 -90.4678 50.8547 -90.1317C50.7157 -89.7956 50.6441 -89.4354 50.6441 -89.0717C50.645 -88.64 50.7467 -88.2146 50.9411 -87.8292C51.1356 -87.4439 51.4173 -87.1094 51.7639 -86.8524L5.18868 12.3745C5.1413 12.3704 5.09382 12.3675 5.04629 12.3658C4.68278 12.3658 4.32281 12.4374 3.98696 12.5766C3.65111 12.7158 3.34594 12.9198 3.0889 13.177C2.83186 13.4342 2.62797 13.7396 2.48888 14.0756C2.34979 14.4117 2.27823 14.7719 2.27827 15.1357C2.27911 15.6651 2.43156 16.1832 2.71757 16.6285C3.00358 17.0739 3.41117 17.4279 3.89205 17.6486L0 237.788L0.377555 237.797L0.0733535 238.084L76.3545 363.479C75.9894 363.866 75.7856 364.378 75.785 364.91C75.7847 365.464 76.0044 365.995 76.3956 366.387C76.7869 366.779 77.3177 367 77.8712 367C78.1455 367 78.4171 366.946 78.6706 366.841C78.924 366.736 79.1543 366.582 79.3483 366.388C79.5422 366.194 79.696 365.964 79.8009 365.71C79.9059 365.456 79.9598 365.185 79.9597 364.91C79.9587 364.759 79.9413 364.608 79.9079 364.461L160.774 322.123C160.969 322.332 161.205 322.499 161.467 322.613C161.729 322.727 162.011 322.786 162.297 322.786C162.703 322.786 163.1 322.667 163.439 322.444C163.779 322.221 164.046 321.904 164.208 321.532L253.447 334.742L253.482 334.597L325.605 321.208C325.879 322.044 326.409 322.772 327.12 323.289C327.832 323.805 328.688 324.084 329.567 324.086C330.665 324.085 331.719 323.651 332.5 322.878C333.282 322.105 333.727 321.055 333.739 319.956L437.243 307.285C437.403 307.685 437.679 308.027 438.035 308.268C438.391 308.51 438.811 308.639 439.241 308.639C439.53 308.638 439.817 308.579 440.083 308.465C440.349 308.351 440.59 308.185 440.79 307.976L484.735 327.49L484.47 328.22L485.521 327.758L591.128 336.428L727.009 343.544L795.182 303.373C795.511 303.772 795.924 304.092 796.391 304.312C796.858 304.533 797.367 304.647 797.883 304.647C798.813 304.647 799.704 304.277 800.361 303.62C801.018 302.963 801.387 302.071 801.387 301.141C801.386 300.53 801.226 299.93 800.921 299.4C800.617 298.87 800.18 298.429 799.653 298.121L819.698 246.869L852.927 167.219C852.989 167.225 853.052 167.229 853.114 167.229C853.362 167.229 853.607 167.18 853.836 167.085C854.065 166.99 854.273 166.851 854.448 166.676C854.623 166.5 854.762 166.292 854.857 166.063C854.952 165.834 855 165.588 855 165.34C854.999 164.864 854.819 164.405 854.494 164.056C854.17 163.708 853.725 163.495 853.25 163.46L828.323 54.7319L828.437 53.7971L827.76 54.1425L747.483 16.336L611.579 -21.6129L499.762 8.22078L499.76 8.03295L499.207 8.04159L499.419 7.52777L324.044 -65.3239C324.045 -65.344 324.047 -65.3642 324.048 -65.3844C324.048 -65.5923 324.007 -65.7983 323.928 -65.9905C323.848 -66.1827 323.732 -66.3574 323.585 -66.5045C323.438 -66.6517 323.264 -66.7685 323.072 -66.8482C322.88 -66.9279 322.674 -66.9689 322.466 -66.969C322.211 -66.9689 321.96 -66.907 321.734 -66.7886C321.507 -66.6701 321.313 -66.4987 321.168 -66.2889L219.5 -92.1028C219.503 -92.1452 219.505 -92.1876 219.506 -92.2301C219.506 -92.5939 219.435 -92.9541 219.296 -93.2902C219.156 -93.6263 218.953 -93.9316 218.695 -94.1888C218.438 -94.446 218.133 -94.6501 217.797 -94.7892C217.462 -94.9284 217.102 -95 216.738 -95ZM214.041 -91.6257C214.122 -91.267 214.273 -90.9279 214.486 -90.6283L115.618 15.1616C115.182 14.8914 114.679 14.7479 114.166 14.7471C113.874 14.7476 113.585 14.7942 113.307 14.8853L55.2374 -86.9948C55.704 -87.4048 56.0194 -87.9599 56.1327 -88.5708L214.041 -91.6257ZM219.23 -91.0298L320.894 -65.216C320.913 -65.0329 320.964 -64.8547 321.045 -64.6892L178.217 85.958C178.056 85.852 177.887 85.7609 177.71 85.686L216.686 -89.4625C216.704 -89.4616 216.721 -89.4608 216.738 -89.4603C217.259 -89.4608 217.769 -89.6083 218.21 -89.886C218.651 -90.1636 219.004 -90.5601 219.23 -91.0298ZM215.293 -89.8726C215.395 -89.8097 215.5 -89.7534 215.61 -89.7042L176.637 85.4485C176.591 85.4446 176.545 85.4418 176.499 85.4399C175.93 85.4408 175.373 85.5968 174.886 85.8911L116.365 19.1922C116.732 18.7112 116.932 18.1227 116.934 17.5169C116.934 16.9419 116.754 16.3813 116.421 15.9129L215.293 -89.8726ZM54.2794 -86.4443L112.341 15.4379C112.045 15.6975 111.808 16.0172 111.645 16.3757C111.483 16.7342 111.399 17.1233 111.398 17.5169C111.399 17.8942 111.477 18.2673 111.627 18.6133C111.778 18.9593 111.997 19.2709 112.272 19.529L71.373 85.7205C71.2967 85.7072 71.2195 85.6999 71.1421 85.699C70.9711 85.7 70.8016 85.7314 70.6416 85.7918L7.02468 17.0701C7.52967 16.5537 7.81304 15.8603 7.81431 15.1379C7.81358 14.6214 7.66854 14.1154 7.39557 13.6771C7.12261 13.2387 6.73258 12.8855 6.26957 12.6573L52.7649 -86.3817C52.9768 -86.3297 53.194 -86.3028 53.4122 -86.3018C53.707 -86.3028 53.9998 -86.3509 54.2794 -86.4443ZM323.621 -64.3049L498.053 8.16464L396.575 77.8859C396.184 77.4511 395.706 77.1033 395.173 76.8649C394.639 76.6265 394.061 76.5029 393.477 76.5021C393.033 76.5033 392.591 76.5754 392.17 76.7158L323.608 -64.292C323.612 -64.2963 323.616 -64.3006 323.621 -64.3049ZM321.847 -63.9271C321.848 -63.9271 321.849 -63.9271 321.849 -63.9271C322.045 -63.8444 322.254 -63.8019 322.466 -63.8019C322.516 -63.8024 322.566 -63.8053 322.615 -63.8105L391.171 77.1994C390.654 77.5425 390.22 77.9963 389.901 78.5281C389.581 79.0599 389.384 79.6562 389.324 80.2737L179.554 87.9097C179.461 87.479 179.278 87.073 179.017 86.718L321.847 -63.9271ZM611.924 -20.3629L747.093 17.3809L826.511 54.7794L679.12 129.85C678.795 129.404 678.37 129.041 677.878 128.79C677.387 128.54 676.843 128.409 676.291 128.408C675.751 128.409 675.218 128.535 674.735 128.776C674.251 129.018 673.83 129.367 673.504 129.799L569.191 109.486C569.013 108.681 568.655 107.926 568.144 107.28C567.634 106.633 566.983 106.11 566.242 105.751L611.924 -20.3629ZM610.694 -20.2291L565.189 105.371C564.758 105.261 564.315 105.205 563.871 105.202C562.986 105.202 562.114 105.418 561.331 105.83C560.547 106.242 559.876 106.839 559.375 107.569L502.079 96.4135C502.066 95.964 501.909 95.5306 501.63 95.1778C501.351 94.825 500.966 94.5717 500.532 94.4554L499.773 9.36283L610.694 -20.2291ZM498.657 9.08649H498.659V9.09296L499.425 94.4597C499.065 94.5624 498.74 94.76 498.482 95.0318L429.351 57.832C429.345 57.6699 429.303 57.5112 429.228 57.3674C429.153 57.2236 429.047 57.0984 428.917 57.0009L498.657 9.08649ZM6.28251 17.8991L69.8304 86.5452C69.744 86.7335 69.6991 86.9382 69.6988 87.1454C69.6997 87.4479 69.7956 87.7424 69.9728 87.9874L50.8469 118.944C50.655 118.887 50.456 118.858 50.2558 118.857C50.1584 118.857 50.061 118.863 49.9645 118.877L6.28251 17.8991ZM4.99667 17.9077C5.0132 17.9086 5.02974 17.9093 5.04629 17.9099C5.05924 17.9092 5.07219 17.9085 5.08513 17.9077L48.9484 119.319C48.7052 119.515 48.509 119.763 48.3742 120.045C48.2394 120.326 48.1695 120.635 48.1695 120.947C48.17 121.365 48.2956 121.773 48.5302 122.119C48.7648 122.464 49.0976 122.731 49.4856 122.886L34.1569 258.632C33.7711 258.693 33.4101 258.86 33.1148 259.116L1.10462 237.512L4.99667 17.9077ZM115.538 19.9176V19.9198L174.051 86.6294C173.609 87.1826 173.368 87.869 173.367 88.5768C173.367 89.094 173.496 89.6031 173.741 90.0585C173.986 90.514 174.34 90.9016 174.771 91.1868L144.496 161.143C144.127 161.038 143.745 160.985 143.361 160.984C142.499 160.985 141.659 161.254 140.955 161.752L72.4517 87.7478C72.5392 87.559 72.5848 87.3535 72.5855 87.1454C72.5847 86.8439 72.4897 86.5503 72.3136 86.3056L113.217 20.1141C113.521 20.2261 113.842 20.2838 114.166 20.2846C114.648 20.2838 115.121 20.1573 115.538 19.9176ZM827.093 55.7228L814.772 157.309L679.672 130.999C679.656 130.944 679.639 130.889 679.62 130.835L827.093 55.7228ZM827.933 57.9594L852.172 163.706C851.866 163.882 851.615 164.141 851.449 164.453L815.857 157.521L827.933 57.9594ZM427.217 58.1688C427.263 58.3292 427.344 58.477 427.456 58.6009C427.567 58.7248 427.706 58.8214 427.86 58.8834L436.486 114.572C435.893 114.748 435.346 115.053 434.885 115.466L396.974 82.9572C397.415 82.2802 397.65 81.4898 397.652 80.6817C397.652 80.0253 397.497 79.3782 397.201 78.7927L427.217 58.1688ZM428.982 58.8769L497.963 96.0012C497.926 96.1554 497.907 96.3133 497.906 96.4718C497.906 96.5215 497.908 96.5712 497.911 96.6208L441.379 116.677C441.029 115.992 440.496 115.417 439.841 115.015C439.185 114.614 438.431 114.401 437.662 114.401C437.633 114.402 437.604 114.403 437.575 114.404L428.982 58.8769ZM389.36 81.379C389.432 81.8003 389.568 82.208 389.764 82.588L323.101 128.995C322.514 128.408 321.717 128.078 320.887 128.078C320.306 128.079 319.737 128.242 319.243 128.549C318.749 128.855 318.35 129.293 318.091 129.814L179.897 89.0021L389.36 81.379ZM390.398 83.4969C390.697 83.8251 391.047 84.1035 391.434 84.3216L327.137 245.537L326.792 245.176L321.582 134.263C322.274 134.106 322.892 133.718 323.335 133.164C323.778 132.609 324.019 131.92 324.02 131.21C324.018 130.758 323.919 130.312 323.729 129.902L390.398 83.4969ZM396.249 83.7948H396.251L434.164 116.306C433.724 116.982 433.489 117.771 433.487 118.579C433.487 119.687 433.927 120.749 434.71 121.533C435.493 122.316 436.554 122.756 437.662 122.756C438.349 122.756 439.026 122.586 439.632 122.261C440.238 121.936 440.754 121.466 441.135 120.893L474.274 137.134C474.248 137.264 474.235 137.395 474.235 137.527C474.235 137.973 474.378 138.408 474.643 138.767L411.522 219.226C411.297 219.169 411.066 219.139 410.834 219.138C410.646 219.139 410.459 219.158 410.275 219.196L394.504 84.7253C395.152 84.5595 395.75 84.2404 396.249 83.7948ZM392.456 84.7253C392.767 84.8048 393.085 84.8483 393.406 84.8548L409.213 219.645C408.83 219.908 408.516 220.261 408.299 220.673C408.082 221.085 407.969 221.543 407.969 222.009C407.969 222.037 407.97 222.065 407.971 222.093L329.176 247.385C328.917 246.897 328.534 246.487 328.065 246.195L392.456 84.7253ZM71.6405 88.5012L140.144 162.499C140.043 162.623 139.95 162.752 139.864 162.886L52.3097 121.316C52.3321 121.195 52.3437 121.071 52.3442 120.947C52.3426 120.422 52.1431 119.916 51.7854 119.531L70.9178 88.5703C70.9919 88.5826 71.0669 88.5891 71.1421 88.5897C71.3122 88.5898 71.4809 88.5599 71.6405 88.5012ZM179.295 89.9757L317.776 130.869C317.763 130.983 317.757 131.097 317.757 131.21C317.758 131.97 318.034 132.703 318.534 133.273C319.035 133.844 319.725 134.213 320.477 134.313L325.625 243.954L179.026 90.4226C179.128 90.2814 179.218 90.1319 179.295 89.9757ZM178.23 91.1825V91.1847L325.703 245.632L325.711 245.802C325.206 245.919 324.737 246.159 324.347 246.501C323.957 246.844 323.659 247.278 323.478 247.765L228.285 230.511C228.24 229.99 228.001 229.506 227.617 229.152C227.232 228.799 226.729 228.603 226.207 228.602C226.158 228.602 226.109 228.603 226.06 228.607L178.038 91.297C178.103 91.2611 178.167 91.223 178.23 91.1825ZM175.779 91.6208C176.015 91.6782 176.257 91.7079 176.499 91.7093C176.663 91.7078 176.827 91.6933 176.989 91.6661L225.018 228.976C225.002 228.987 224.987 228.999 224.971 229.01L146.947 167.288C147.33 166.644 147.534 165.909 147.536 165.159C147.534 164.44 147.347 163.734 146.993 163.108C146.639 162.483 146.129 161.959 145.514 161.588L175.779 91.6208ZM501.814 97.4886L558.824 108.587C558.553 109.246 558.413 109.95 558.412 110.662C558.414 111.688 558.704 112.694 559.25 113.562C559.796 114.431 560.576 115.128 561.5 115.574L541.86 169.79L478.405 137.389C478.372 136.887 478.159 136.414 477.805 136.057L499.471 98.4882C499.642 98.5341 499.818 98.5581 499.995 98.5595C500.366 98.5588 500.73 98.4591 501.049 98.2709C501.369 98.0827 501.633 97.8127 501.814 97.4886ZM498.282 97.6635C498.35 97.762 498.427 97.8545 498.511 97.9399L476.85 135.509C476.678 135.463 476.501 135.44 476.323 135.44C475.931 135.441 475.548 135.552 475.216 135.761L473.683 134.978L474.013 135.783L441.618 119.9C441.762 119.474 441.835 119.028 441.836 118.579C441.835 118.291 441.804 118.005 441.744 117.724L498.282 97.6635ZM569.327 110.638L672.965 130.824C672.848 131.176 672.789 131.544 672.788 131.914C672.788 132.844 673.157 133.736 673.814 134.393C674.471 135.051 675.362 135.42 676.291 135.42C676.836 135.42 677.373 135.292 677.86 135.047L736.18 216.212L683.573 239.369C683.256 238.876 682.82 238.471 682.306 238.191C681.792 237.91 681.216 237.763 680.63 237.762C680.078 237.763 679.535 237.894 679.043 238.145C678.552 238.395 678.126 238.758 677.802 239.205L542.857 170.299L562.546 115.951C562.979 116.062 563.424 116.12 563.871 116.122C565.318 116.122 566.705 115.547 567.729 114.523C568.752 113.499 569.327 112.11 569.327 110.662C569.327 110.654 569.327 110.646 569.327 110.638ZM51.8351 122.309L139.387 163.883C139.254 164.296 139.186 164.727 139.186 165.161C139.187 165.923 139.396 166.671 139.791 167.323C140.185 167.975 140.751 168.506 141.426 168.859L113.549 245.193C113.492 245.188 113.436 245.185 113.379 245.185C112.86 245.185 112.36 245.378 111.976 245.726C111.592 246.074 111.352 246.553 111.301 247.069L36.3639 259.813C36.1401 259.332 35.7412 258.953 35.2485 258.755L50.5816 123.011C51.0692 122.933 51.5133 122.684 51.8351 122.309ZM679.784 132.152L814.638 158.415L811.838 181.508C811.402 181.586 811.007 181.814 810.722 182.153C810.437 182.493 810.281 182.922 810.28 183.365C810.282 183.439 810.287 183.512 810.298 183.585L737.214 215.757L678.76 134.403C679.363 133.802 679.728 133.002 679.784 132.152ZM478.164 138.51L541.481 170.841L517.526 236.966C517.422 236.951 517.317 236.943 517.211 236.942C517.069 236.942 516.927 236.955 516.786 236.979L476.763 139.563C477.059 139.5 477.338 139.372 477.579 139.191C477.821 139.009 478.02 138.776 478.164 138.51ZM475.262 139.777L439.146 304.338C439.13 304.339 439.114 304.339 439.098 304.34L412.253 224.498C412.693 224.248 413.058 223.886 413.313 223.449C413.568 223.012 413.702 222.515 413.703 222.009C413.702 221.563 413.597 221.122 413.397 220.724C413.196 220.325 412.905 219.978 412.547 219.712L475.262 139.777ZM476.136 140.947L515.764 237.402C515.43 237.635 515.158 237.944 514.97 238.305C514.782 238.665 514.683 239.066 514.683 239.472C514.683 239.896 514.79 240.313 514.994 240.684C515.198 241.056 515.491 241.37 515.848 241.599L485.111 326.447L441.325 307.011C441.369 306.839 441.391 306.663 441.392 306.486C441.392 306.091 441.283 305.704 441.077 305.366C440.872 305.029 440.578 304.755 440.227 304.574L476.136 140.947ZM815.724 158.626L851.24 165.543C851.24 165.55 851.241 165.556 851.242 165.563L813.594 182.134C813.412 181.923 813.186 181.755 812.932 181.642L815.724 158.626ZM851.688 166.573C851.756 166.652 851.829 166.725 851.908 166.791L818.677 246.452L798.954 296.879L812.496 185.224C812.933 185.146 813.328 184.918 813.613 184.578C813.898 184.238 814.054 183.809 814.054 183.365C814.053 183.292 814.048 183.219 814.039 183.147L851.688 166.573ZM146.265 168.162L224.283 229.88C224.174 230.137 224.119 230.413 224.119 230.692C224.119 231.175 224.287 231.642 224.593 232.015L163.013 318.74C162.88 318.692 162.743 318.657 162.603 318.637L144.409 169.203C145.107 169.022 145.746 168.663 146.265 168.162ZM142.463 169.239C142.743 169.301 143.029 169.333 143.316 169.336L161.46 318.451L114.951 248.643C115.282 248.263 115.465 247.776 115.465 247.272C115.464 246.939 115.384 246.611 115.231 246.315C115.078 246.019 114.856 245.764 114.585 245.571L142.463 169.239ZM542.477 171.351L677.297 240.191C677.184 240.539 677.127 240.903 677.126 241.268C677.127 241.568 677.166 241.866 677.243 242.156L543.161 301.175L518.661 241.54C518.993 241.307 519.264 240.998 519.452 240.638C519.639 240.278 519.737 239.878 519.738 239.472C519.737 239.048 519.63 238.631 519.426 238.259C519.222 237.887 518.928 237.572 518.571 237.344L542.477 171.351ZM810.74 184.598C810.922 184.809 811.148 184.977 811.402 185.09L797.754 297.639C797.254 297.658 796.763 297.784 796.315 298.008L737.874 216.674L810.74 184.598ZM736.838 217.13L795.415 298.652C795.284 298.784 795.164 298.926 795.055 299.077L683.961 242.35C684.075 242.001 684.133 241.636 684.134 241.268C684.133 240.969 684.094 240.671 684.017 240.381L736.838 217.13ZM408.221 223.177C408.323 223.408 408.455 223.624 408.614 223.82L331.784 316.376C331.226 316.024 330.593 315.81 329.936 315.75L327.101 251.905C327.793 251.749 328.412 251.362 328.856 250.807C329.3 250.252 329.542 249.563 329.543 248.853L329.942 248.475L329.815 248.341L408.221 223.177ZM409.466 224.528C409.886 224.758 410.357 224.878 410.836 224.878C410.959 224.876 411.083 224.866 411.205 224.848L438.056 304.688C437.801 304.857 437.585 305.079 437.422 305.338C437.259 305.598 437.153 305.889 437.111 306.193L333.605 318.857C333.432 318.193 333.098 317.582 332.632 317.078L409.466 224.528ZM228.086 231.594L323.28 248.842C323.28 248.845 323.28 248.849 323.28 248.853C323.281 249.2 323.34 249.544 323.455 249.872L267.145 281.337C266.95 281.14 266.719 280.984 266.463 280.877C266.207 280.77 265.933 280.715 265.656 280.716C265.392 280.716 265.131 280.767 264.886 280.865L227.957 231.828C228.005 231.753 228.048 231.675 228.086 231.594ZM227.131 232.566L264.004 281.53C263.723 281.895 263.57 282.342 263.57 282.803C263.571 283.175 263.67 283.54 263.859 283.86C264.047 284.18 264.318 284.445 264.642 284.625L252.617 333.505L164.366 320.448C164.319 320.056 164.162 319.685 163.913 319.379L225.495 232.654C225.723 232.738 225.964 232.781 226.207 232.782C226.527 232.782 226.843 232.708 227.131 232.566ZM2.33221 239.669L32.4999 260.029C32.4273 260.244 32.3901 260.469 32.3899 260.696C32.3902 261.25 32.6101 261.781 33.0013 262.172C33.3925 262.564 33.9229 262.784 34.4762 262.784C34.565 262.782 34.6536 262.775 34.7415 262.762L74.5488 358.382L2.33221 239.669ZM517.639 241.964L542.149 301.622L486.394 326.165L516.89 241.979C516.996 241.993 517.104 242 517.211 242C517.355 242 517.497 241.988 517.639 241.964ZM677.683 243.168C678.001 243.661 678.437 244.067 678.952 244.347C679.467 244.628 680.044 244.775 680.63 244.774C680.945 244.775 681.258 244.733 681.562 244.649L725.995 342.386L591.201 335.327L487.643 326.823L677.683 243.168ZM683.456 243.335L794.55 300.064C794.437 300.412 794.379 300.775 794.378 301.141C794.378 301.579 794.461 302.013 794.621 302.421L727.119 342.196L682.563 244.189C682.909 243.96 683.212 243.67 683.456 243.335ZM111.489 248.155C111.658 248.518 111.929 248.825 112.268 249.038L77.923 362.827C77.9058 362.826 77.8885 362.825 77.8712 362.825C77.7846 362.826 77.6982 362.832 77.6123 362.844L35.762 262.337C35.9837 262.164 36.1681 261.948 36.3042 261.701C36.4402 261.455 36.5251 261.184 36.5538 260.904L111.489 248.155ZM114.039 249.252L160.726 319.325C160.393 319.706 160.209 320.194 160.208 320.7C160.21 320.85 160.227 320.999 160.26 321.145L79.3987 363.492C79.2755 363.359 79.1355 363.243 78.9823 363.146L113.327 249.36C113.344 249.361 113.361 249.362 113.379 249.362C113.603 249.361 113.826 249.324 114.039 249.252ZM323.996 250.841C324.498 251.451 325.211 251.849 325.994 251.955L328.831 315.8C327.867 315.973 326.994 316.479 326.366 317.23C325.737 317.982 325.392 318.93 325.392 319.91C325.393 319.981 325.396 320.051 325.401 320.122L253.773 333.423L265.712 284.889C266.256 284.874 266.772 284.648 267.152 284.259C267.531 283.87 267.744 283.347 267.745 282.803C267.744 282.635 267.723 282.468 267.682 282.305L323.996 250.841Z" fill="#00CCFF"/>
</g>
</svg>
