<svg width="867" height="470" viewBox="0 0 867 470" fill="none" xmlns="http://www.w3.org/2000/svg">
<g opacity="0.15">
<path d="M223.128 3.319C221.791 3.32059 220.645 4.27519 220.403 5.58969L62.0682 8.65609C61.7868 7.38824 60.6633 6.48521 59.3641 6.48279C57.8312 6.48256 56.5885 7.72487 56.5887 9.25725C56.5905 10.134 57.0068 10.9583 57.7114 11.4803L25.0001 110.873C24.9526 110.869 24.905 110.864 24.8573 110.864C23.3244 110.864 22.0817 112.106 22.0819 113.639C22.0835 114.722 22.7154 115.704 23.7 116.156L5.80865 336.664L6.18723 336.673L5.88221 336.96L82.3681 462.564C82.0019 462.952 81.7976 463.465 81.797 463.998C81.7965 465.153 82.733 466.091 83.8888 466.091C85.0455 466.092 85.9833 465.154 85.9828 463.998C85.9819 463.846 85.9643 463.696 85.931 463.548L87.3089 462.828L259.96 434.194L386.771 461.444L386.864 461.413L734.801 443.151L734.77 442.593L803.124 402.358C803.791 403.165 804.785 403.633 805.833 403.633C807.773 403.633 809.345 402.061 809.346 400.121C809.343 398.876 808.682 397.725 807.606 397.096L827.705 345.758L861.023 265.975C861.086 265.984 861.149 265.988 861.212 265.988C862.257 265.988 863.103 265.141 863.103 264.096C863.101 263.106 862.336 262.285 861.348 262.213L836.354 153.303L836.469 152.366L835.789 152.713L834.152 151.943L741.848 31.6645L741.556 31.7707L331.827 33.5049L330.721 33.0465C330.723 33.0245 330.724 33.0069 330.725 32.9858C330.726 32.1096 330.016 31.3989 329.14 31.3985C328.62 31.3987 328.134 31.6531 327.837 32.0797L225.896 6.22048C225.899 6.17644 225.901 6.13544 225.902 6.09272C225.902 4.56034 224.659 3.31804 223.127 3.31826L223.128 3.319ZM220.424 6.69905C220.505 7.05845 220.656 7.39798 220.87 7.69814L121.737 113.665C121.3 113.394 120.796 113.251 120.281 113.25C119.989 113.251 119.698 113.298 119.42 113.389L61.1942 11.3375C61.6622 10.927 61.9784 10.371 62.092 9.75901L220.424 6.69905ZM225.627 7.29584L327.563 33.1528C327.583 33.3361 327.634 33.5149 327.715 33.6805L184.504 184.58C184.343 184.474 184.173 184.382 183.995 184.307L223.076 8.86571C223.094 8.86659 223.111 8.86728 223.128 8.86786C224.194 8.86689 225.165 8.25587 225.627 7.29571V7.29584ZM221.679 8.45494C221.781 8.51793 221.887 8.5743 221.997 8.62363L182.92 184.069C182.874 184.065 182.828 184.061 182.782 184.061C182.211 184.062 181.652 184.218 181.163 184.512L122.485 117.702C122.854 117.22 123.055 116.631 123.057 116.024C123.056 115.448 122.876 114.887 122.542 114.417L221.679 8.45494ZM60.2338 11.889L118.451 113.942C117.851 114.468 117.507 115.226 117.506 116.024C117.508 116.788 117.825 117.517 118.382 118.04L77.3732 184.342C77.2967 184.329 77.2194 184.32 77.1417 184.32C76.9702 184.321 76.8003 184.351 76.6398 184.413L26.841 115.577C27.3474 115.059 27.6315 114.365 27.6328 113.641C27.6313 112.586 27.0309 111.623 26.0839 111.156L58.7152 11.9517C58.9276 12.0037 59.1454 12.0306 59.3641 12.0315C59.6598 12.0305 59.9533 11.9821 60.2338 11.8888V11.889ZM738.457 32.8934L620.735 75.6243C620.344 75.0686 619.708 74.7373 619.028 74.7355C618.197 74.736 617.445 75.2283 617.112 75.9898L337.616 34.5909L738.457 32.8934ZM741.455 32.9863L831.967 150.912L755.297 114.841L621.042 77.3911C621.094 77.2083 621.121 77.0189 621.122 76.8288C621.121 76.7733 621.118 76.7178 621.113 76.6623L741.455 32.9863ZM330.298 34.0654V34.0742L330.293 34.1007L330.285 34.0786C330.289 34.0742 330.293 34.0698 330.298 34.0654H330.298ZM328.519 34.4437H328.522C328.717 34.5265 328.928 34.5693 329.14 34.5693C329.19 34.5687 329.24 34.5658 329.29 34.5605L398.029 175.806C396.98 176.502 396.3 177.633 396.177 178.886L185.845 186.534C185.751 186.103 185.568 185.696 185.306 185.341L328.519 34.4437ZM330.57 34.6644L332.392 34.9348L504.281 106.276C504.268 106.361 504.259 106.447 504.259 106.533C504.26 106.766 504.299 106.998 504.378 107.218L403.447 176.494C402.654 175.613 401.525 175.11 400.34 175.108C399.895 175.109 399.452 175.181 399.029 175.322L330.57 34.6644ZM336.876 35.5986L616.954 77.0839C616.967 77.1795 616.984 77.2742 617.008 77.3671L508.435 106.306C508.319 105.245 507.423 104.44 506.356 104.439C505.711 104.44 505.103 104.738 504.707 105.246L336.876 35.5986ZM617.605 78.3576C617.721 78.466 617.848 78.5611 617.985 78.6408L572.514 204.025C572.082 203.915 571.638 203.858 571.192 203.856C569.391 203.856 567.705 204.742 566.684 206.226L509.235 195.052C509.208 194.128 508.578 193.33 507.684 193.091L506.929 108.544C507.476 108.388 507.936 108.016 508.203 107.515L617.605 78.3576ZM620.432 78.3797L754.906 115.89L833.443 152.837L834.033 153.606L686.751 228.548C686.09 227.641 685.037 227.105 683.915 227.103C682.817 227.105 681.782 227.621 681.12 228.496L576.527 208.149C576.166 206.515 575.076 205.137 573.57 204.408L619.069 78.9223C619.574 78.9135 620.058 78.7187 620.432 78.3795V78.3797ZM505.003 108.131C505.24 108.33 505.516 108.474 505.815 108.553L506.574 193.098C506.213 193.201 505.887 193.399 505.629 193.671L436.312 156.409C436.299 156.08 436.14 155.774 435.877 155.576L505.003 108.131ZM26.0969 116.407L75.8264 185.168C75.7398 185.357 75.6948 185.562 75.6945 185.769C75.6954 186.072 75.7915 186.367 75.9692 186.613L56.7921 217.621C56.5997 217.563 56.4001 217.534 56.1993 217.534C56.1016 217.534 56.004 217.543 55.9073 217.556L26.0969 116.407ZM24.8076 116.416C24.8243 116.417 24.8406 116.418 24.8573 116.418C24.8701 116.417 24.8833 116.417 24.8961 116.416L54.8882 217.997C54.3943 218.394 54.1072 218.994 54.1073 219.628C54.1082 220.484 54.631 221.253 55.4269 221.569L40.057 357.543C39.6702 357.604 39.3083 357.772 39.0122 358.027L6.91609 336.387L24.8076 116.416ZM121.657 118.429V118.431L180.326 185.252C179.884 185.807 179.642 186.494 179.641 187.203C179.642 188.255 180.171 189.237 181.049 189.817L150.692 259.891C150.322 259.786 149.939 259.732 149.554 259.731C148.69 259.733 147.847 260.002 147.142 260.501L78.4548 186.372C78.5425 186.183 78.5882 185.977 78.5889 185.769C78.5882 185.467 78.4928 185.173 78.3163 184.928L119.329 118.626C119.634 118.738 119.956 118.796 120.281 118.797C120.764 118.795 121.238 118.669 121.657 118.428L121.657 118.429ZM835.121 154.294L822.767 256.051L687.304 229.696C687.287 229.641 687.269 229.586 687.253 229.532L835.121 154.294ZM835.963 156.535L860.267 262.458C859.96 262.635 859.709 262.894 859.542 263.206L823.855 256.263L835.963 156.535ZM434.172 156.744C434.264 157.07 434.503 157.334 434.817 157.46L443.466 213.242C442.871 213.417 442.323 213.723 441.861 214.137L403.848 181.574C404.29 180.896 404.526 180.104 404.527 179.295C404.527 178.637 404.372 177.989 404.075 177.403L434.172 156.744ZM435.942 157.454L505.107 194.64C505.072 194.795 505.052 194.953 505.051 195.111C505.051 195.161 505.052 195.211 505.055 195.261L448.372 215.351C447.656 213.952 446.216 213.071 444.644 213.071C444.613 213.072 444.587 213.073 444.557 213.074L435.942 157.454ZM396.214 179.993C396.286 180.415 396.422 180.824 396.618 181.204L329.776 227.689C329.188 227.101 328.389 226.77 327.557 226.77C326.368 226.773 325.283 227.446 324.753 228.509L186.189 187.629L396.214 179.993ZM397.254 182.115C397.554 182.443 397.905 182.722 398.293 182.941L333.824 344.425L333.478 344.064L328.253 232.966C329.682 232.642 330.697 231.373 330.698 229.908C330.696 229.455 330.597 229.008 330.406 228.598L397.254 182.115ZM403.121 182.413H403.123L441.138 214.978C440.696 215.655 440.46 216.446 440.459 217.255C440.459 219.566 442.333 221.439 444.645 221.44C446.045 221.439 447.352 220.738 448.127 219.573L481.355 235.842C481.328 235.971 481.315 236.103 481.315 236.235C481.316 236.682 481.459 237.117 481.725 237.476L418.433 318.07C418.207 318.013 417.976 317.983 417.743 317.982C417.555 317.983 417.367 318.004 417.183 318.04L401.369 183.345C402.019 183.179 402.619 182.859 403.119 182.413L403.121 182.413ZM399.318 183.345C399.629 183.425 399.949 183.468 400.27 183.475L416.12 318.491C415.339 319.026 414.872 319.912 414.872 320.858C414.872 320.885 414.873 320.915 414.874 320.943L335.868 346.277C335.608 345.788 335.224 345.377 334.754 345.085L399.318 183.345ZM77.6414 187.127L146.329 261.249C146.228 261.373 146.134 261.502 146.048 261.636L58.2587 219.997C58.2812 219.875 58.2931 219.751 58.2935 219.628C58.292 219.101 58.0919 218.595 57.7332 218.209L76.9169 187.197C76.9912 187.21 77.0664 187.219 77.1419 187.219C77.3124 187.219 77.4815 187.188 77.6416 187.13L77.6414 187.127ZM185.585 188.604L324.437 229.566C324.425 229.679 324.418 229.793 324.418 229.908C324.42 231.48 325.586 232.809 327.145 233.015L332.307 342.84L185.315 189.051C185.417 188.91 185.507 188.76 185.585 188.604L185.585 188.604ZM184.517 189.813V189.815L332.385 344.52L332.394 344.691C331.364 344.928 330.523 345.667 330.155 346.657L234.706 329.374C234.612 328.294 233.708 327.464 232.623 327.463C232.574 327.462 232.525 327.464 232.476 327.467L184.324 189.928C184.39 189.892 184.454 189.854 184.517 189.813ZM182.059 190.252C182.296 190.31 182.538 190.34 182.782 190.341C182.946 190.339 183.11 190.323 183.273 190.297L231.431 327.836C231.415 327.849 231.399 327.858 231.383 327.871L153.149 266.045C153.534 265.4 153.738 264.664 153.74 263.913C153.737 262.448 152.968 261.092 151.713 260.336L182.059 190.252ZM508.969 196.13L566.133 207.247C565.861 207.906 565.721 208.612 565.72 209.325C565.722 211.423 566.925 213.334 568.815 214.245L549.123 268.552L485.498 236.097C485.463 235.594 485.251 235.121 484.896 234.763L506.62 197.131C506.791 197.177 506.968 197.201 507.145 197.202C507.903 197.201 508.6 196.791 508.969 196.13H508.969ZM505.427 196.305C505.496 196.404 505.573 196.496 505.657 196.582L483.938 234.214C483.766 234.168 483.588 234.145 483.41 234.145C483.017 234.146 482.633 234.258 482.301 234.467L480.762 233.682L481.093 234.488L448.612 218.579C448.756 218.153 448.829 217.705 448.831 217.255C448.829 216.967 448.8 216.681 448.738 216.399L505.427 196.305ZM576.663 209.302L680.579 229.521C680.462 229.873 680.402 230.242 680.401 230.613C680.402 232.553 681.974 234.125 683.914 234.125C684.461 234.124 684.999 233.996 685.487 233.751L743.964 315.053L691.215 338.247C690.569 337.245 689.458 336.639 688.265 336.639C687.143 336.64 686.089 337.177 685.429 338.083L550.122 269.063L569.864 214.624C570.298 214.735 570.744 214.793 571.192 214.795C574.214 214.794 576.663 212.346 576.663 209.326C576.663 209.317 576.663 209.308 576.663 209.299L576.663 209.302ZM57.7828 220.992L145.569 262.635C145.436 263.049 145.368 263.481 145.368 263.916C145.37 265.472 146.234 266.898 147.614 267.62L119.662 344.082C119.606 344.077 119.549 344.073 119.492 344.073C118.415 344.073 117.514 344.889 117.408 345.961L42.2702 358.726C42.0458 358.243 41.6459 357.864 41.1518 357.666L56.526 221.694C57.0149 221.616 57.4602 221.367 57.7828 220.992L57.7828 220.992ZM687.417 230.851L822.633 257.158L819.825 280.29C818.922 280.45 818.264 281.233 818.263 282.15C818.265 282.224 818.272 282.297 818.281 282.37L745.001 314.596L686.39 233.106C686.995 232.504 687.36 231.703 687.417 230.851L687.417 230.851ZM485.255 237.219L548.742 269.605L524.724 335.84C524.619 335.827 524.513 335.818 524.407 335.814C524.265 335.815 524.122 335.827 523.981 335.854L483.851 238.275C484.451 238.146 484.964 237.76 485.255 237.22L485.255 237.219ZM482.346 238.489L446.133 403.325C446.115 403.326 446.102 403.327 446.085 403.327L419.168 323.352C420.065 322.842 420.62 321.89 420.622 320.858C420.62 319.952 420.19 319.099 419.462 318.558L482.346 238.489ZM483.222 239.661L522.956 336.277C522.278 336.75 521.874 337.524 521.872 338.351C521.874 339.213 522.314 340.016 523.041 340.481L493.841 421.004C493.322 420.814 492.774 420.716 492.221 420.714C490.34 420.716 488.637 421.825 487.875 423.545L448.318 406.002C448.362 405.831 448.384 405.654 448.384 405.477C448.384 404.67 447.933 403.931 447.216 403.561L483.222 239.661ZM823.721 257.37L859.332 264.298C859.333 264.307 859.334 264.311 859.334 264.32L821.586 280.92C821.403 280.708 821.177 280.54 820.922 280.427L823.721 257.37ZM859.782 265.33C859.85 265.409 859.924 265.482 860.003 265.548L826.682 345.342L806.906 395.854L820.485 284.012C821.388 283.852 822.047 283.067 822.047 282.15C822.045 282.077 822.038 282.004 822.029 281.931L859.782 265.33ZM152.466 266.921L230.693 328.743C230.585 329 230.529 329.277 230.529 329.556C230.529 330.04 230.698 330.508 231.005 330.882L169.259 417.752C169.126 417.703 168.988 417.669 168.848 417.648L150.605 267.964C151.305 267.783 151.946 267.424 152.466 266.922V266.921ZM148.654 268C148.935 268.062 149.221 268.095 149.509 268.098L167.702 417.462L121.069 347.537C121.4 347.157 121.583 346.669 121.583 346.164C121.582 345.487 121.254 344.852 120.701 344.46L148.654 268ZM549.742 270.115L684.923 339.071C684.81 339.419 684.752 339.784 684.752 340.15C684.753 340.45 684.791 340.749 684.869 341.039L550.427 400.157L525.861 340.423C526.537 339.949 526.94 339.176 526.941 338.351C526.94 337.487 526.499 336.684 525.771 336.219L549.742 270.115ZM818.724 283.384C818.906 283.596 819.133 283.764 819.388 283.878L805.703 396.615C805.201 396.633 804.709 396.76 804.26 396.985L745.662 315.515L818.724 283.384ZM744.624 315.971L803.358 397.629C803.227 397.761 803.106 397.904 802.997 398.055L691.605 341.233C691.719 340.884 691.777 340.518 691.778 340.15C691.777 339.85 691.738 339.551 691.661 339.261L744.624 315.971ZM415.125 322.028C415.227 322.26 415.359 322.476 415.518 322.673L338.483 415.383C337.924 415.031 337.288 414.816 336.629 414.756L333.787 350.805C335.217 350.482 336.234 349.213 336.236 347.747L336.636 347.369L336.508 347.235L415.125 322.028ZM416.373 323.382C416.795 323.612 417.267 323.732 417.747 323.732C417.871 323.73 417.994 323.719 418.117 323.701L445.04 403.675C444.522 404.018 444.177 404.567 444.093 405.182L340.309 417.867C340.135 417.202 339.8 416.59 339.333 416.086L416.373 323.382ZM234.507 330.46L329.956 347.736C329.956 347.741 329.956 347.745 329.956 347.749C329.957 348.097 330.017 348.442 330.131 348.77L273.67 380.288C273.276 379.889 272.739 379.665 272.178 379.666C271.913 379.666 271.651 379.717 271.405 379.815L234.377 330.696C234.425 330.621 234.469 330.542 234.507 330.462L234.507 330.46ZM233.549 331.433L270.521 380.479C270.239 380.844 270.086 381.293 270.086 381.754C270.087 382.513 270.498 383.211 271.161 383.58L259.103 432.541L170.616 419.462C170.568 419.069 170.411 418.698 170.161 418.392L231.909 331.522C232.138 331.606 232.379 331.649 232.623 331.65C232.944 331.65 233.261 331.576 233.549 331.434V331.433ZM8.14714 338.548L38.3958 358.942C38.323 359.158 38.2857 359.383 38.2855 359.61C38.2861 360.765 39.2223 361.701 40.3773 361.702C40.4664 361.7 40.5553 361.693 40.6434 361.68L80.5575 457.459L8.14714 338.548ZM524.836 340.846L549.413 400.605L496.673 423.798C496.319 422.86 495.679 422.058 494.843 421.505L524.085 340.862C524.193 340.875 524.3 340.884 524.408 340.884C524.552 340.883 524.695 340.87 524.836 340.844L524.836 340.846ZM685.31 342.053C685.957 343.057 687.07 343.663 688.265 343.662C688.581 343.662 688.895 343.618 689.199 343.536L733.752 441.437L598.596 434.366L496.943 426.027C496.965 425.843 496.978 425.657 496.983 425.471C496.98 425.277 496.965 425.082 496.939 424.89L685.31 342.053ZM691.099 342.22L802.491 399.044C802.377 399.392 802.319 399.756 802.318 400.123C802.319 400.562 802.401 400.997 802.562 401.405L734.879 441.247L690.203 343.076C690.55 342.846 690.853 342.556 691.099 342.22ZM117.597 347.049C117.767 347.412 118.038 347.719 118.377 347.933L83.9408 461.912C83.9236 461.911 83.906 461.91 83.8889 461.91C83.802 461.912 83.7153 461.919 83.6293 461.932L41.6666 361.255C42.1158 360.905 42.4025 360.386 42.4605 359.819L117.597 347.049ZM120.153 348.147L166.966 418.338C166.632 418.719 166.447 419.208 166.447 419.715C166.448 419.865 166.465 420.014 166.499 420.161L86.9888 461.759L85.3274 462.033L85.4161 462.574C85.2936 462.443 85.1547 462.328 85.0029 462.232L119.44 348.255C119.457 348.256 119.474 348.257 119.492 348.257C119.717 348.256 119.94 348.218 120.154 348.147L120.153 348.147ZM330.674 349.739C331.177 350.35 331.893 350.749 332.677 350.855L335.522 414.806C333.527 415.164 332.074 416.898 332.074 418.924C332.075 418.995 332.078 419.065 332.082 419.136L260.263 432.459L272.234 383.844C273.367 383.813 274.27 382.888 274.272 381.755C274.271 381.586 274.25 381.419 274.209 381.255L330.674 349.739ZM444.225 406.277C444.275 406.402 444.336 406.521 444.409 406.635L386.579 460.264L261.376 433.373L332.288 420.223C332.85 421.941 334.452 423.103 336.259 423.106C338.552 423.105 340.417 421.261 340.443 418.969L444.225 406.277ZM447.781 406.97L487.544 424.609C487.49 424.894 487.463 425.182 487.462 425.472C487.464 425.845 487.51 426.217 487.599 426.579L389.004 459.527L445.225 407.385C445.534 407.548 445.879 407.633 446.229 407.633C446.815 407.632 447.376 407.392 447.782 406.969L447.781 406.97ZM170.458 420.548L257.714 433.451L90.4543 461.183L167.014 421.14C167.409 421.563 167.962 421.804 168.541 421.804C169.373 421.803 170.125 421.31 170.458 420.548ZM496.679 427.118L598.523 435.469L729.453 442.318L390.788 460.102L487.977 427.619C488.786 429.219 490.427 430.229 492.221 430.229C494.212 430.227 495.991 428.985 496.679 427.118Z" fill="#00CCFF"/>
<path d="M57.4986 10.94L8.08677 30.3642L5.29865 336.952L6.46036 336.961L9.23989 31.1558L57.9202 12.0241L57.4986 10.94Z" fill="#00CCFF"/>
<path d="M222.247 5.09903L222.187 6.26895L741.424 33.5642L741.484 32.4029L222.247 5.09903Z" fill="#00CCFF"/>
<path d="M848.802 1.03878L222.213 5.0991L222.222 6.26902L847.95 2.2087L861.305 44.6097L834.551 154.152L835.687 154.436L862.519 44.5755L848.802 1.03878Z" fill="#00CCFF"/>
<path d="M741.511 32.4031L741.399 33.5644L861.856 45.169L861.968 44.0163L741.511 32.4031Z" fill="#00CCFF"/>
<path d="M848.208 1.06471L741.287 32.4289L741.622 33.5472L848.535 2.18302L848.208 1.06471Z" fill="#00CCFF"/>
<path d="M861.331 44.5926L860.763 262.206L861.933 262.215L862.493 44.5928L861.331 44.5926Z" fill="#00CCFF"/>
<path d="M860.849 262.456L859.687 262.465L861.225 455.12L390.8 459.519L390.774 460.68L862.404 456.307L860.849 262.456Z" fill="#00CCFF"/>
<path d="M806.153 399.749L805.25 400.489L859.418 454.527L734.901 442.297L734.669 443.441L862.404 456.308L806.153 399.749Z" fill="#00CCFF"/>
<path d="M386.575 459.682L83.2887 463.536L83.2975 464.706L386.584 460.844L386.575 459.682Z" fill="#00CCFF"/>
<path d="M6.46061 336.858L5.3075 337.055L22.7161 438.142L83.6418 466.615L84.1323 465.566L23.7573 437.342L6.46061 336.858Z" fill="#00CCFF"/>
<path d="M83.2942 470C86.5431 470 89.1768 467.367 89.1768 464.12C89.1768 460.872 86.5431 458.239 83.2942 458.239C80.0453 458.239 77.4116 460.872 77.4116 464.12C77.4116 467.367 80.0453 470 83.2942 470Z" fill="#00CCFF"/>
<path d="M166.966 424.218C170.215 424.218 172.849 421.585 172.849 418.338C172.849 415.09 170.215 412.457 166.966 412.457C163.717 412.457 161.083 415.09 161.083 418.338C161.083 421.585 163.717 424.218 166.966 424.218Z" fill="#00CCFF"/>
<path d="M5.8826 342.84C9.13147 342.84 11.7652 340.207 11.7652 336.96C11.7652 333.712 9.13147 331.079 5.8826 331.079C2.63373 331.079 0 333.712 0 336.96C0 340.207 2.63373 342.84 5.8826 342.84Z" fill="#00CCFF"/>
<path d="M506.575 198.979C509.824 198.979 512.458 196.346 512.458 193.098C512.458 189.85 509.824 187.218 506.575 187.218C503.326 187.218 500.693 189.85 500.693 193.098C500.693 196.346 503.326 198.979 506.575 198.979Z" fill="#00CCFF"/>
<path d="M859.335 270.2C862.584 270.2 865.218 267.567 865.218 264.319C865.218 261.071 862.584 258.439 859.335 258.439C856.086 258.439 853.452 261.071 853.452 264.319C853.452 267.567 856.086 270.2 859.335 270.2Z" fill="#00CCFF"/>
<path d="M834.972 164.087C838.221 164.087 840.854 161.454 840.854 158.207C840.854 154.959 838.221 152.326 834.972 152.326C831.723 152.326 829.089 154.959 829.089 158.207C829.089 161.454 831.723 164.087 834.972 164.087Z" fill="#00CCFF"/>
<path d="M741.485 39.4481C744.734 39.4481 747.368 36.8152 747.368 33.5675C747.368 30.3197 744.734 27.6869 741.485 27.6869C738.237 27.6869 735.603 30.3197 735.603 33.5675C735.603 36.8152 738.237 39.4481 741.485 39.4481Z" fill="#00CCFF"/>
<path d="M734.801 449.03C738.05 449.03 740.684 446.397 740.684 443.149C740.684 439.901 738.05 437.269 734.801 437.269C731.552 437.269 728.919 439.901 728.919 443.149C728.919 446.397 731.552 449.03 734.801 449.03Z" fill="#00CCFF"/>
<path d="M329.139 43.1597C332.388 43.1597 335.022 40.5268 335.022 37.2791C335.022 34.0313 332.388 31.3985 329.139 31.3985C325.891 31.3985 323.257 34.0313 323.257 37.2791C323.257 40.5268 325.891 43.1597 329.139 43.1597Z" fill="#00CCFF"/>
<path d="M23.3666 440.35C24.8261 440.35 26.0093 439.167 26.0093 437.708C26.0093 436.249 24.8261 435.066 23.3666 435.066C21.907 435.066 20.7238 436.249 20.7238 437.708C20.7238 439.167 21.907 440.35 23.3666 440.35Z" fill="#00CCFF"/>
<path d="M8.08677 33.1515C9.62661 33.1515 10.8749 31.9036 10.8749 30.3643C10.8749 28.825 9.62661 27.5771 8.08677 27.5771C6.54693 27.5771 5.29865 28.825 5.29865 30.3643C5.29865 31.9036 6.54693 33.1515 8.08677 33.1515Z" fill="#00CCFF"/>
<path d="M861.226 460.893C864.415 460.893 867 458.309 867 455.121C867 451.933 864.415 449.348 861.226 449.348C858.037 449.348 855.452 451.933 855.452 455.121C855.452 458.309 858.037 460.893 861.226 460.893Z" fill="#00CCFF"/>
<path d="M861.968 47.5109C863.262 47.5109 864.31 46.4623 864.31 45.1688C864.31 43.8753 863.262 42.8268 861.968 42.8268C860.674 42.8268 859.625 43.8753 859.625 45.1688C859.625 46.4623 860.674 47.5109 861.968 47.5109Z" fill="#00CCFF"/>
<path d="M847.993 4.68412C849.287 4.68412 850.336 3.63555 850.336 2.34206C850.336 1.04857 849.287 0 847.993 0C846.699 0 845.65 1.04857 845.65 2.34206C845.65 3.63555 846.699 4.68412 847.993 4.68412Z" fill="#00CCFF"/>
<path d="M822.634 259.083C823.698 259.083 824.56 258.221 824.56 257.158C824.56 256.094 823.698 255.232 822.634 255.232C821.57 255.232 820.707 256.094 820.707 257.158C820.707 258.221 821.57 259.083 822.634 259.083Z" fill="#00CCFF"/>
</g>
</svg>
