<svg width="127" height="95" viewBox="0 0 127 95" fill="none" xmlns="http://www.w3.org/2000/svg">
<path d="M0 50.0558H8.12485V26.122L26.2454 50.0558H33.2477V12.4071H25.1229V35.5879L7.59032 12.4071H0V50.0558Z" fill="#4D4D4D"/>
<path d="M80.6973 50.056C84.9201 50.056 87.6462 48.066 89.6239 45.3768V49.5182H97.7488V10.2559H89.6239V24.4549C87.6996 22.1421 85.027 20.1521 80.6973 20.1521C73.9088 20.1521 67.6548 25.423 67.6548 35.0503C67.6548 44.7852 74.0157 50.056 80.6973 50.056ZM82.782 43.1179C78.9868 43.1179 75.7796 39.9446 75.7796 35.1578C75.7796 30.2097 78.9868 27.0903 82.782 27.0903C86.5771 27.0903 89.7308 30.2635 89.7308 35.0503C89.7308 39.9446 86.5771 43.1179 82.782 43.1179Z" fill="#4D4D4D"/>
<path d="M113.85 50.0558C119.035 50.0558 122.884 48.012 125.557 44.6774L120.906 40.5361C118.661 42.6336 116.683 43.4942 113.957 43.4942C110.322 43.4942 107.757 41.558 106.955 37.8469H126.893C126.946 37.0939 127 36.3409 127 35.6955C127 27.5204 122.617 20.0444 113.049 20.0444C104.71 20.0444 98.8835 26.8212 98.8835 35.0501C98.8835 43.9782 105.244 50.0558 113.85 50.0558ZM106.848 32.7374C107.489 29.0263 109.681 26.606 113.049 26.606C116.47 26.606 118.608 29.0801 119.089 32.7374H106.848Z" fill="#4D4D4D"/>
<path d="M30.76 94.9999C34.7155 94.9999 37.4416 93.5477 39.4194 91.3426V94.4621H47.277V77.7353C47.277 73.8628 46.3148 70.6896 44.1767 68.5382C42.1455 66.4944 38.9383 65.3112 34.5017 65.3112C29.6375 65.3112 26.5372 66.2255 23.3835 67.6239L25.4147 73.8628C28.0339 72.8947 30.2255 72.3031 33.3258 72.3031C37.3882 72.3031 39.4728 74.1855 39.4728 77.5739V78.058C37.4416 77.3588 35.357 76.8747 32.4705 76.8747C25.682 76.8747 20.9247 79.779 20.9247 86.0718C20.9247 91.8804 25.3613 94.9999 30.76 94.9999ZM33.2189 89.3526C30.5997 89.3526 28.7823 88.0618 28.7823 85.8566C28.7823 83.1674 30.9204 81.7691 34.3948 81.7691C36.3726 81.7691 38.19 82.1993 39.5798 82.8447V84.2969C39.5798 87.255 37.014 89.3526 33.2189 89.3526Z" fill="#4D4D4D"/>
<path d="M61.908 95.0001C66.1308 95.0001 68.8569 93.0101 70.8346 90.3209V94.4622H78.9595V55.2H70.8346V69.399C68.9103 67.0862 66.2377 65.0962 61.908 65.0962C55.1195 65.0962 48.8655 70.3671 48.8655 79.9944C48.8655 89.7293 55.2264 95.0001 61.908 95.0001ZM63.9927 88.062C60.1975 88.062 56.9903 84.8887 56.9903 80.1019C56.9903 75.1538 60.1975 72.0344 63.9927 72.0344C67.7878 72.0344 70.9415 75.2076 70.9415 79.9944C70.9415 84.8887 67.7878 88.062 63.9927 88.062Z" fill="#4D4D4D"/>
<path d="M92.6432 94.9999C98.8437 94.9999 103.601 92.0956 103.601 85.6953C103.601 80.3169 98.9506 78.3807 94.9417 77.0361C91.8414 75.9604 89.1153 75.2074 89.1153 73.5939C89.1153 72.3569 90.1309 71.4963 92.1086 71.4963C94.1933 71.4963 97.0263 72.5182 99.8593 74.1855L102.96 68.5382C99.8593 66.4407 95.9038 65.2036 92.269 65.2036C86.4961 65.2036 81.7922 68.4844 81.7922 74.3469C81.7922 80.048 86.3357 81.9304 90.3447 83.1137C93.4984 84.0818 96.278 84.6734 96.278 86.4483C96.278 87.8466 95.2089 88.7072 92.857 88.7072C90.1843 88.7072 86.9237 87.5239 83.8234 85.265L80.349 90.6434C84.1442 93.6553 88.6342 94.9999 92.6432 94.9999Z" fill="#4D4D4D"/>
<path d="M59.1433 6.77652L35.9365 20.2497L44.9131 37.0971C46.5856 36.1692 48.4309 35.6001 50.3328 35.4256L43.3885 22.3867L61.9238 11.6237L59.1433 6.77652Z" fill="#80E5FF"/>
<path d="M51.5711 28.8761C49.64 28.8761 47.7278 29.2588 45.9437 30.0024C44.1595 30.7459 42.5384 31.8358 41.1729 33.2098C39.8074 34.5838 38.7242 36.2149 37.9852 38.0101C37.2462 39.8052 36.8658 41.7293 36.8658 43.6724C36.8658 45.6155 37.2462 47.5395 37.9852 49.3347C38.7242 51.1299 39.8074 52.761 41.1729 54.135C42.5384 55.5089 44.1595 56.5988 45.9437 57.3424C47.7278 58.086 49.64 58.4687 51.5711 58.4687C55.4712 58.4687 59.2115 56.9098 61.9693 54.135C64.7271 51.3601 66.2764 47.5966 66.2764 43.6724C66.2764 39.7482 64.7271 35.9847 61.9693 33.2098C59.2115 30.435 55.4712 28.8761 51.5711 28.8761ZM51.5711 38.0738C53.0468 38.0738 54.4621 38.6637 55.5056 39.7136C56.549 40.7635 57.1353 42.1875 57.1353 43.6724C57.1353 44.4076 56.9914 45.1356 56.7117 45.8149C56.4321 46.4941 56.0223 47.1113 55.5056 47.6312C54.9889 48.1511 54.3755 48.5635 53.7004 48.8448C53.0254 49.1262 52.3018 49.271 51.5711 49.271C50.8404 49.271 50.1169 49.1262 49.4418 48.8448C48.7667 48.5635 48.1533 48.1511 47.6367 47.6312C47.12 47.1113 46.7101 46.4941 46.4305 45.8149C46.1509 45.1356 46.007 44.4076 46.007 43.6724C46.007 42.1875 46.5932 40.7635 47.6367 39.7136C48.6802 38.6636 50.0954 38.0738 51.5711 38.0738Z" fill="#00CCFF"/>
<path d="M45.2289 21.3201C45.2289 22.0553 45.085 22.7834 44.8053 23.4626C44.5257 24.1419 44.1159 24.7591 43.5992 25.2789C43.0825 25.7988 42.4691 26.2112 41.794 26.4926C41.119 26.7739 40.3954 26.9187 39.6647 26.9187C38.934 26.9187 38.2105 26.7739 37.5354 26.4926C36.8604 26.2112 36.247 25.7988 35.7303 25.2789C35.2136 24.7591 34.8038 24.1419 34.5241 23.4626C34.2445 22.7834 34.1006 22.0553 34.1006 21.3201C34.1006 20.5849 34.2445 19.8569 34.5241 19.1776C34.8038 18.4984 35.2136 17.8812 35.7303 17.3613C36.247 16.8414 36.8604 16.429 37.5354 16.1477C38.2105 15.8663 38.934 15.7215 39.6647 15.7215C40.3954 15.7215 41.119 15.8663 41.794 16.1477C42.4691 16.429 43.0825 16.8414 43.5992 17.3613C44.1159 17.8812 44.5257 18.4984 44.8053 19.1776C45.085 19.8569 45.2289 20.5849 45.2289 21.3201Z" fill="#00CCFF"/>
<path d="M69.6731 9.19771C69.6731 10.4056 69.4366 11.6016 68.9773 12.7175C68.5179 13.8334 67.8446 14.8474 66.9957 15.7015C66.1469 16.5556 65.1392 17.2331 64.0301 17.6953C62.9211 18.1575 61.7324 18.3954 60.532 18.3954C58.1076 18.3954 55.7825 17.4264 54.0682 15.7015C52.3539 13.9766 51.3909 11.6371 51.3909 9.19771C51.3909 6.75833 52.3539 4.41885 54.0682 2.69395C55.7825 0.969042 58.1076 7.84183e-07 60.532 0C61.7324 -4.85359e-07 62.9211 0.237909 64.0301 0.700137C65.1392 1.16236 66.1469 1.83986 66.9957 2.69395C67.8446 3.54803 68.5179 4.56198 68.9773 5.6779C69.4366 6.79382 69.6731 7.98985 69.6731 9.19771Z" fill="#00CCFF"/>
</svg>
