<?xml version="1.0" encoding="utf-8"?>
<!-- Generator: Adobe Illustrator 21.1.0, SVG Export Plug-In . SVG Version: 6.00 Build 0)  -->
<svg version="1.1" id="Capa_1" xmlns="http://www.w3.org/2000/svg" xmlns:xlink="http://www.w3.org/1999/xlink" x="0px" y="0px"
	 viewBox="166.5 358.5 81 77" style="enable-background:new 166.5 358.5 81 77;" xml:space="preserve">
<style type="text/css">
	.st0{fill:#354A9E;}
</style>
<g>
	<path class="st0" d="M236.7,369.3c-7-7-16.2-10.8-26.1-10.8c-0.9,0-1.6,0.7-1.6,1.6v35.2c0,0.4,0.2,0.8,0.5,1.1l25,24.9
		c0.3,0.3,0.7,0.5,1.1,0.5s0.8-0.2,1.1-0.5c7-7,10.8-16.2,10.8-26C247.5,385.5,243.7,376.2,236.7,369.3z M244.2,397.4L229.6,412
		l-3.6-3.6l18-18c0.2,1.6,0.3,3.2,0.3,4.8C244.3,396,244.3,396.6,244.2,397.4C244.3,397.3,244.2,397.3,244.2,397.4z M220.2,402.6
		l21.2-21.1c0.8,1.7,1.4,3.4,1.9,5.3l-19.5,19.4L220.2,402.6z M212.2,375.8C212.2,375.7,212.2,375.7,212.2,375.8l11.5-11.5
		c1.6,0.7,3.2,1.5,4.7,2.4l-16.2,16.2V375.8z M220.4,363.1l-8.2,8.2v-9.6C215,361.8,217.8,362.3,220.4,363.1z M212.2,387.4
		l18.9-18.8c1.3,1,2.6,2.1,3.8,3.4l-14.7,14.6c-0.6,0.6-0.6,1.6,0,2.2c0.3,0.3,0.7,0.5,1.1,0.5s0.8-0.2,1.1-0.5l14.5-14.5
		c1.1,1.3,2,2.8,2.9,4.2l-21.9,21.8l-5.7-5.7V387.4z M235.5,418l-3.7-3.7l11.8-11.7C242.3,408.2,239.6,413.5,235.5,418z"/>
	<path class="st0" d="M205,398v-34.6c0-0.9-0.7-1.6-1.6-1.6c-9.9,0-19.1,3.8-26.1,10.8c-7,7-10.8,16.2-10.8,26s3.8,19.1,10.8,26
		c7,7,16.2,10.8,26.1,10.8c9.9,0,19.1-3.8,26.1-10.8c0.6-0.6,0.6-1.6,0-2.2L205,398z M169.7,398.7c0-18,14.3-32.8,32.2-33.6v33.6
		c0,0.1,0,0.2,0,0.4c0,0,0,0,0,0l7.7,32.7c-2,0.4-4.1,0.6-6.2,0.6C184.8,432.3,169.7,417.3,169.7,398.7z M212.6,431.1l-6.4-27.3
		l19.9,19.8C222.2,427.1,217.6,429.7,212.6,431.1z"/>
	<path class="st0" d="M218.2,393c0.3-0.3,0.5-0.7,0.5-1.1s-0.2-0.8-0.5-1.1c-0.3-0.3-0.7-0.5-1.1-0.5s-0.8,0.2-1.1,0.5
		c-0.3,0.3-0.5,0.7-0.5,1.1s0.2,0.8,0.5,1.1c0.3,0.3,0.7,0.5,1.1,0.5S217.9,393.3,218.2,393z"/>
	<path class="st0" d="M175.6,397.1C175.6,397.1,175.6,397.1,175.6,397.1c-0.9,0-1.6,0.7-1.6,1.6v0.1c0,0.9,0.7,1.6,1.6,1.6
		c0.9,0,1.6-0.7,1.6-1.6v0C177.2,397.8,176.5,397.1,175.6,397.1z"/>
	<path class="st0" d="M188.9,373.2c-6.9,3.9-12,10.6-14,18.3c-0.2,0.8,0.3,1.7,1.2,1.9c0.1,0,0.3,0,0.4,0c0.7,0,1.4-0.5,1.5-1.2
		c1.7-6.9,6.3-12.8,12.5-16.4c0.8-0.4,1-1.4,0.6-2.2C190.6,373,189.6,372.8,188.9,373.2z"/>
</g>
</svg>
