<?xml version="1.0" encoding="utf-8"?>
<!-- Generator: Adobe Illustrator 21.1.0, SVG Export Plug-In . SVG Version: 6.00 Build 0)  -->
<svg version="1.1" id="Слой_1" xmlns="http://www.w3.org/2000/svg" xmlns:xlink="http://www.w3.org/1999/xlink" x="0px" y="0px"
	 viewBox="0 0 77 77" style="enable-background:new 0 0 77 77;" xml:space="preserve">
<style type="text/css">
	.st0{fill:#364B9D;}
</style>
<g>
	<path class="st0" d="M0,0v67.1h38c3.7,6,10.3,9.9,17.9,9.9C67.5,77,77,67.5,77,55.9V0H0z M74.5,2.5v7.5h-72V2.5H74.5z M55.9,74.5
		c-10.3,0-18.6-8.4-18.6-18.6s8.4-18.6,18.6-18.6s18.6,8.4,18.6,18.6S66.2,74.5,55.9,74.5L55.9,74.5z M52.2,29.8v-2.5h7.5v2.5H52.2z
		 M57.1,32.3v2.5c-0.4,0-0.8-0.1-1.2-0.1s-0.8,0-1.2,0.1v-2.5H57.1z M59.6,35.1v-2.8h2.5v-7.5H49.7v7.5h2.5v2.8
		c-9.9,1.8-17.4,10.4-17.4,20.8c0,3.1,0.7,6,1.9,8.7H2.5V12.4h72V46C71.5,40.4,66.1,36.3,59.6,35.1L59.6,35.1z M59.6,35.1"/>
	<path class="st0" d="M55.9,39.7c-8.9,0-16.1,7.2-16.1,16.1S47,72,55.9,72S72,64.8,72,55.9S64.8,39.7,55.9,39.7L55.9,39.7z
		 M69.5,57.1c-0.3,2.8-1.4,5.4-3.1,7.5L63.8,62L62,63.8l2.6,2.6c-2.1,1.7-4.7,2.8-7.5,3.1v-3.7h-2.5v3.7c-2.8-0.3-5.4-1.4-7.5-3.1
		l2.6-2.6L48,62l-2.6,2.6c-1.7-2.1-2.9-4.7-3.1-7.5H46v-2.5h-3.7c0.3-2.8,1.4-5.4,3.1-7.5l2.6,2.6l1.8-1.8l-2.6-2.6
		c2.1-1.7,4.7-2.8,7.5-3.1V46h2.5v-3.7c2.8,0.3,5.4,1.4,7.5,3.1L62,48l1.8,1.8l2.6-2.6c1.7,2.1,2.9,4.7,3.1,7.5h-3.7v2.5H69.5z
		 M69.5,57.1"/>
	<path class="st0" d="M55.9,52.2c-2.1,0-3.7,1.7-3.7,3.7c0,2.1,1.7,3.7,3.7,3.7c2.1,0,3.7-1.7,3.7-3.7
		C59.6,53.8,57.9,52.2,55.9,52.2L55.9,52.2z M55.9,57.1c-0.7,0-1.2-0.6-1.2-1.2s0.6-1.2,1.2-1.2c0.7,0,1.2,0.6,1.2,1.2
		S56.6,57.1,55.9,57.1L55.9,57.1z M55.9,57.1"/>
	<path class="st0" d="M19.9,41H5v2.5h17.4v-3l8.4,4.2l-8.4,4.2v-3H5v2.5h14.9v4.5l16.4-8.2l-16.4-8.2V41z M19.9,41"/>
	<path class="st0" d="M8.7,54.6c-2.1,0-3.7,1.7-3.7,3.7c0,2.1,1.7,3.7,3.7,3.7c2.1,0,3.7-1.7,3.7-3.7C12.4,56.3,10.7,54.6,8.7,54.6
		L8.7,54.6z M8.7,59.6c-0.7,0-1.2-0.6-1.2-1.2c0-0.7,0.6-1.2,1.2-1.2c0.7,0,1.2,0.6,1.2,1.2C9.9,59.1,9.4,59.6,8.7,59.6L8.7,59.6z
		 M8.7,59.6"/>
	<path class="st0" d="M18.6,54.6c-2.1,0-3.7,1.7-3.7,3.7c0,2.1,1.7,3.7,3.7,3.7c2.1,0,3.7-1.7,3.7-3.7
		C22.4,56.3,20.7,54.6,18.6,54.6L18.6,54.6z M18.6,59.6c-0.7,0-1.2-0.6-1.2-1.2c0-0.7,0.6-1.2,1.2-1.2c0.7,0,1.2,0.6,1.2,1.2
		C19.9,59.1,19.3,59.6,18.6,59.6L18.6,59.6z M18.6,59.6"/>
	<path class="st0" d="M28.6,54.6c-2.1,0-3.7,1.7-3.7,3.7c0,2.1,1.7,3.7,3.7,3.7s3.7-1.7,3.7-3.7C32.3,56.3,30.6,54.6,28.6,54.6
		L28.6,54.6z M28.6,59.6c-0.7,0-1.2-0.6-1.2-1.2c0-0.7,0.6-1.2,1.2-1.2c0.7,0,1.2,0.6,1.2,1.2C29.8,59.1,29.2,59.6,28.6,59.6
		L28.6,59.6z M28.6,59.6"/>
	<path class="st0" d="M19.9,14.9H5v9.9h14.9V14.9z M17.4,22.4H7.5v-5h9.9V22.4z M17.4,22.4"/>
	<path class="st0" d="M22.4,24.8h14.9v-9.9H22.4V24.8z M24.8,17.4h9.9v5h-9.9V17.4z M24.8,17.4"/>
	<rect x="5" y="27.3" class="st0" width="32.3" height="2.5"/>
	<rect x="5" y="32.3" class="st0" width="32.3" height="2.5"/>
	<rect x="5" y="5" class="st0" width="2.5" height="2.5"/>
	<rect x="9.9" y="5" class="st0" width="2.5" height="2.5"/>
	<rect x="14.9" y="5" class="st0" width="2.5" height="2.5"/>
</g>
</svg>
