<?xml version="1.0" encoding="utf-8"?>
<!-- Generator: Adobe Illustrator 21.1.0, SVG Export Plug-In . SVG Version: 6.00 Build 0)  -->
<svg version="1.1" id="Layer_1" xmlns="http://www.w3.org/2000/svg" xmlns:xlink="http://www.w3.org/1999/xlink" x="0px" y="0px"
	 viewBox="78 334.5 258 125" style="enable-background:new 78 334.5 258 125;" xml:space="preserve">
<style type="text/css">
	.st0{fill:#364B9D;}
</style>
<g>
	<path class="st0" d="M325.7,399.6c-0.9-0.9-1.8-1.7-2.8-2.5l-10.2-55.8c-0.4-2.2-1.6-4-3.4-5.3c-1-0.7-2.1-1.1-3.3-1.3
		c-0.5-0.1-0.9-0.1-1.4-0.1c-0.5,0-1,0-1.5,0.1l-145.8,26.4c-2.2,0.4-4.1,1.6-5.3,3.4c-1.3,1.8-1.7,4-1.3,6.1l14.7,80.6
		c0.4,2.2,1.6,4,3.4,5.3c1.8,1.2,4,1.7,6.2,1.3l94.6-17.1c1.6,3.1,3.8,6,6.3,8.6c6.6,6.6,15.5,10.3,24.9,10.3
		c9.4,0,18.2-3.6,24.9-10.3c6.6-6.6,10.3-15.4,10.3-24.8S332.3,406.2,325.7,399.6z M307.4,341.7l9.4,51.4
		c-4.9-2.5-10.3-3.8-15.9-3.8c-9.2,0-17.9,3.5-24.5,9.9l-17.5-9.1L307.4,341.7z M301.2,340.4L240,401.4l-78.8-35.7L301.2,340.4z
		 M170.6,450.4l-14.8-81.2l62.6,28.3L170.6,450.4z M176.2,452.2l47.3-52.4l16,7.2c0.2,0.1,0.4,0.2,0.6,0.2c0.9,0.2,1.7-0.1,2.3-0.7
		l12.4-12.4l17.8,9.2c-4.6,6.1-7.1,13.4-7.1,21.1c0,3.9,0.6,7.6,1.8,11.2L176.2,452.2z M300.8,454.5c-16.6,0-30.1-13.5-30.1-30.1
		s13.5-30.1,30.1-30.1c16.6,0,30.1,13.5,30.1,30.1S317.4,454.5,300.8,454.5z"/>
	<path class="st0" d="M314.2,413l-17.6,17.6l-9.1-9.1c-1-1-2.6-1-3.6,0c-1,1-1,2.6,0,3.6l10.9,10.9c0.5,0.5,1.1,0.7,1.8,0.7
		c0.7,0,1.3-0.3,1.8-0.7l19.4-19.3c1-1,1-2.6,0-3.6C316.8,412,315.2,412,314.2,413z"/>
	<path class="st0" d="M134.6,447.9c-0.5-0.3-1-0.5-1.5-0.5c-0.2,0-0.3,0-0.5,0l-22.1,4c-1.4,0.3-2.4,1.6-2.1,3.1
		c0.2,1.1,1.1,1.9,2.2,2.1c0.3,0.1,0.6,0.1,0.9,0l22.1-4c0.7-0.1,1.3-0.5,1.7-1.1c0.4-0.6,0.6-1.3,0.4-2
		C135.5,448.9,135.2,448.3,134.6,447.9z"/>
	<path class="st0" d="M116.2,395.7c0.4-0.6,0.6-1.3,0.4-2c-0.2-1.1-1.1-1.9-2.2-2.1c-0.2,0-0.3,0-0.5,0c-0.2,0-0.3,0-0.5,0L99.9,394
		c-1.4,0.3-2.4,1.6-2.1,3.1c0.2,1.1,1.1,1.9,2.2,2.1c0.3,0.1,0.6,0.1,0.9,0l13.6-2.5C115.2,396.7,115.8,396.3,116.2,395.7z"/>
	<path class="st0" d="M92.3,430.8c-0.5-0.3-1-0.5-1.5-0.5c-0.2,0-0.3,0-0.5,0h0l-10.1,1.8c-0.7,0.1-1.3,0.5-1.7,1.1
		c-0.4,0.6-0.6,1.3-0.4,2c0.2,1.1,1.1,1.9,2.2,2.1c0.3,0.1,0.6,0.1,0.9,0l10.1-1.8c1.4-0.3,2.4-1.6,2.1-3.1
		C93.3,431.8,92.9,431.2,92.3,430.8z"/>
</g>
</svg>
