<?xml version="1.0" encoding="utf-8"?>
<!-- Generator: Adobe Illustrator 21.1.0, SVG Export Plug-In . SVG Version: 6.00 Build 0)  -->
<svg version="1.1" id="Layer_1" xmlns="http://www.w3.org/2000/svg" xmlns:xlink="http://www.w3.org/1999/xlink" x="0px" y="0px"
	 viewBox="174.5 358.5 65 77" style="enable-background:new 174.5 358.5 65 77;" xml:space="preserve">
<style type="text/css">
	.st0{fill:#354A9E;}
</style>
<g>
	<path class="st0" d="M238.3,371.8c-10.5-2.9-21-7.4-30.5-13.1c-0.5-0.3-1.1-0.3-1.6,0c-9.7,5.8-19.7,10.1-30.5,13.1
		c-0.7,0.2-1.2,0.8-1.2,1.6v16.5c0,17,7.8,28.3,14.3,34.8c7,7,15.2,10.8,18.2,10.8c3,0,11.2-3.8,18.2-10.8
		c6.5-6.5,14.3-17.7,14.3-34.8v-16.6C239.5,372.6,239,372,238.3,371.8z M236.3,389.9c0,15.9-7.3,26.4-13.3,32.5
		c-6.9,6.8-14.3,9.9-15.9,9.9c-1.6,0-9-3-15.9-9.9c-6.1-6-13.3-16.6-13.3-32.5v-15.3c10.3-3,19.9-7.1,29.3-12.6
		c9.1,5.4,19.2,9.7,29.3,12.6V389.9z"/>
	<path class="st0" d="M190.7,373.5c-2.9,1.1-5.8,2.2-8.7,3.1c-0.7,0.2-1.1,0.8-1.1,1.5v6.3c0,0.9,0.7,1.6,1.6,1.6s1.6-0.7,1.6-1.6
		v-5.1c2.6-0.9,5.3-1.8,7.8-2.8c0.8-0.3,1.2-1.3,0.9-2.1C192.5,373.6,191.5,373.2,190.7,373.5z"/>
	<path class="st0" d="M195.8,374.7c0.2,0,0.4,0,0.6-0.1l0,0c0.8-0.4,1.2-1.3,0.8-2.1c-0.4-0.8-1.3-1.2-2.1-0.8l0,0
		c-0.8,0.4-1.2,1.3-0.8,2.1C194.6,374.4,195.2,374.7,195.8,374.7z"/>
	<path class="st0" d="M214.7,421.1c-0.7,0.5-0.8,1.6-0.3,2.3c0.3,0.4,0.8,0.6,1.3,0.6c0.3,0,0.7-0.1,1-0.3c1.8-1.3,3.4-2.8,5-4.5
		c1.9-2,3.6-4.1,5-6.3c0.5-0.7,0.3-1.8-0.5-2.2c-0.7-0.5-1.7-0.3-2.2,0.5c-1.3,2-2.9,4-4.6,5.8C217.8,418.5,216.3,419.9,214.7,421.1
		z"/>
	<path class="st0" d="M211,423.7L211,423.7c-0.9,0.5-1.1,1.5-0.7,2.3c0.3,0.5,0.8,0.8,1.4,0.8c0.3,0,0.5-0.1,0.8-0.2l0.1-0.1
		c0.8-0.5,1-1.4,0.6-2.2C212.7,423.5,211.7,423.2,211,423.7z"/>
	<path class="st0" d="M196.1,387.3c0,0.8,0.6,1.4,1.4,1.4c0.8,0,1.4-0.6,1.4-1.4c0-4.5,3.6-8.2,8.1-8.2c4.5,0,8.1,3.7,8.1,8.2v4.1
		H196c-1.3,0-2.3,1-2.3,2.3v12c0,3.3,2.7,6.1,6,6.1h14.5c3.3,0,6-2.7,6-6.1v-12c0-1.3-1-2.3-2.3-2.3h-0.1v-4.1c0-6.1-4.9-11-10.9-11
		C201,376.2,196.1,381.2,196.1,387.3z M196.6,405.7v-11.5h20.9v11.5c0,1.8-1.4,3.2-3.2,3.2h-14.5C198,408.9,196.6,407.5,196.6,405.7
		z"/>
	<path class="st0" d="M207,405.7c2.2,0,4-1.8,4-4.1c0-2.2-1.8-4.1-4-4.1c-2.2,0-4,1.8-4,4.1C203,403.9,204.8,405.7,207,405.7z
		 M205.8,401.7c0-0.7,0.5-1.2,1.2-1.2c0.7,0,1.2,0.6,1.2,1.2c0,0.7-0.5,1.2-1.2,1.2C206.3,402.9,205.8,402.4,205.8,401.7z"/>
</g>
</svg>
