<?xml version="1.0" encoding="utf-8"?>
<!-- Generator: Adobe Illustrator 21.1.0, SVG Export Plug-In . SVG Version: 6.00 Build 0)  -->
<svg version="1.1" id="Capa_1" xmlns="http://www.w3.org/2000/svg" xmlns:xlink="http://www.w3.org/1999/xlink" x="0px" y="0px"
	 viewBox="168.5 358.5 77 77" style="enable-background:new 168.5 358.5 77 77;" xml:space="preserve">
<style type="text/css">
	.st0{fill:#354A9E;}
</style>
<g>
	<path class="st0" d="M245.5,395.4c0,0-0.1-2.6-0.5-5.3c-1.5-8.1-5.5-15.4-11.5-21c-7.1-6.8-16.6-10.6-26.3-10.6
		c-1.1,0-2.1,0-3.2,0.1c-10.2,0.8-19.6,5.5-26.2,13.3c-6.7,7.8-9.9,17.7-9.1,28c0.5,6.1,2.4,12.1,5.7,17.3c1.7,2.8,1.7,6.3,0,9.1
		l-3.6,6c-0.3,0.5-0.4,1-0.2,1.6c0.1,0.5,0.5,1,0.9,1.3c0.3,0.2,0.7,0.3,1.1,0.3H206c0.1,0,0.2,0,0.3,0c21,0,38.5-16.9,39.1-37.9
		L245.5,395.4z M230.6,421.7c-6.6,6.3-15.1,9.7-24.2,9.7c-0.1,0-0.2,0-0.4,0h-30l1.7-2.9c2.5-4.1,2.5-9.3,0-13.4
		c-9.9-16.1-4.9-37.3,11.2-47.2c7.8-4.8,17-6.3,25.9-4.2c8.9,2.1,16.5,7.6,21.3,15.4c3.4,5.6,5.2,11.9,5.1,18.5
		C241.1,406.8,237.2,415.3,230.6,421.7z"/>
	<path class="st0" d="M208.6,381.7c-4.4-0.1-8.5,1.7-11.4,4.8l3.9,4.2c2-2,4.6-3.1,7.4-3.2c3.3,0,5.2,1.5,5.2,4.1
		c0,3.1-2.9,4.7-8.9,5l1,7.3h4.3l0.5-3l0.4-0.1c6.2-1.1,9.2-4.2,9.2-9.4C220.1,385.5,215.7,381.7,208.6,381.7z"/>
	<rect x="204.2" y="409" class="st0" width="7" height="6.9"/>
</g>
</svg>
