<?xml version="1.0" encoding="utf-8"?>
<!-- Generator: Adobe Illustrator 21.1.0, SVG Export Plug-In . SVG Version: 6.00 Build 0)  -->
<svg version="1.1" id="Слой_1" xmlns="http://www.w3.org/2000/svg" xmlns:xlink="http://www.w3.org/1999/xlink" x="0px" y="0px"
	 viewBox="0 0 112 66" style="enable-background:new 0 0 112 66;" xml:space="preserve">
<style type="text/css">
	.st0{fill:#354A9E;}
	.st1{fill:#1B264D;}
</style>
<g>
	<g>
		<path class="st0" d="M106.2,33.1c-0.3-3.1-1.3-5.6-3.1-7.4c-1.7-1.8-3.8-3.1-6.1-4c-2.2-0.8-5-1.6-8.3-2.4
			c-2.4-0.6-4.3-1.1-5.6-1.5c-1.3-0.4-2.3-1-3.2-1.7c-0.7-0.6-1.1-1.3-1.2-2.2c-0.1-1.4,0.4-2.5,1.6-3.4c1.3-0.9,3.4-1.4,6.4-1.4
			c1.8,0,3.8,0.3,5.8,0.8c2,0.6,4,1.4,5.9,2.4l1.5,1.2l2.2-8.8l-0.8-0.5c-2.1-1.3-4.5-2.3-7.2-3c-2.7-0.7-5.5-1-8.2-1
			c-3.9,0-7.3,0.6-9.9,1.8c-2.7,1.2-4.7,2.9-5.9,5.1c-1.2,2.1-1.7,4.5-1.5,7.1c0.3,3.1,1.3,5.6,3.1,7.5c1.7,1.8,3.8,3.1,6,4
			c2.2,0.8,5,1.6,8.4,2.4c2.4,0.6,4.3,1.1,5.6,1.5c1.3,0.4,2.3,1,3.2,1.7c0.7,0.6,1.1,1.4,1.2,2.3c0.1,1.3-0.4,2.4-1.6,3.2
			c-1.3,0.9-3.5,1.4-6.5,1.4c-2.5,0-5-0.4-7.6-1.3C78,36.1,75.8,35,74,33.7l-1.1-0.8l-2.9,8.2l0.6,0.5c2.1,1.7,4.8,3,8.1,4
			c3.3,1,6.7,1.5,10.1,1.5c3.9,0,7.3-0.6,9.9-1.8c2.7-1.2,4.7-2.9,5.9-5C105.9,38.1,106.5,35.7,106.2,33.1z"/>
		<g>
			<polygon class="st0" points="0,0.3 23,47 29.2,33.2 12.4,0.3 			"/>
			<polygon class="st0" points="22.7,0.3 45.7,47 51.9,33.2 35.1,0.3 			"/>
			<path class="st0" d="M57.8,15.1l6.7-14.8H46.5C56.7,4.9,57.8,15.1,57.8,15.1z"/>
		</g>
	</g>
	<g>
		<g>
			<path class="st1" d="M10.7,65.6L6.8,54.2h2.1l2.7,8.4l2.8-8.4h1.7l2.8,8.4l2.7-8.4h2.1l-3.9,11.4H18l-2.8-8.1l-2.8,8.1H10.7z"/>
			<path class="st1" d="M29.3,65.7c-1.2,0-2.3-0.4-3.1-1.2c-0.8-0.8-1.3-1.9-1.3-3.2c0-1.2,0.4-2.3,1.2-3.1c0.8-0.9,1.8-1.3,3-1.3
				c1.3,0,2.3,0.4,3,1.3c0.7,0.9,1.1,2,1.1,3.3c0,0.2,0,0.4,0,0.5h-6.3c0.1,0.7,0.4,1.2,0.8,1.6c0.4,0.4,1,0.6,1.6,0.6
				c0.8,0,1.6-0.3,2.3-1l1.1,1C31.9,65.2,30.8,65.7,29.3,65.7z M26.9,60.7h4.4c-0.1-0.7-0.3-1.2-0.7-1.6c-0.4-0.4-0.9-0.6-1.5-0.6
				c-0.6,0-1.1,0.2-1.5,0.6C27.2,59.5,27,60,26.9,60.7z"/>
			<path class="st1" d="M40,65.7c-1.2,0-2.1-0.5-2.9-1.5v1.3h-2V53.8h2v4.7c0.8-1.1,1.7-1.6,2.9-1.6c1.1,0,2,0.4,2.8,1.2
				c0.8,0.8,1.2,1.9,1.2,3.3c0,1.3-0.4,2.4-1.2,3.2C42,65.3,41.1,65.7,40,65.7z M39.6,64c0.7,0,1.3-0.3,1.7-0.8
				c0.5-0.5,0.7-1.2,0.7-2c0-0.8-0.2-1.5-0.7-2s-1-0.8-1.7-0.8c-0.7,0-1.3,0.3-1.8,0.8c-0.5,0.5-0.7,1.2-0.7,2c0,0.8,0.2,1.5,0.7,2
				C38.3,63.8,38.9,64,39.6,64z"/>
			<path class="st1" d="M50.2,65.7c-1.8,0-3.4-0.6-4.7-1.8l1.2-1.4c1.1,1,2.3,1.5,3.6,1.5c0.6,0,1.1-0.1,1.5-0.4
				c0.4-0.3,0.5-0.6,0.5-1.1c0-0.4-0.2-0.8-0.5-1c-0.3-0.3-1-0.5-2-0.7c-1.3-0.3-2.3-0.7-2.9-1.2c-0.6-0.5-0.9-1.2-0.9-2.2
				c0-1,0.4-1.8,1.1-2.4c0.7-0.6,1.6-0.9,2.8-0.9c1.5,0,2.9,0.5,4.1,1.4L52.8,57c-1-0.8-2.1-1.2-3.1-1.2c-0.6,0-1,0.1-1.3,0.4
				c-0.3,0.3-0.5,0.6-0.5,1c0,0.4,0.2,0.8,0.5,1c0.4,0.2,1.1,0.5,2.1,0.8c1.2,0.3,2.2,0.7,2.8,1.2c0.6,0.5,0.9,1.2,0.9,2.1
				c0,1-0.4,1.9-1.1,2.5C52.3,65.4,51.4,65.7,50.2,65.7z"/>
			<path class="st1" d="M60.2,65.7c-1.2,0-2.3-0.4-3.1-1.2c-0.8-0.8-1.3-1.9-1.3-3.2c0-1.2,0.4-2.3,1.2-3.1c0.8-0.9,1.8-1.3,3-1.3
				c1.3,0,2.3,0.4,3,1.3c0.7,0.9,1.1,2,1.1,3.3c0,0.2,0,0.4,0,0.5h-6.3c0.1,0.7,0.4,1.2,0.8,1.6c0.4,0.4,1,0.6,1.6,0.6
				c0.8,0,1.6-0.3,2.3-1l1.1,1C62.8,65.2,61.7,65.7,60.2,65.7z M57.8,60.7h4.4c-0.1-0.7-0.3-1.2-0.7-1.6c-0.4-0.4-0.9-0.6-1.5-0.6
				c-0.6,0-1.1,0.2-1.5,0.6C58.1,59.5,57.9,60,57.8,60.7z"/>
			<path class="st1" d="M66.1,65.5V57h2v1.9c0.6-1.5,1.6-2.1,3-2.1v2.1h-0.1c-0.9,0-1.6,0.3-2.1,0.9c-0.5,0.6-0.8,1.4-0.8,2.5v3.2
				H66.1z"/>
			<path class="st1" d="M75.4,65.6L71.9,57H74l2.3,6.3l2.3-6.3h2l-3.5,8.6H75.4z"/>
			<path class="st1" d="M82.4,55.7v-1.9h2.1v1.9H82.4z M82.4,65.5V57h2v8.5H82.4z"/>
			<path class="st1" d="M90.9,65.7c-1.3,0-2.3-0.4-3.1-1.3c-0.8-0.9-1.3-1.9-1.3-3.1c0-1.2,0.4-2.3,1.3-3.1c0.8-0.9,1.9-1.3,3.2-1.3
				c1.4,0,2.5,0.5,3.4,1.5l-1.2,1.3c-0.7-0.7-1.4-1.1-2.2-1.1c-0.7,0-1.3,0.3-1.8,0.8c-0.5,0.5-0.7,1.2-0.7,1.9c0,0.8,0.2,1.4,0.7,2
				c0.5,0.5,1.1,0.8,1.8,0.8c0.8,0,1.5-0.4,2.2-1.1l1.2,1.2c-0.5,0.5-1,0.9-1.5,1.2C92.3,65.6,91.7,65.7,90.9,65.7z"/>
			<path class="st1" d="M100.1,65.7c-1.2,0-2.3-0.4-3.1-1.2c-0.8-0.8-1.3-1.9-1.3-3.2c0-1.2,0.4-2.3,1.2-3.1c0.8-0.9,1.8-1.3,3-1.3
				c1.3,0,2.3,0.4,3,1.3c0.7,0.9,1.1,2,1.1,3.3c0,0.2,0,0.4,0,0.5h-6.3c0.1,0.7,0.4,1.2,0.8,1.6c0.4,0.4,1,0.6,1.6,0.6
				c0.8,0,1.6-0.3,2.3-1l1.1,1C102.7,65.2,101.5,65.7,100.1,65.7z M97.6,60.7h4.4c-0.1-0.7-0.3-1.2-0.7-1.6
				c-0.4-0.4-0.9-0.6-1.5-0.6c-0.6,0-1.1,0.2-1.5,0.6C98,59.5,97.7,60,97.6,60.7z"/>
			<path class="st1" d="M108.8,65.7c-1.3,0-2.5-0.4-3.6-1.3l0.9-1.3c0.9,0.7,1.9,1,2.8,1c0.4,0,0.7-0.1,1-0.3
				c0.2-0.2,0.3-0.4,0.3-0.7c0-0.2,0-0.3-0.1-0.4c-0.1-0.1-0.2-0.2-0.4-0.3c-0.2-0.1-0.4-0.2-0.5-0.2c-0.1,0-0.4-0.1-0.7-0.2l-0.1,0
				c-0.3-0.1-0.6-0.2-0.8-0.3s-0.4-0.2-0.7-0.3c-0.3-0.1-0.5-0.3-0.6-0.5c-0.2-0.2-0.3-0.4-0.4-0.6c-0.1-0.3-0.2-0.5-0.2-0.9
				c0-0.8,0.3-1.4,0.9-1.9c0.6-0.5,1.3-0.7,2.2-0.7c1.1,0,2.2,0.3,3.1,1l-0.8,1.4c-0.9-0.5-1.7-0.8-2.4-0.8c-0.4,0-0.7,0.1-0.9,0.2
				c-0.2,0.2-0.3,0.4-0.3,0.6c0,0.2,0.1,0.3,0.3,0.5c0.2,0.2,0.4,0.3,0.6,0.3c0.2,0.1,0.5,0.2,0.9,0.3c0,0,0,0,0.1,0
				c0,0,0.1,0,0.1,0c0.4,0.1,0.7,0.2,1,0.3c0.3,0.1,0.5,0.3,0.8,0.5c0.3,0.2,0.5,0.4,0.7,0.7c0.2,0.3,0.2,0.6,0.2,1
				c0,0.9-0.3,1.5-0.9,2C110.5,65.5,109.8,65.7,108.8,65.7z"/>
		</g>
	</g>
</g>
</svg>
