<svg width="112" height="40" viewBox="0 0 112 40" fill="none" xmlns="http://www.w3.org/2000/svg">
<path d="M58.193 17.048H55.057V15.2H63.597V17.048H60.461V25H58.193V17.048ZM71.0791 22.9H66.5291L65.6611 25H63.3371L67.7051 15.2H69.9451L74.3271 25H71.9471L71.0791 22.9ZM70.3651 21.178L68.8111 17.426L67.2571 21.178H70.3651ZM81.312 25L78.946 21.598L76.622 25H74.018L77.644 20.016L74.2 15.2H76.776L79.03 18.378L81.242 15.2H83.692L80.276 19.932L83.93 25H81.312ZM91.6987 19.946H93.7707V23.922C93.2387 24.3233 92.6227 24.6313 91.9227 24.846C91.2227 25.0607 90.518 25.168 89.8087 25.168C88.7913 25.168 87.8767 24.9533 87.0647 24.524C86.2527 24.0853 85.6133 23.4833 85.1467 22.718C84.6893 21.9433 84.4606 21.0707 84.4606 20.1C84.4606 19.1293 84.6893 18.2613 85.1467 17.496C85.6133 16.7213 86.2573 16.1193 87.0787 15.69C87.9 15.2513 88.824 15.032 89.8507 15.032C90.7093 15.032 91.4887 15.1767 92.1887 15.466C92.8887 15.7553 93.4767 16.1753 93.9527 16.726L92.4967 18.07C91.7967 17.3327 90.952 16.964 89.9627 16.964C89.3373 16.964 88.782 17.0947 88.2967 17.356C87.8113 17.6173 87.4333 17.986 87.1627 18.462C86.892 18.938 86.7567 19.484 86.7567 20.1C86.7567 20.7067 86.892 21.248 87.1627 21.724C87.4333 22.2 87.8067 22.5733 88.2827 22.844C88.768 23.1053 89.3187 23.236 89.9347 23.236C90.588 23.236 91.176 23.096 91.6987 22.816V19.946ZM96.1774 15.2H98.4454V25H96.1774V15.2ZM107.693 19.946H109.765V23.922C109.233 24.3233 108.617 24.6313 107.917 24.846C107.217 25.0607 106.513 25.168 105.803 25.168C104.786 25.168 103.871 24.9533 103.059 24.524C102.247 24.0853 101.608 23.4833 101.141 22.718C100.684 21.9433 100.455 21.0707 100.455 20.1C100.455 19.1293 100.684 18.2613 101.141 17.496C101.608 16.7213 102.252 16.1193 103.073 15.69C103.895 15.2513 104.819 15.032 105.845 15.032C106.704 15.032 107.483 15.1767 108.183 15.466C108.883 15.7553 109.471 16.1753 109.947 16.726L108.491 18.07C107.791 17.3327 106.947 16.964 105.957 16.964C105.332 16.964 104.777 17.0947 104.291 17.356C103.806 17.6173 103.428 17.986 103.157 18.462C102.887 18.938 102.751 19.484 102.751 20.1C102.751 20.7067 102.887 21.248 103.157 21.724C103.428 22.2 103.801 22.5733 104.277 22.844C104.763 23.1053 105.313 23.236 105.929 23.236C106.583 23.236 107.171 23.096 107.693 22.816V19.946Z" fill="#FDFDFD"/>
<path d="M11.6513 27.8173L8.47215 23.6147C7.34409 25.3157 6.43906 29.2702 7.34408 32.1199C8.61518 36.1224 12.9845 38.1001 14.4202 38.9241C17.2096 40.5251 20.0947 39.9915 21.1886 39.5245C23.8208 38.0569 29.844 34.7015 32.8796 33.0205C35.9151 31.3394 36.8791 28.8512 36.9816 27.8173V13.4083L36.7765 16.2101L34.2127 22.2138L29.803 27.2169L21.1886 30.2187C17.2686 31.0419 15.1778 30.5457 11.6513 27.8173Z" fill="url(#paint0_linear)"/>
<path d="M26.2137 19.412C18.3172 28.4176 8.47217 23.5146 8.47217 23.5146C10.8309 29.4182 18.4368 33.821 28.7775 28.3176C37.8021 23.5146 36.9817 15.1948 36.9817 13.6084C36.9817 10.7267 35.1357 8.67204 34.2127 8.00496C33.2898 7.33788 26.2137 3.60223 26.2137 3.60223C26.2137 3.60223 34.1102 10.4065 26.2137 19.412Z" fill="url(#paint1_linear)"/>
<path d="M25.3506 12.1827L28.5103 16.11C29.6384 14.4089 30.5628 10.7298 29.6578 7.88007C28.3867 3.87759 24.0174 1.89989 22.5817 1.07586C19.7923 -0.525137 16.9071 0.00852776 15.8132 0.475483C13.1811 1.94306 7.15785 5.29847 4.12231 6.97952C1.08677 8.66056 0.122774 11.1488 0.0202217 12.1827V26.5917L0.225325 23.7899L2.78913 17.7862L7.19887 12.7831L15.8132 9.78125L25.3506 12.1827Z" fill="url(#paint2_linear)"/>
<path d="M10.7882 20.588C18.6847 11.5824 28.5103 16.11 28.5103 16.11C26.1516 10.2063 18.565 6.17903 8.22435 11.6824C-0.800236 16.4854 0.0201817 24.8052 0.0201817 26.3916C0.0201817 29.2734 1.86612 31.328 2.78909 31.995C3.71206 32.6621 10.5636 36.5226 10.5636 36.5226C10.5636 36.5226 2.89164 29.5935 10.7882 20.588Z" fill="url(#paint3_linear)"/>
<defs>
<linearGradient id="paint0_linear" x1="37.5351" y1="29.018" x2="12.2895" y2="35.9317" gradientUnits="userSpaceOnUse">
<stop stop-color="#B4D57C"/>
<stop offset="1" stop-color="#86BE26"/>
</linearGradient>
<linearGradient id="paint1_linear" x1="38.4581" y1="6.00372" x2="13.6445" y2="35.7244" gradientUnits="userSpaceOnUse">
<stop offset="0.376514" stop-color="#B4D57C"/>
<stop offset="1" stop-color="#B4D57C"/>
</linearGradient>
<linearGradient id="paint2_linear" x1="24.1006" y1="6.10378" x2="-2.12924" y2="18.3989" gradientUnits="userSpaceOnUse">
<stop stop-color="#B4D57C"/>
<stop offset="0.684968" stop-color="#86BE26"/>
</linearGradient>
<linearGradient id="paint3_linear" x1="1.84671" y1="30.4189" x2="23.8701" y2="12.2792" gradientUnits="userSpaceOnUse">
<stop stop-color="#B4D57C"/>
<stop offset="0.876654" stop-color="#86BE26"/>
</linearGradient>
</defs>
</svg>
