<svg width="131" height="49" viewBox="0 0 131 49" fill="none" xmlns="http://www.w3.org/2000/svg">
<path d="M67.5419 20.3905H63.6968V18.2027H74.168V20.3905H70.3228V29.8049H67.5419V20.3905Z" fill="#292F42"/>
<path d="M83.342 27.3187H77.7631L76.6988 29.8049H73.8493L79.2051 18.2027H81.9516L87.3245 29.8049H84.4063L83.342 27.3187ZM82.4666 25.28L80.5612 20.838L78.6557 25.28H82.4666Z" fill="#292F42"/>
<path d="M95.8889 29.8049L92.9879 25.7773L90.1384 29.8049H86.9455L91.3915 23.9043L87.1687 18.2027H90.3272L93.0909 21.9651L95.8031 18.2027H98.8071L94.6187 23.8049L99.0989 29.8049H95.8889Z" fill="#292F42"/>
<path d="M108.624 23.8215H111.165V28.5286C110.513 29.0038 109.757 29.3684 108.899 29.6226C108.041 29.8767 107.177 30.0038 106.307 30.0038C105.06 30.0038 103.938 29.7496 102.942 29.2414C101.947 28.722 101.163 28.0093 100.591 27.1032C100.03 26.1861 99.7496 25.153 99.7496 24.0038C99.7496 22.8546 100.03 21.827 100.591 20.9209C101.163 20.0038 101.953 19.2911 102.96 18.7828C103.967 18.2635 105.1 18.0038 106.358 18.0038C107.411 18.0038 108.367 18.1751 109.225 18.5176C110.083 18.8601 110.804 19.3574 111.388 20.0093L109.603 21.6005C108.745 20.7275 107.709 20.2911 106.496 20.2911C105.729 20.2911 105.048 20.4458 104.453 20.7552C103.858 21.0646 103.395 21.501 103.063 22.0646C102.731 22.6281 102.565 23.2745 102.565 24.0038C102.565 24.722 102.731 25.3629 103.063 25.9264C103.395 26.49 103.852 26.932 104.436 27.2524C105.031 27.5618 105.706 27.7165 106.461 27.7165C107.263 27.7165 107.984 27.5507 108.624 27.2193V23.8215Z" fill="#292F42"/>
<path d="M114.116 18.2027H116.897V29.8049H114.116V18.2027Z" fill="#292F42"/>
<path d="M128.236 23.8215H130.776V28.5286C130.124 29.0038 129.369 29.3684 128.51 29.6226C127.652 29.8767 126.788 30.0038 125.918 30.0038C124.671 30.0038 123.55 29.7496 122.554 29.2414C121.558 28.722 120.774 28.0093 120.202 27.1032C119.641 26.1861 119.361 25.153 119.361 24.0038C119.361 22.8546 119.641 21.827 120.202 20.9209C120.774 20.0038 121.564 19.2911 122.571 18.7828C123.578 18.2635 124.711 18.0038 125.97 18.0038C127.023 18.0038 127.978 18.1751 128.837 18.5176C129.695 18.8601 130.416 19.3574 131 20.0093L129.214 21.6005C128.356 20.7275 127.32 20.2911 126.107 20.2911C125.341 20.2911 124.66 20.4458 124.065 20.7552C123.469 21.0646 123.006 21.501 122.674 22.0646C122.342 22.6281 122.176 23.2745 122.176 24.0038C122.176 24.722 122.342 25.3629 122.674 25.9264C123.006 26.49 123.464 26.932 124.047 27.2524C124.642 27.5618 125.318 27.7165 126.073 27.7165C126.874 27.7165 127.595 27.5507 128.236 27.2193V23.8215Z" fill="#292F42"/>
<path d="M14.0008 33.3836L10.1798 28.3405C8.82396 30.3818 7.7362 35.1271 8.82395 38.5468C10.3517 43.3498 15.6031 45.723 17.3287 46.7119C20.6813 48.6331 24.149 47.9927 25.4637 47.4323C28.6273 45.6712 35.8667 41.6447 39.5151 39.6275C43.1635 37.6102 44.3221 34.6244 44.4454 33.3836V16.0929L44.1989 19.455L41.1174 26.6594L35.8174 32.6632L25.4637 36.2654C20.7522 37.2531 18.2394 36.6577 14.0008 33.3836Z" fill="url(#paint0_linear)"/>
<path d="M31.5037 23.2951C22.0129 34.1018 10.1802 28.2182 10.1802 28.2182C13.0151 35.3026 22.1567 40.5858 34.5852 33.9818C45.4318 28.2182 44.4458 18.2345 44.4458 16.3308C44.4458 12.8727 42.2271 10.4071 41.1178 9.60664C40.0085 8.80614 31.5037 4.32336 31.5037 4.32336C31.5037 4.32336 40.9946 12.4884 31.5037 23.2951Z" fill="url(#paint1_linear)"/>
<path d="M30.4672 14.6197L34.2648 19.3324C35.6207 17.2911 36.7318 12.8762 35.644 9.45648C34.1163 4.6535 28.8648 2.28026 27.1392 1.29142C23.7866 -0.629776 20.319 0.010622 19.0042 0.570969C15.8406 2.33206 8.6013 6.35856 4.95288 8.37581C1.30445 10.3931 0.145832 13.3789 0.0225754 14.6197V31.9104L0.269089 28.5483L3.35052 21.3438L8.6506 15.3401L19.0042 11.7379L30.4672 14.6197Z" fill="url(#paint2_linear)"/>
<path d="M12.9664 24.7052C22.4572 13.8984 34.2666 19.3316 34.2666 19.3316C31.4317 12.2472 22.3134 7.41442 9.88494 14.0185C-0.961731 19.7821 0.0243301 29.7658 0.0243301 31.6695C0.0243301 35.1276 2.24297 37.5932 3.35229 38.3937C4.46161 39.1941 12.6965 43.8268 12.6965 43.8268C12.6965 43.8268 3.47554 35.5119 12.9664 24.7052Z" fill="url(#paint3_linear)"/>
<defs>
<linearGradient id="paint0_linear" x1="45.1106" y1="34.8245" x2="14.7746" y2="43.1454" gradientUnits="userSpaceOnUse">
<stop stop-color="#B4D57C"/>
<stop offset="1" stop-color="#86BE26"/>
</linearGradient>
<linearGradient id="paint1_linear" x1="46.2203" y1="7.20515" x2="16.4524" y2="42.9164" gradientUnits="userSpaceOnUse">
<stop offset="0.376514" stop-color="#C4E58B"/>
<stop offset="1" stop-color="#B4D57C"/>
</linearGradient>
<linearGradient id="paint2_linear" x1="28.9648" y1="7.32492" x2="-2.54287" y2="22.1174" gradientUnits="userSpaceOnUse">
<stop stop-color="#B4D57C"/>
<stop offset="0.684968" stop-color="#86BE26"/>
</linearGradient>
<linearGradient id="paint3_linear" x1="2.21963" y1="36.5022" x2="28.6558" y2="14.6936" gradientUnits="userSpaceOnUse">
<stop stop-color="#C4E58B"/>
<stop offset="0.876654" stop-color="#86BE26"/>
</linearGradient>
</defs>
</svg>
