<svg width="56" height="55" viewBox="0 0 56 55" fill="none" xmlns="http://www.w3.org/2000/svg">
<g clip-path="url(#clip0)">
<path d="M48.3419 24.1985C48.3415 23.6843 47.9502 23.2464 47.419 23.166L44.7024 22.7545L43.3034 19.5286L44.9183 17.3999C45.2342 16.9837 45.1865 16.4097 44.8061 16.0461L39.9526 11.4088C39.5721 11.0452 38.9715 11.0002 38.5367 11.3025L36.3124 12.8474L32.936 11.5116L32.5037 8.91563C32.4192 8.40801 31.9612 8.03436 31.4235 8.03436H28C27.396 8.03436 26.9062 8.50255 26.9062 9.08012C26.9062 9.6577 27.396 10.1259 28 10.1259H30.4903L30.872 12.4186C30.9318 12.7778 31.1825 13.0814 31.534 13.2205L36.0418 15.0038C36.3933 15.1428 36.7952 15.0973 37.1027 14.8836L39.067 13.5194L42.5995 16.8946L41.1733 18.7745C40.95 19.0689 40.9026 19.4531 41.0483 19.7891L42.9165 24.0964C43.0621 24.4323 43.3799 24.6718 43.7557 24.7287L46.1547 25.0921L46.1568 29.867L43.7593 30.232C43.3836 30.2892 43.0661 30.5289 42.9206 30.865L41.0553 35.175C40.9099 35.511 40.9574 35.8952 41.181 36.1894L42.6079 38.0674L39.0779 41.4449L37.1116 40.0814C36.8037 39.8679 36.4019 39.8226 36.0505 39.9619L31.5456 41.7479C31.1942 41.8872 30.9437 42.1911 30.8842 42.5503L30.504 44.8451H28C27.396 44.8451 26.9062 45.3133 26.9062 45.8908C26.9062 46.4683 27.396 46.9366 28 46.9366H31.4382C31.9762 46.9366 32.4343 46.5625 32.5185 46.0544L32.949 43.4555L36.323 42.1179L38.5494 43.662C38.9846 43.9639 39.5851 43.9185 39.9652 43.5547L44.8153 38.9142C45.1956 38.5504 45.2426 37.9764 44.9267 37.5605L43.3108 35.4337L44.7079 32.2055L47.4229 31.7922C47.954 31.7113 48.345 31.2732 48.3447 30.759L48.3419 24.1985Z" fill="#86BE26"/>
<path d="M27.9901 34.3286C27.3906 34.3336 26.9062 34.8 26.9062 35.3744C26.9062 35.9519 27.396 36.4202 28 36.4202C28.014 36.4202 28.0365 36.4197 28.0506 36.4192C28.6543 36.397 29.1247 35.9113 29.1014 35.334C29.0786 34.7645 28.5818 34.322 27.9901 34.3286Z" fill="#86BE26"/>
<path d="M28 18.5527C27.396 18.5527 26.9062 19.0209 26.9062 19.5985C26.9062 20.1761 27.396 20.6443 28 20.6443C31.9461 20.6443 35.1566 23.7139 35.1566 27.4869C35.1566 30.0335 33.6915 32.3544 31.3332 33.5437C30.7989 33.8131 30.5942 34.4457 30.876 34.9565C31.0719 35.3118 31.4515 35.5147 31.8444 35.5147C32.0164 35.5147 32.191 35.4758 32.3537 35.3937C35.4319 33.8413 37.3441 30.8117 37.3441 27.4869C37.3441 22.5606 33.1524 18.5527 28 18.5527Z" fill="#86BE26"/>
<path d="M6.34375 47.1466H1.09375C0.489781 47.1466 0 47.6149 0 48.1924V53.212C0 53.7895 0.489781 54.2578 1.09375 54.2578H6.34375C6.94772 54.2578 7.4375 53.7895 7.4375 53.212V48.1924C7.4375 47.6149 6.94772 47.1466 6.34375 47.1466ZM5.25 52.1663H2.1875V49.2381H5.25V52.1663Z" fill="#86BE26"/>
<path d="M54.9062 47.1466H49.6562C49.0523 47.1466 48.5625 47.6149 48.5625 48.1924V53.212C48.5625 53.7895 49.0523 54.2578 49.6562 54.2578H54.9062C55.5102 54.2578 56 53.7895 56 53.212V48.1924C56 47.6149 55.5102 47.1466 54.9062 47.1466ZM53.8125 52.1663H50.75V49.2381H53.8125V52.1663Z" fill="#86BE26"/>
<path d="M6.34375 0.714783H1.09375C0.489781 0.714783 0 1.18297 0 1.76054V6.7802C0 7.35777 0.489781 7.82596 1.09375 7.82596H6.34375C6.94772 7.82596 7.4375 7.35777 7.4375 6.7802V1.76054C7.4375 1.18297 6.94772 0.714783 6.34375 0.714783ZM5.25 5.73444H2.1875V2.8063H5.25V5.73444Z" fill="#86BE26"/>
<path d="M54.9062 0.714783H49.6562C49.0523 0.714783 48.5625 1.18297 48.5625 1.76054V6.7802C48.5625 7.35777 49.0523 7.82596 49.6562 7.82596H54.9062C55.5102 7.82596 56 7.35777 56 6.7802V1.76054C56 1.18297 55.5102 0.714783 54.9062 0.714783ZM53.8125 5.73444H50.75V2.8063H53.8125V5.73444Z" fill="#86BE26"/>
<path d="M52.2812 41.246C51.6773 41.246 51.1875 41.7143 51.1875 42.2918V43.3376C51.1875 43.915 51.6773 44.3833 52.2812 44.3833C52.8852 44.3833 53.375 43.915 53.375 43.3376V42.2918C53.375 41.7143 52.8852 41.246 52.2812 41.246Z" fill="#86BE26"/>
<path d="M52.2812 36.0173C51.6773 36.0173 51.1875 36.4856 51.1875 37.063V38.1088C51.1875 38.6863 51.6773 39.1546 52.2812 39.1546C52.8852 39.1546 53.375 38.6863 53.375 38.1088V37.063C53.375 36.4856 52.8852 36.0173 52.2812 36.0173Z" fill="#86BE26"/>
<path d="M52.2812 10.7564C51.6773 10.7564 51.1875 11.2246 51.1875 11.8022V11.9638C51.1875 12.5414 51.6773 13.0096 52.2812 13.0096C52.8852 13.0096 53.375 12.5414 53.375 11.9638V11.8022C53.375 11.2246 52.8852 10.7564 52.2812 10.7564Z" fill="#86BE26"/>
<path d="M52.2812 30.7885C51.6773 30.7885 51.1875 31.2567 51.1875 31.8342V32.88C51.1875 33.4574 51.6773 33.9257 52.2812 33.9257C52.8852 33.9257 53.375 33.4574 53.375 32.88V31.8342C53.375 31.2567 52.8852 30.7885 52.2812 30.7885Z" fill="#86BE26"/>
<path d="M52.2812 15.1021C51.6773 15.1021 51.1875 15.5702 51.1875 16.1478V17.1936C51.1875 17.7711 51.6773 18.2393 52.2812 18.2393C52.8852 18.2393 53.375 17.7711 53.375 17.1936V16.1478C53.375 15.5702 52.8852 15.1021 52.2812 15.1021Z" fill="#86BE26"/>
<path d="M52.2812 25.5596C51.6773 25.5596 51.1875 26.0278 51.1875 26.6054V27.6512C51.1875 28.2286 51.6773 28.6969 52.2812 28.6969C52.8852 28.6969 53.375 28.2286 53.375 27.6512V26.6054C53.375 26.0278 52.8852 25.5596 52.2812 25.5596Z" fill="#86BE26"/>
<path d="M52.2812 20.3309C51.6773 20.3309 51.1875 20.7991 51.1875 21.3766V22.4224C51.1875 23 51.6773 23.4682 52.2812 23.4682C52.8852 23.4682 53.375 23 53.375 22.4224V21.3766C53.375 20.7991 52.8852 20.3309 52.2812 20.3309Z" fill="#86BE26"/>
<path d="M3.71875 25.5596C3.11478 25.5596 2.625 26.0278 2.625 26.6054V27.6512C2.625 28.2286 3.11478 28.6969 3.71875 28.6969C4.32272 28.6969 4.8125 28.2286 4.8125 27.6512V26.6054C4.8125 26.0278 4.32272 25.5596 3.71875 25.5596Z" fill="#86BE26"/>
<path d="M3.71875 30.7885C3.11478 30.7885 2.625 31.2567 2.625 31.8342V32.88C2.625 33.4574 3.11478 33.9257 3.71875 33.9257C4.32272 33.9257 4.8125 33.4574 4.8125 32.88V31.8342C4.8125 31.2567 4.32272 30.7885 3.71875 30.7885Z" fill="#86BE26"/>
<path d="M3.71875 10.7564C3.11478 10.7564 2.625 11.2246 2.625 11.8022V11.9638C2.625 12.5414 3.11478 13.0096 3.71875 13.0096C4.32272 13.0096 4.8125 12.5414 4.8125 11.9638V11.8022C4.8125 11.2246 4.32272 10.7564 3.71875 10.7564Z" fill="#86BE26"/>
<path d="M3.71875 20.3309C3.11478 20.3309 2.625 20.7991 2.625 21.3766V22.4224C2.625 23 3.11478 23.4682 3.71875 23.4682C4.32272 23.4682 4.8125 23 4.8125 22.4224V21.3766C4.8125 20.7991 4.32272 20.3309 3.71875 20.3309Z" fill="#86BE26"/>
<path d="M3.71875 36.0173C3.11478 36.0173 2.625 36.4856 2.625 37.063V38.1088C2.625 38.6863 3.11478 39.1546 3.71875 39.1546C4.32272 39.1546 4.8125 38.6863 4.8125 38.1088V37.063C4.8125 36.4856 4.32272 36.0173 3.71875 36.0173Z" fill="#86BE26"/>
<path d="M3.71875 15.1021C3.11478 15.1021 2.625 15.5702 2.625 16.1478V17.1936C2.625 17.7711 3.11478 18.2393 3.71875 18.2393C4.32272 18.2393 4.8125 17.7711 4.8125 17.1936V16.1478C4.8125 15.5702 4.32272 15.1021 3.71875 15.1021Z" fill="#86BE26"/>
<path d="M3.71875 41.246C3.11478 41.246 2.625 41.7143 2.625 42.2918V43.3376C2.625 43.915 3.11478 44.3833 3.71875 44.3833C4.32272 44.3833 4.8125 43.915 4.8125 43.3376V42.2918C4.8125 41.7143 4.32272 41.246 3.71875 41.246Z" fill="#86BE26"/>
<path d="M34.4785 49.7391H33.3848C32.7808 49.7391 32.291 50.2074 32.291 50.7849C32.291 51.3624 32.7808 51.8307 33.3848 51.8307H34.4785C35.0825 51.8307 35.5723 51.3624 35.5723 50.7849C35.5723 50.2074 35.0825 49.7391 34.4785 49.7391Z" fill="#86BE26"/>
<path d="M23.541 49.7391H22.4473C21.8433 49.7391 21.3535 50.2074 21.3535 50.7849C21.3535 51.3624 21.8433 51.8307 22.4473 51.8307H23.541C24.145 51.8307 24.6348 51.3624 24.6348 50.7849C24.6348 50.2074 24.145 49.7391 23.541 49.7391Z" fill="#86BE26"/>
<path d="M29.0098 49.7391H27.916C27.312 49.7391 26.8223 50.2074 26.8223 50.7849C26.8223 51.3624 27.312 51.8307 27.916 51.8307H29.0098C29.6137 51.8307 30.1035 51.3624 30.1035 50.7849C30.1035 50.2074 29.6137 49.7391 29.0098 49.7391Z" fill="#86BE26"/>
<path d="M18.0723 49.7391H16.9785C16.3745 49.7391 15.8848 50.2074 15.8848 50.7849C15.8848 51.3624 16.3745 51.8307 16.9785 51.8307H18.0723C18.6762 51.8307 19.166 51.3624 19.166 50.7849C19.166 50.2074 18.6762 49.7391 18.0723 49.7391Z" fill="#86BE26"/>
<path d="M39.9473 49.7391H38.8535C38.2495 49.7391 37.7598 50.2074 37.7598 50.7849C37.7598 51.3624 38.2495 51.8307 38.8535 51.8307H39.9473C40.5512 51.8307 41.041 51.3624 41.041 50.7849C41.041 50.2074 40.5512 49.7391 39.9473 49.7391Z" fill="#86BE26"/>
<path d="M12.6035 49.7391H11.5098C10.9058 49.7391 10.416 50.2074 10.416 50.7849C10.416 51.3624 10.9058 51.8307 11.5098 51.8307H12.6035C13.2075 51.8307 13.6973 51.3624 13.6973 50.7849C13.6973 50.2074 13.2075 49.7391 12.6035 49.7391Z" fill="#86BE26"/>
<path d="M44.4913 49.7391H44.3223C43.7183 49.7391 43.2285 50.2074 43.2285 50.7849C43.2285 51.3624 43.7183 51.8307 44.3223 51.8307H44.4913C45.0952 51.8307 45.585 51.3624 45.585 50.7849C45.585 50.2074 45.0953 49.7391 44.4913 49.7391Z" fill="#86BE26"/>
<path d="M34.4785 3.30737H33.3848C32.7808 3.30737 32.291 3.77556 32.291 4.35313C32.291 4.93071 32.7807 5.3989 33.3848 5.3989H34.4785C35.0825 5.3989 35.5723 4.93071 35.5723 4.35313C35.5723 3.77556 35.0825 3.30737 34.4785 3.30737Z" fill="#86BE26"/>
<path d="M29.0098 3.30737H27.916C27.312 3.30737 26.8223 3.77556 26.8223 4.35313C26.8223 4.93071 27.3119 5.3989 27.916 5.3989H29.0098C29.6137 5.3989 30.1035 4.93071 30.1035 4.35313C30.1035 3.77556 29.6137 3.30737 29.0098 3.30737Z" fill="#86BE26"/>
<path d="M44.4913 3.30737H44.3223C43.7183 3.30737 43.2285 3.77556 43.2285 4.35313C43.2285 4.93071 43.7182 5.3989 44.3223 5.3989H44.4913C45.0952 5.3989 45.585 4.93071 45.585 4.35313C45.585 3.77556 45.0952 3.30737 44.4913 3.30737Z" fill="#86BE26"/>
<path d="M39.9473 3.30737H38.8535C38.2495 3.30737 37.7598 3.77556 37.7598 4.35313C37.7598 4.93071 38.2494 5.3989 38.8535 5.3989H39.9473C40.5512 5.3989 41.041 4.93071 41.041 4.35313C41.041 3.77556 40.5512 3.30737 39.9473 3.30737Z" fill="#86BE26"/>
<path d="M23.541 3.30737H22.4473C21.8433 3.30737 21.3535 3.77556 21.3535 4.35313C21.3535 4.93071 21.8432 5.3989 22.4473 5.3989H23.541C24.145 5.3989 24.6348 4.93071 24.6348 4.35313C24.6348 3.77556 24.145 3.30737 23.541 3.30737Z" fill="#86BE26"/>
<path d="M18.0723 3.30737H16.9785C16.3745 3.30737 15.8848 3.77556 15.8848 4.35313C15.8848 4.93071 16.3744 5.3989 16.9785 5.3989H18.0723C18.6762 5.3989 19.166 4.93071 19.166 4.35313C19.166 3.77556 18.6762 3.30737 18.0723 3.30737Z" fill="#86BE26"/>
<path d="M12.6035 3.30737H11.5098C10.9058 3.30737 10.416 3.77556 10.416 4.35313C10.416 4.93071 10.9058 5.3989 11.5098 5.3989H12.6035C13.2075 5.3989 13.6973 4.93071 13.6973 4.35313C13.6973 3.77556 13.2075 3.30737 12.6035 3.30737Z" fill="#86BE26"/>
<path d="M17.4124 23.5051C17.209 23.3106 16.9268 23.1987 16.6392 23.1987C16.3504 23.1987 16.0693 23.3106 15.8659 23.5051C15.6613 23.6996 15.5454 23.9683 15.5454 24.2444C15.5454 24.5195 15.6613 24.7893 15.8659 24.9838C16.0693 25.1783 16.3504 25.2902 16.6392 25.2902C16.9268 25.2902 17.209 25.1783 17.4124 24.9838C17.6158 24.7893 17.7329 24.5195 17.7329 24.2444C17.7329 23.9694 17.6159 23.6996 17.4124 23.5051Z" fill="#86BE26"/>
<path d="M22.3887 7.52991H17.8887C16.5965 7.52991 15.5449 8.5352 15.5449 9.77087V20.6193C15.5449 21.1969 16.0347 21.665 16.6387 21.665C17.2426 21.665 17.7324 21.1969 17.7324 20.6193V16.0753H22.5449V37.1964H17.7324V28.323C17.7324 27.7455 17.2426 27.2772 16.6387 27.2772C16.0347 27.2772 15.5449 27.7455 15.5449 28.323V38.2421C15.5449 38.3864 15.5761 38.5291 15.6367 38.6613L19.1367 46.3103C19.3108 46.691 19.7041 46.9369 20.1387 46.9369C20.5732 46.9369 20.9665 46.6909 21.1407 46.3103L24.6407 38.6613C24.7012 38.5291 24.7324 38.3864 24.7324 38.2421V9.77087C24.7325 8.5352 23.6811 7.52991 22.3887 7.52991ZM20.1388 43.282L18.3111 39.2879H21.9663L20.1388 43.282ZM22.5451 13.9838H17.7325V13.9837V9.77087C17.7325 9.68846 17.8026 9.62143 17.8888 9.62143H22.3888C22.475 9.62143 22.5451 9.68846 22.5451 9.77087V13.9838Z" fill="#86BE26"/>
</g>
<defs>
<clipPath id="clip0">
<rect width="56" height="53.543" fill="white" transform="translate(0 0.714783)"/>
</clipPath>
</defs>
</svg>
