<svg width="22" height="22" viewBox="0 0 22 22" fill="none" xmlns="http://www.w3.org/2000/svg">
<path fill-rule="evenodd" clip-rule="evenodd" d="M6.94574 16.135L1.08429 22L0 20.915L5.86145 15.05C3.25665 11.958 2.98901 7.52182 5.20306 4.13867C7.41718 0.755493 11.588 -0.7724 15.4617 0.380524C19.3355 1.53345 21.9937 5.09387 22 9.13785C22.0046 12.7036 19.939 15.9473 16.7072 17.4494C13.4753 18.9516 9.66571 18.4386 6.94574 16.135ZM6.51495 4.90213C4.49542 7.92749 4.89288 11.959 7.46429 14.5312C8.8949 15.9598 10.8331 16.7627 12.8543 16.7639C16.4902 16.7632 19.6193 14.1925 20.3279 10.6241C21.0365 7.05573 19.1273 3.48337 15.7679 2.09174C12.4084 0.700073 8.53442 1.87674 6.51495 4.90213Z" fill="white"/>
</svg>
