<svg id="Capa_1" xmlns="http://www.w3.org/2000/svg" viewBox="166.5 358.5 81 77"><style>.st0{fill:#354a9e}</style><path class="st0" d="M236.7 369.3c-7-7-16.2-10.8-26.1-10.8-.9 0-1.6.7-1.6 1.6v35.2c0 .4.2.8.5 1.1l25 24.9c.3.3.7.5 1.1.5s.8-.2 1.1-.5c7-7 10.8-16.2 10.8-26s-3.8-19.1-10.8-26zm7.5 28.1L229.6 412l-3.6-3.6 18-18c.2 1.6.3 3.2.3 4.8 0 .8 0 1.4-.1 2.2.1-.1 0-.1 0 0zm-24 5.2l21.2-21.1c.8 1.7 1.4 3.4 1.9 5.3l-19.5 19.4-3.6-3.6zm-8-26.8c0-.1 0-.1 0 0l11.5-11.5c1.6.7 3.2 1.5 4.7 2.4l-16.2 16.2v-7.1zm8.2-12.7l-8.2 8.2v-9.6c2.8.1 5.6.6 8.2 1.4zm-8.2 24.3l18.9-18.8c1.3 1 2.6 2.1 3.8 3.4l-14.7 14.6c-.6.6-.6 1.6 0 2.2.3.3.7.5 1.1.5s.8-.2 1.1-.5l14.5-14.5c1.1 1.3 2 2.8 2.9 4.2l-21.9 21.8-5.7-5.7v-7.2zm23.3 30.6l-3.7-3.7 11.8-11.7c-1.3 5.6-4 10.9-8.1 15.4z"/><path class="st0" d="M205 398v-34.6c0-.9-.7-1.6-1.6-1.6-9.9 0-19.1 3.8-26.1 10.8-7 7-10.8 16.2-10.8 26s3.8 19.1 10.8 26c7 7 16.2 10.8 26.1 10.8 9.9 0 19.1-3.8 26.1-10.8.6-.6.6-1.6 0-2.2L205 398zm-35.3.7c0-18 14.3-32.8 32.2-33.6v34l7.7 32.7c-2 .4-4.1.6-6.2.6-18.6-.1-33.7-15.1-33.7-33.7zm42.9 32.4l-6.4-27.3 19.9 19.8c-3.9 3.5-8.5 6.1-13.5 7.5z"/><path class="st0" d="M218.2 393c.3-.3.5-.7.5-1.1s-.2-.8-.5-1.1c-.3-.3-.7-.5-1.1-.5s-.8.2-1.1.5c-.3.3-.5.7-.5 1.1s.2.8.5 1.1c.3.3.7.5 1.1.5s.8-.2 1.1-.5zm-42.6 4.1c-.9 0-1.6.7-1.6 1.6v.1c0 .9.7 1.6 1.6 1.6.9 0 1.6-.7 1.6-1.6 0-1-.7-1.7-1.6-1.7zm13.3-23.9c-6.9 3.9-12 10.6-14 18.3-.2.8.3 1.7 1.2 1.9h.4c.7 0 1.4-.5 1.5-1.2 1.7-6.9 6.3-12.8 12.5-16.4.8-.4 1-1.4.6-2.2-.5-.6-1.5-.8-2.2-.4z"/></svg>