<svg id="Слой_1" xmlns="http://www.w3.org/2000/svg" viewBox="0 0 77 77"><style>.st0{fill:#364b9d}</style><path class="st0" d="M0 0v67.1h38c3.7 6 10.3 9.9 17.9 9.9C67.5 77 77 67.5 77 55.9V0H0zm74.5 2.5V10h-72V2.5h72zm-18.6 72c-10.3 0-18.6-8.4-18.6-18.6s8.4-18.6 18.6-18.6 18.6 8.4 18.6 18.6-8.3 18.6-18.6 18.6zm-3.7-44.7v-2.5h7.5v2.5h-7.5zm4.9 2.5v2.5c-.4 0-.8-.1-1.2-.1s-.8 0-1.2.1v-2.5h2.4zm2.5 2.8v-2.8h2.5v-7.5H49.7v7.5h2.5v2.8c-9.9 1.8-17.4 10.4-17.4 20.8 0 3.1.7 6 1.9 8.7H2.5V12.4h72V46c-3-5.6-8.4-9.7-14.9-10.9zm0 0"/><path class="st0" d="M55.9 39.7c-8.9 0-16.1 7.2-16.1 16.1S47 72 55.9 72 72 64.8 72 55.9s-7.2-16.2-16.1-16.2zm13.6 17.4c-.3 2.8-1.4 5.4-3.1 7.5L63.8 62 62 63.8l2.6 2.6c-2.1 1.7-4.7 2.8-7.5 3.1v-3.7h-2.5v3.7c-2.8-.3-5.4-1.4-7.5-3.1l2.6-2.6L48 62l-2.6 2.6c-1.7-2.1-2.9-4.7-3.1-7.5H46v-2.5h-3.7c.3-2.8 1.4-5.4 3.1-7.5l2.6 2.6 1.8-1.8-2.6-2.6c2.1-1.7 4.7-2.8 7.5-3.1V46h2.5v-3.7c2.8.3 5.4 1.4 7.5 3.1L62 48l1.8 1.8 2.6-2.6c1.7 2.1 2.9 4.7 3.1 7.5h-3.7v2.5h3.7zm0 0"/><path class="st0" d="M55.9 52.2c-2.1 0-3.7 1.7-3.7 3.7 0 2.1 1.7 3.7 3.7 3.7 2.1 0 3.7-1.7 3.7-3.7 0-2.1-1.7-3.7-3.7-3.7zm0 4.9c-.7 0-1.2-.6-1.2-1.2s.6-1.2 1.2-1.2c.7 0 1.2.6 1.2 1.2s-.5 1.2-1.2 1.2zM19.9 41H5v2.5h17.4v-3l8.4 4.2-8.4 4.2v-3H5v2.5h14.9v4.5l16.4-8.2-16.4-8.2V41zM8.7 54.6c-2.1 0-3.7 1.7-3.7 3.7C5 60.4 6.7 62 8.7 62c2.1 0 3.7-1.7 3.7-3.7s-1.7-3.7-3.7-3.7zm0 5c-.7 0-1.2-.6-1.2-1.2 0-.7.6-1.2 1.2-1.2.7 0 1.2.6 1.2 1.2 0 .7-.5 1.2-1.2 1.2zm9.9-5c-2.1 0-3.7 1.7-3.7 3.7 0 2.1 1.7 3.7 3.7 3.7 2.1 0 3.7-1.7 3.7-3.7.1-2-1.6-3.7-3.7-3.7zm0 5c-.7 0-1.2-.6-1.2-1.2 0-.7.6-1.2 1.2-1.2.7 0 1.2.6 1.2 1.2.1.7-.5 1.2-1.2 1.2zm10-5c-2.1 0-3.7 1.7-3.7 3.7 0 2.1 1.7 3.7 3.7 3.7s3.7-1.7 3.7-3.7-1.7-3.7-3.7-3.7zm0 5c-.7 0-1.2-.6-1.2-1.2 0-.7.6-1.2 1.2-1.2.7 0 1.2.6 1.2 1.2 0 .7-.6 1.2-1.2 1.2zm-8.7-44.7H5v9.9h14.9v-9.9zm-2.5 7.5H7.5v-5h9.9v5zm5 2.4h14.9v-9.9H22.4v9.9zm2.4-7.4h9.9v5h-9.9v-5zM5 27.3h32.3v2.5H5zm0 5h32.3v2.5H5zM5 5h2.5v2.5H5zm4.9 0h2.5v2.5H9.9zm5 0h2.5v2.5h-2.5z"/></svg>