<svg id="Layer_1" xmlns="http://www.w3.org/2000/svg" viewBox="78 334.5 258 125"><style>.st0{fill:#364b9d}</style><path class="st0" d="M325.7 399.6c-.9-.9-1.8-1.7-2.8-2.5l-10.2-55.8c-.4-2.2-1.6-4-3.4-5.3-1-.7-2.1-1.1-3.3-1.3-.5-.1-.9-.1-1.4-.1-.5 0-1 0-1.5.1l-145.8 26.4c-2.2.4-4.1 1.6-5.3 3.4-1.3 1.8-1.7 4-1.3 6.1l14.7 80.6c.4 2.2 1.6 4 3.4 5.3 1.8 1.2 4 1.7 6.2 1.3l94.6-17.1c1.6 3.1 3.8 6 6.3 8.6 6.6 6.6 15.5 10.3 24.9 10.3 9.4 0 18.2-3.6 24.9-10.3 6.6-6.6 10.3-15.4 10.3-24.8s-3.7-18.3-10.3-24.9zm-18.3-57.9l9.4 51.4c-4.9-2.5-10.3-3.8-15.9-3.8-9.2 0-17.9 3.5-24.5 9.9l-17.5-9.1 48.5-48.4zm-6.2-1.3l-61.2 61-78.8-35.7 140-25.3zm-130.6 110l-14.8-81.2 62.6 28.3-47.8 52.9zm5.6 1.8l47.3-52.4 16 7.2c.2.1.4.2.6.2.9.2 1.7-.1 2.3-.7l12.4-12.4 17.8 9.2c-4.6 6.1-7.1 13.4-7.1 21.1 0 3.9.6 7.6 1.8 11.2l-91.1 16.6zm124.6 2.3c-16.6 0-30.1-13.5-30.1-30.1s13.5-30.1 30.1-30.1 30.1 13.5 30.1 30.1-13.5 30.1-30.1 30.1z"/><path class="st0" d="M314.2 413l-17.6 17.6-9.1-9.1c-1-1-2.6-1-3.6 0s-1 2.6 0 3.6l10.9 10.9c.5.5 1.1.7 1.8.7s1.3-.3 1.8-.7l19.4-19.3c1-1 1-2.6 0-3.6-1-1.1-2.6-1.1-3.6-.1zm-179.6 34.9c-.5-.3-1-.5-1.5-.5h-.5l-22.1 4c-1.4.3-2.4 1.6-2.1 3.1.2 1.1 1.1 1.9 2.2 2.1.3.1.6.1.9 0l22.1-4c.7-.1 1.3-.5 1.7-1.1.4-.6.6-1.3.4-2-.2-.6-.5-1.2-1.1-1.6zm-18.4-52.2c.4-.6.6-1.3.4-2-.2-1.1-1.1-1.9-2.2-2.1h-1L99.9 394c-1.4.3-2.4 1.6-2.1 3.1.2 1.1 1.1 1.9 2.2 2.1.3.1.6.1.9 0l13.6-2.5c.7 0 1.3-.4 1.7-1zm-23.9 35.1c-.5-.3-1-.5-1.5-.5h-.5l-10.1 1.8c-.7.1-1.3.5-1.7 1.1-.4.6-.6 1.3-.4 2 .2 1.1 1.1 1.9 2.2 2.1.3.1.6.1.9 0l10.1-1.8c1.4-.3 2.4-1.6 2.1-3.1-.1-.6-.5-1.2-1.1-1.6z"/></svg>