<svg id="Layer_1" xmlns="http://www.w3.org/2000/svg" viewBox="174.5 358.5 65 77"><style>.st0{fill:#354a9e}</style><path class="st0" d="M238.3 371.8c-10.5-2.9-21-7.4-30.5-13.1-.5-.3-1.1-.3-1.6 0-9.7 5.8-19.7 10.1-30.5 13.1-.7.2-1.2.8-1.2 1.6v16.5c0 17 7.8 28.3 14.3 34.8 7 7 15.2 10.8 18.2 10.8s11.2-3.8 18.2-10.8c6.5-6.5 14.3-17.7 14.3-34.8v-16.6c0-.7-.5-1.3-1.2-1.5zm-2 18.1c0 15.9-7.3 26.4-13.3 32.5-6.9 6.8-14.3 9.9-15.9 9.9-1.6 0-9-3-15.9-9.9-6.1-6-13.3-16.6-13.3-32.5v-15.3c10.3-3 19.9-7.1 29.3-12.6 9.1 5.4 19.2 9.7 29.3 12.6v15.3z"/><path class="st0" d="M190.7 373.5c-2.9 1.1-5.8 2.2-8.7 3.1-.7.2-1.1.8-1.1 1.5v6.3c0 .9.7 1.6 1.6 1.6s1.6-.7 1.6-1.6v-5.1c2.6-.9 5.3-1.8 7.8-2.8.8-.3 1.2-1.3.9-2.1-.3-.8-1.3-1.2-2.1-.9zm5.1 1.2c.2 0 .4 0 .6-.1.8-.4 1.2-1.3.8-2.1-.4-.8-1.3-1.2-2.1-.8-.8.4-1.2 1.3-.8 2.1.3.6.9.9 1.5.9zm18.9 46.4c-.7.5-.8 1.6-.3 2.3.3.4.8.6 1.3.6.3 0 .7-.1 1-.3 1.8-1.3 3.4-2.8 5-4.5 1.9-2 3.6-4.1 5-6.3.5-.7.3-1.8-.5-2.2-.7-.5-1.7-.3-2.2.5-1.3 2-2.9 4-4.6 5.8-1.6 1.5-3.1 2.9-4.7 4.1zm-3.7 2.6c-.9.5-1.1 1.5-.7 2.3.3.5.8.8 1.4.8.3 0 .5-.1.8-.2l.1-.1c.8-.5 1-1.4.6-2.2-.5-.8-1.5-1.1-2.2-.6zm-14.9-36.4c0 .8.6 1.4 1.4 1.4.8 0 1.4-.6 1.4-1.4 0-4.5 3.6-8.2 8.1-8.2s8.1 3.7 8.1 8.2v4.1H196c-1.3 0-2.3 1-2.3 2.3v12c0 3.3 2.7 6.1 6 6.1h14.5c3.3 0 6-2.7 6-6.1v-12c0-1.3-1-2.3-2.3-2.3h-.1v-4.1c0-6.1-4.9-11-10.9-11-5.9-.1-10.8 4.9-10.8 11zm.5 18.4v-11.5h20.9v11.5c0 1.8-1.4 3.2-3.2 3.2h-14.5c-1.8 0-3.2-1.4-3.2-3.2z"/><path class="st0" d="M207 405.7c2.2 0 4-1.8 4-4.1 0-2.2-1.8-4.1-4-4.1s-4 1.8-4 4.1 1.8 4.1 4 4.1zm-1.2-4c0-.7.5-1.2 1.2-1.2s1.2.6 1.2 1.2c0 .7-.5 1.2-1.2 1.2s-1.2-.5-1.2-1.2z"/></svg>