<svg id="Capa_1" xmlns="http://www.w3.org/2000/svg" viewBox="168.5 358.5 77 77"><style>.st0{fill:#354a9e}</style><path class="st0" d="M245.5 395.4s-.1-2.6-.5-5.3c-1.5-8.1-5.5-15.4-11.5-21-7.1-6.8-16.6-10.6-26.3-10.6-1.1 0-2.1 0-3.2.1-10.2.8-19.6 5.5-26.2 13.3-6.7 7.8-9.9 17.7-9.1 28 .5 6.1 2.4 12.1 5.7 17.3 1.7 2.8 1.7 6.3 0 9.1l-3.6 6c-.3.5-.4 1-.2 1.6.1.5.5 1 .9 1.3.3.2.7.3 1.1.3h33.7c21 0 38.5-16.9 39.1-37.9l.1-2.2zm-14.9 26.3c-6.6 6.3-15.1 9.7-24.2 9.7H176l1.7-2.9c2.5-4.1 2.5-9.3 0-13.4-9.9-16.1-4.9-37.3 11.2-47.2 7.8-4.8 17-6.3 25.9-4.2 8.9 2.1 16.5 7.6 21.3 15.4 3.4 5.6 5.2 11.9 5.1 18.5-.1 9.2-4 17.7-10.6 24.1z"/><path class="st0" d="M208.6 381.7c-4.4-.1-8.5 1.7-11.4 4.8l3.9 4.2c2-2 4.6-3.1 7.4-3.2 3.3 0 5.2 1.5 5.2 4.1 0 3.1-2.9 4.7-8.9 5l1 7.3h4.3l.5-3 .4-.1c6.2-1.1 9.2-4.2 9.2-9.4-.1-5.9-4.5-9.7-11.6-9.7zm-4.4 27.3h7v6.9h-7z"/></svg>