<svg id="Слой_1" xmlns="http://www.w3.org/2000/svg" viewBox="0 0 112 66"><style>.st0{fill:#354a9e}.st1{fill:#1b264d}</style><path class="st0" d="M106.2 33.1c-.3-3.1-1.3-5.6-3.1-7.4-1.7-1.8-3.8-3.1-6.1-4-2.2-.8-5-1.6-8.3-2.4-2.4-.6-4.3-1.1-5.6-1.5-1.3-.4-2.3-1-3.2-1.7-.7-.6-1.1-1.3-1.2-2.2-.1-1.4.4-2.5 1.6-3.4 1.3-.9 3.4-1.4 6.4-1.4 1.8 0 3.8.3 5.8.8 2 .6 4 1.4 5.9 2.4l1.5 1.2 2.2-8.8-.8-.5c-2.1-1.3-4.5-2.3-7.2-3-2.7-.7-5.5-1-8.2-1C82 .2 78.6.8 76 2c-2.7 1.2-4.7 2.9-5.9 5.1-1.2 2.1-1.7 4.5-1.5 7.1.3 3.1 1.3 5.6 3.1 7.5 1.7 1.8 3.8 3.1 6 4 2.2.8 5 1.6 8.4 2.4 2.4.6 4.3 1.1 5.6 1.5 1.3.4 2.3 1 3.2 1.7.7.6 1.1 1.4 1.2 2.3.1 1.3-.4 2.4-1.6 3.2-1.3.9-3.5 1.4-6.5 1.4-2.5 0-5-.4-7.6-1.3-2.4-.8-4.6-1.9-6.4-3.2l-1.1-.8-2.9 8.2.6.5c2.1 1.7 4.8 3 8.1 4s6.7 1.5 10.1 1.5c3.9 0 7.3-.6 9.9-1.8 2.7-1.2 4.7-2.9 5.9-5 1.3-2.2 1.9-4.6 1.6-7.2zM0 .3L23 47l6.2-13.8L12.4.3zm22.7 0l23 46.7 6.2-13.8L35.1.3zm35.1 14.8L64.5.3h-18c10.2 4.6 11.3 14.8 11.3 14.8z"/><path class="st1" d="M10.7 65.6L6.8 54.2h2.1l2.7 8.4 2.8-8.4h1.7l2.8 8.4 2.7-8.4h2.1l-3.9 11.4H18l-2.8-8.1-2.8 8.1h-1.7zm18.6.1c-1.2 0-2.3-.4-3.1-1.2-.8-.8-1.3-1.9-1.3-3.2 0-1.2.4-2.3 1.2-3.1.8-.9 1.8-1.3 3-1.3 1.3 0 2.3.4 3 1.3.7.9 1.1 2 1.1 3.3v.5h-6.3c.1.7.4 1.2.8 1.6.4.4 1 .6 1.6.6.8 0 1.6-.3 2.3-1l1.1 1c-.8 1-1.9 1.5-3.4 1.5zm-2.4-5h4.4c-.1-.7-.3-1.2-.7-1.6-.4-.4-.9-.6-1.5-.6s-1.1.2-1.5.6c-.4.4-.6.9-.7 1.6zm13.1 5c-1.2 0-2.1-.5-2.9-1.5v1.3h-2V53.8h2v4.7c.8-1.1 1.7-1.6 2.9-1.6 1.1 0 2 .4 2.8 1.2.8.8 1.2 1.9 1.2 3.3 0 1.3-.4 2.4-1.2 3.2-.8.7-1.7 1.1-2.8 1.1zm-.4-1.7c.7 0 1.3-.3 1.7-.8.5-.5.7-1.2.7-2s-.2-1.5-.7-2-1-.8-1.7-.8-1.3.3-1.8.8-.7 1.2-.7 2 .2 1.5.7 2c.5.6 1.1.8 1.8.8zm10.6 1.7c-1.8 0-3.4-.6-4.7-1.8l1.2-1.4c1.1 1 2.3 1.5 3.6 1.5.6 0 1.1-.1 1.5-.4.4-.3.5-.6.5-1.1 0-.4-.2-.8-.5-1-.3-.3-1-.5-2-.7-1.3-.3-2.3-.7-2.9-1.2-.6-.5-.9-1.2-.9-2.2 0-1 .4-1.8 1.1-2.4.7-.6 1.6-.9 2.8-.9 1.5 0 2.9.5 4.1 1.4L52.8 57c-1-.8-2.1-1.2-3.1-1.2-.6 0-1 .1-1.3.4-.3.3-.5.6-.5 1s.2.8.5 1c.4.2 1.1.5 2.1.8 1.2.3 2.2.7 2.8 1.2.6.5.9 1.2.9 2.1 0 1-.4 1.9-1.1 2.5-.8.6-1.7.9-2.9.9zm10 0c-1.2 0-2.3-.4-3.1-1.2-.8-.8-1.3-1.9-1.3-3.2 0-1.2.4-2.3 1.2-3.1.8-.9 1.8-1.3 3-1.3 1.3 0 2.3.4 3 1.3.7.9 1.1 2 1.1 3.3v.5h-6.3c.1.7.4 1.2.8 1.6.4.4 1 .6 1.6.6.8 0 1.6-.3 2.3-1l1.1 1c-.8 1-1.9 1.5-3.4 1.5zm-2.4-5h4.4c-.1-.7-.3-1.2-.7-1.6-.4-.4-.9-.6-1.5-.6s-1.1.2-1.5.6c-.4.4-.6.9-.7 1.6zm8.3 4.8V57h2v1.9c.6-1.5 1.6-2.1 3-2.1v2.1H71c-.9 0-1.6.3-2.1.9-.5.6-.8 1.4-.8 2.5v3.2h-2zm9.3.1L71.9 57H74l2.3 6.3 2.3-6.3h2l-3.5 8.6h-1.7zm7-9.9v-1.9h2.1v1.9h-2.1zm0 9.8V57h2v8.5h-2zm8.5.2c-1.3 0-2.3-.4-3.1-1.3-.8-.9-1.3-1.9-1.3-3.1 0-1.2.4-2.3 1.3-3.1.8-.9 1.9-1.3 3.2-1.3 1.4 0 2.5.5 3.4 1.5l-1.2 1.3c-.7-.7-1.4-1.1-2.2-1.1-.7 0-1.3.3-1.8.8s-.7 1.2-.7 1.9c0 .8.2 1.4.7 2 .5.5 1.1.8 1.8.8.8 0 1.5-.4 2.2-1.1l1.2 1.2c-.5.5-1 .9-1.5 1.2-.6.2-1.2.3-2 .3zm9.2 0c-1.2 0-2.3-.4-3.1-1.2-.8-.8-1.3-1.9-1.3-3.2 0-1.2.4-2.3 1.2-3.1.8-.9 1.8-1.3 3-1.3 1.3 0 2.3.4 3 1.3.7.9 1.1 2 1.1 3.3v.5h-6.3c.1.7.4 1.2.8 1.6.4.4 1 .6 1.6.6.8 0 1.6-.3 2.3-1l1.1 1c-.8 1-2 1.5-3.4 1.5zm-2.5-5h4.4c-.1-.7-.3-1.2-.7-1.6-.4-.4-.9-.6-1.5-.6s-1.1.2-1.5.6c-.3.4-.6.9-.7 1.6zm11.2 5c-1.3 0-2.5-.4-3.6-1.3l.9-1.3c.9.7 1.9 1 2.8 1 .4 0 .7-.1 1-.3.2-.2.3-.4.3-.7 0-.2 0-.3-.1-.4-.1-.1-.2-.2-.4-.3-.2-.1-.4-.2-.5-.2-.1 0-.4-.1-.7-.2h-.1c-.3-.1-.6-.2-.8-.3s-.4-.2-.7-.3c-.3-.1-.5-.3-.6-.5-.2-.2-.3-.4-.4-.6-.1-.3-.2-.5-.2-.9 0-.8.3-1.4.9-1.9.6-.5 1.3-.7 2.2-.7 1.1 0 2.2.3 3.1 1l-.8 1.4c-.9-.5-1.7-.8-2.4-.8-.4 0-.7.1-.9.2-.2.2-.3.4-.3.6 0 .2.1.3.3.5.2.2.4.3.6.3.2.1.5.2.9.3h.2c.4.1.7.2 1 .3.3.1.5.3.8.5.3.2.5.4.7.7.2.3.2.6.2 1 0 .9-.3 1.5-.9 2-.8.7-1.5.9-2.5.9z"/></svg>