<?xml version="1.0" encoding="UTF-8"?>
<svg width="194px" height="53px" viewBox="0 0 194 53" version="1.1" xmlns="http://www.w3.org/2000/svg" xmlns:xlink="http://www.w3.org/1999/xlink">
    <!-- Generator: Sketch 45.2 (43514) - http://www.bohemiancoding.com/sketch -->
    <title>LOgo</title>
    <desc>Created with Sketch.</desc>
    <defs></defs>
    <g id="Page-1" stroke="none" stroke-width="1" fill="none" fill-rule="evenodd">
        <g id="Desktop" transform="translate(-47.000000, -260.000000)" fill="#FFFFFF">
            <g id="Group" transform="translate(-1.000000, 0.000000)">
                <g id="TopMenu" transform="translate(0.000000, 251.000000)">
                    <g id="LOgo" transform="translate(48.000000, 9.000000)">
                        <path d="M22.6375601,13.2727364 C23.059473,13.1546556 23.4532665,13.0172659 23.8146282,12.8485624 C24.2308002,12.6542584 24.6037797,12.4180244 24.9269687,12.121188 C25.3664171,11.7155418 25.5524103,11.2795221 25.5504785,10.8973215 C25.5494718,10.6961472 25.4956002,10.5086122 25.3991618,10.3488039 C25.3021384,10.1879976 25.1615824,10.0546721 24.98786,9.9629584 C24.6433808,9.78100631 24.1688614,9.76038121 23.6369334,10.0022271 L23.4682989,10.078942 L23.3884029,9.90211004 C23.1382535,9.34829877 22.7686614,9.03186412 22.396811,8.92756709 C22.208546,8.87476049 22.0199816,8.87648165 21.8477964,8.92936058 C21.6764683,8.98205148 21.51971,9.08561086 21.393887,9.23678441 C21.1559132,9.52274426 21.0258458,9.9810379 21.1050888,10.594309 C21.1315349,10.7943406 21.1728365,10.9924052 21.2274835,11.1890378 C21.2724038,11.3506541 21.3263162,11.5113302 21.3884455,11.6714278 C21.6157267,11.7110726 21.8332946,11.8132145 22.0230697,11.9773619 C22.3331037,12.245546 22.5660986,12.6787019 22.6375601,13.2727364 Z M21.5089493,16.5352474 C21.7399715,16.0360073 21.931828,15.5522578 22.0662486,15.0768681 C22.2087364,14.5729852 22.2858708,14.0809191 22.2753822,13.5930184 L22.2730967,13.5387799 C22.2541736,13.0837261 22.1347853,12.7339673 21.957349,12.4892432 C21.7680501,12.2281174 21.5107314,12.0862584 21.2417133,12.0652283 L21.2214298,12.0636373 C21.0612025,12.0545252 20.8966899,12.0872853 20.7394827,12.1622357 C20.3875213,12.3299266 20.0703044,12.7074845 19.907642,13.2994652 L19.8559742,13.4876511 L19.6779257,13.4412085 C19.1137699,13.2940558 18.6470864,13.3967184 18.334114,13.6365683 C18.1764714,13.7573538 18.0577361,13.9139657 17.9862066,14.0905084 C17.9151668,14.2658217 17.8905708,14.4610948 17.9204859,14.6606491 C17.9771736,15.0389012 18.2284113,15.4380676 18.726207,15.7635999 C19.1189258,16.0194321 19.5590816,16.1957289 20.0416953,16.3173388 C20.4958767,16.4317604 20.9860815,16.4976565 21.5089493,16.5352474 Z M22.4352966,15.1937919 C22.2840207,15.7286703 22.0628204,16.2740493 21.7956253,16.8392145 L21.7385567,16.96 L21.6126113,16.9520884 C21.0191255,16.9148157 20.4644924,16.8449999 19.9528479,16.7161003 C19.4334083,16.5852192 18.9562362,16.393186 18.5251134,16.1127512 L18.5243788,16.1127512 C17.921615,15.7185892 17.614193,15.2138095 17.5408813,14.7246795 C17.4990355,14.4455609 17.5332087,14.1729943 17.6322046,13.9287186 C17.7306428,13.685759 17.8935365,13.4706419 18.109676,13.3050481 C18.4731599,13.0264936 18.9872396,12.8903333 19.5943294,13.004885 C19.8055307,12.3886778 20.1739937,11.983885 20.5828332,11.7890603 C20.7103974,11.7282553 20.8417844,11.6878296 20.9736338,11.6676673 C20.9307406,11.5469975 20.892255,11.4259371 20.8584356,11.3043272 C20.7985102,11.0887183 20.7532091,10.8710122 20.7241238,10.6503844 L20.7241238,10.6495745 C20.6279167,9.90675285 20.7986735,9.33562866 21.1062043,8.96609812 C21.2815864,8.75536346 21.5007733,8.61079978 21.7408286,8.53700648 C21.9801084,8.463488 22.2390188,8.46029155 22.4947594,8.53200208 C22.9263175,8.65303349 23.3502982,8.98759103 23.652129,9.55715316 C24.2318749,9.33980864 24.7582117,9.38499292 25.1580726,9.59617596 C25.395652,9.72163323 25.5887737,9.90530649 25.7230038,10.1278145 C25.857819,10.3512627 25.9331304,10.6137336 25.9345588,10.8956871 C25.937062,11.389026 25.7115901,11.9382957 25.1785466,12.430333 C24.8245038,12.7555326 24.4188612,13.0128834 23.9682712,13.2232999 C23.5668731,13.4107047 23.1293837,13.5607935 22.6605372,13.6886373 C22.6599658,14.1890634 22.5783285,14.6880287 22.4352966,15.1937919 L22.4352966,15.1937919 Z" id="Fill-2"></path>
                        <path d="M39.2728793,19.3291629 C38.9865619,19.2589026 38.7182615,19.1768064 38.4705908,19.0758627 C38.1715243,18.9539378 37.9019962,18.8045237 37.6662607,18.6154664 C37.3018788,18.3218074 37.1478056,17.9909572 37.1495473,17.6922351 C37.1505609,17.5184731 37.2036985,17.3566929 37.298795,17.2191015 C37.3932919,17.0823849 37.5289483,16.9695258 37.6958419,16.8925722 C37.9583602,16.7715618 38.2981864,16.7402289 38.6715912,16.8485021 C38.8759609,16.5386995 39.1538266,16.3544535 39.4371032,16.2850945 C39.6163889,16.24121 39.7984157,16.2432379 39.9670082,16.2884743 C40.1364145,16.3339361 40.2910873,16.4229775 40.4146799,16.5527092 C40.6280296,16.7765586 40.7468539,17.1195761 40.6811244,17.562689 L40.6811244,17.5634445 C40.6617082,17.6919302 40.6315131,17.818693 40.59161,17.9440375 C40.5776475,17.9878425 40.5624714,18.0315414 40.5461675,18.0751608 C40.6073999,18.0889054 40.6682183,18.1081769 40.7277518,18.1329357 C40.9961806,18.2446417 41.2389973,18.4692334 41.3866746,18.8068432 C41.7751697,18.7562388 42.1060873,18.8387459 42.344778,18.9984585 C42.4965812,19.1000118 42.6111082,19.232116 42.680307,19.381265 C42.7501196,19.5316333 42.7741471,19.6994574 42.7446516,19.8714168 C42.6937841,20.1678195 42.4831755,20.4720288 42.0713666,20.7072238 L42.0705957,20.7072238 C41.7834359,20.8702764 41.4666807,20.9817438 41.1225715,21.0574516 C40.7866285,21.131317 40.4225749,21.1714108 40.0331803,21.19275 L39.9010503,21.2 L39.841117,21.0893146 C39.6657146,20.7654228 39.5205214,20.4527838 39.4212419,20.1462815 C39.3325841,19.8724374 39.2795179,19.6014297 39.2728793,19.3291629 Z M40.2856622,18.4253886 L40.2745836,18.4261441 C40.1216096,18.4365884 39.9747461,18.5076306 39.8661582,18.6384226 C39.76034,18.7659408 39.6889855,18.9501868 39.67745,19.1919161 L39.6759224,19.2246406 C39.6698405,19.4913142 39.7186094,19.7615929 39.8085378,20.0391349 C39.8900858,20.2908976 40.0046128,20.5469016 40.1421965,20.8103941 C40.4574955,20.7888959 40.7538923,20.752606 41.0293309,20.6920345 C41.3347505,20.6248227 41.6127304,20.5277758 41.8597587,20.3875601 C42.1612093,20.2150043 42.3128412,20.0074972 42.3462771,19.8127274 C42.3632662,19.7137322 42.3492751,19.6166852 42.3088009,19.5295259 C42.2677985,19.4412002 42.1996991,19.3627887 42.1092425,19.3022569 C41.9233324,19.1778667 41.6430825,19.1253007 41.3011148,19.2031821 L41.1143053,19.2457545 L41.0600399,19.0733047 C40.9615884,18.7603343 40.7723091,18.5618534 40.5633709,18.4749061 C40.4726715,18.4371848 40.3778177,18.4206966 40.2856622,18.4253886 Z M39.3011327,18.9483048 C39.3619939,18.6343669 39.5141255,18.4010805 39.7118138,18.2509904 L39.7139124,18.2493734 L39.7203083,18.2446019 L39.7207509,18.2442573 L39.7276323,18.2391943 L39.7288886,18.238293 L39.7345136,18.2342372 L39.7375117,18.23209 L39.7414806,18.2293067 L39.7484333,18.2244689 L39.7549577,18.219989 L39.7554431,18.2196576 L39.7624386,18.2149524 L39.7637378,18.2140909 L39.7695198,18.2103002 L39.7725608,18.2083121 L39.776601,18.2057143 L39.7814551,18.2025995 L39.7837251,18.2011681 L39.7903637,18.1970328 L39.7908919,18.1967412 L39.7980588,18.1923408 L39.7993437,18.1915456 L39.805297,18.18802 L39.8084093,18.1861379 L39.8125353,18.1837389 L39.817475,18.180876 L39.8197878,18.1795638 L39.8265835,18.1756936 L39.8271117,18.1754285 L39.8344356,18.1713727 L39.8357776,18.170657 L39.8418023,18.1673567 L39.8450003,18.1656602 L39.8491691,18.1634468 L39.854223,18.1608224 L39.8565786,18.1595765 L39.8635313,18.1560509 L39.8640167,18.1557859 C39.9449508,18.1149498 40.0304678,18.0857907 40.1184117,18.0684277 C40.1510195,17.9920175 40.1798011,17.9154085 40.2043283,17.8383886 C40.2386779,17.7303673 40.2646613,17.6216832 40.2812079,17.5120448 C40.3292487,17.1876627 40.2531258,16.9480011 40.1127867,16.8007607 C40.0412323,16.7256494 39.952032,16.6741437 39.8547512,16.648033 C39.7565709,16.621697 39.6484399,16.6210211 39.5398948,16.6475824 C39.3190213,16.7016461 39.0982192,16.8681978 38.94683,17.160876 L38.8630549,17.3229081 L38.6859963,17.2526213 C38.3637875,17.1247319 38.0791261,17.1343412 37.8744709,17.2286843 C37.7747202,17.2746762 37.6941001,17.3413578 37.638664,17.4216117 C37.5838704,17.5009246 37.55319,17.5940218 37.5526189,17.6937328 C37.551491,17.8906498 37.6641192,18.1176934 37.9302781,18.3321854 C38.1335628,18.495238 38.3688842,18.625301 38.6318166,18.7324609 C38.8386561,18.8168103 39.062442,18.8870971 39.3011327,18.9483048 L39.3011327,18.9483048 Z" id="Fill-3"></path>
                        <path d="M64.6969539,9.02813753 C64.0491106,8.85352315 63.4456384,8.64814594 62.8934185,8.39009707 C62.2914952,8.10881199 61.7499261,7.76492186 61.2775523,7.33069786 C60.5744541,6.68116328 60.2770975,5.9588715 60.280401,5.31178744 C60.2822653,4.94490907 60.3801778,4.60338196 60.5554966,4.31254275 C60.730226,4.02273918 60.9817447,3.78337555 61.2913146,3.61973017 C61.8277572,3.3361696 62.5393541,3.28113493 63.3239022,3.59036765 C63.7231465,2.80779007 64.2925693,2.35047572 64.8716421,2.18793892 C65.2050631,2.09438143 65.5422947,2.09839271 65.8536055,2.19415274 C66.1657798,2.29016075 66.4507037,2.47836971 66.6787963,2.75262412 C67.0818787,3.23739017 67.3052285,3.98907365 67.1782835,4.96992483 L67.1782835,4.97075626 C67.139505,5.26513998 67.0790824,5.55568746 66.999154,5.84350727 C66.9462705,6.03403547 66.884765,6.22361555 66.8152955,6.41245172 C67.0146983,6.43316448 67.2142657,6.489439 67.407226,6.58147949 C67.9557174,6.84308745 68.4493378,7.39474696 68.7243237,8.2387189 C69.5482535,8.06887429 70.2441278,8.24703318 70.7317717,8.62110267 C71.0132824,8.83706963 71.2254332,9.11743577 71.3537353,9.43412217 C71.4825446,9.75212134 71.5269569,10.1068492 71.4725518,10.4701247 C71.3764623,11.1116659 70.9713924,11.775043 70.1762483,12.2954875 L70.1755081,12.2954875 C69.6003693,12.6699217 68.9630534,12.9264827 68.2686183,13.1015931 C67.5820787,13.2747196 66.8375976,13.3685397 66.0409732,13.4186441 L65.9141104,13.4266667 L65.8565663,13.3048115 C65.4979647,12.5456743 65.2011427,11.8130407 64.9980389,11.0945123 C64.8015832,10.3992054 64.6917862,9.71441537 64.6969539,9.02813753 Z M66.571124,6.81843636 L66.5405015,6.82084312 C66.1593647,6.85068699 65.7952527,7.05126526 65.5278744,7.42041911 C65.2806736,7.7616545 65.1144566,8.24716446 65.0882616,8.87700733 L65.0852733,8.94939988 C65.0707023,9.61703624 65.1756194,10.2891069 65.3698956,10.9765808 C65.556057,11.6352027 65.8232297,12.3056981 66.145342,12.9983939 C66.8707834,12.9479102 67.5504007,12.8579702 68.1790947,12.6994447 C68.8364236,12.5336843 69.4364278,12.2930078 69.973076,11.9437061 C70.6622611,11.4921534 71.0107191,10.9352428 71.0900581,10.4055359 C71.1324553,10.122515 71.0976794,9.84573717 70.9970391,9.5972716 C70.8958915,9.34758076 70.7282763,9.12620223 70.5056256,8.95543867 C70.0689735,8.62049004 69.4204585,8.47647802 68.6391454,8.68044034 L68.4597829,8.72729202 L68.4076807,8.53750773 C68.182357,7.71666989 67.740455,7.1920099 67.2493842,6.95782446 C67.0282962,6.85234985 66.796763,6.80599411 66.571124,6.81843636 Z M64.7185569,8.60857291 C64.8011582,7.78518244 65.1130584,7.189326 65.5325761,6.826138 C65.7892625,6.60392804 66.0851524,6.46897421 66.3936257,6.42212253 C66.4842733,6.19156912 66.5626528,5.9601551 66.627311,5.72723869 C66.7019071,5.45848336 66.758286,5.18781721 66.7943093,4.91419001 C66.9042708,4.064048 66.7219201,3.42609506 66.3889241,3.02559493 C66.2107678,2.81137834 65.9887065,2.66455114 65.7458235,2.58983935 C65.5020769,2.51487959 65.2358364,2.51235613 64.970336,2.58686371 C64.4514939,2.73249482 63.9368874,3.17205747 63.5902935,3.94012153 L63.509858,4.11845546 L63.3398714,4.04108893 C62.603039,3.70576105 61.9433936,3.73557575 61.4628227,3.98961335 C61.2175957,4.11924312 61.0190428,4.30778756 60.8818034,4.5354091 C60.7451534,4.76206794 60.6688439,5.02805183 60.6674046,5.31343571 C60.6646768,5.84846666 60.9222542,6.45653197 61.5310449,7.01894168 C61.9723027,7.42459083 62.4810013,7.74711181 63.0482172,8.01217676 C63.5596298,8.25117573 64.1185801,8.44373145 64.7185569,8.60857291 L64.7185569,8.60857291 Z" id="Fill-4"></path>
                        <path d="M55.0250471,9.28736155 C54.6832626,10.013684 54.3414921,10.7400207 53.9997216,11.4663432 C53.8244407,11.4663432 53.6492158,11.4663432 53.4739349,11.4663432 C53.2460739,10.0048548 53.0182549,8.54332388 52.7903799,7.08182133 C51.8614512,7.63986375 50.8541432,8.08217643 50.003622,8.75590607 C48.8712014,9.65293205 48.2068837,11.575823 47.8215489,13.6718834 C47.3922291,16.0072263 47.2256554,18.3841361 46.9276736,20.7402837 C46.7787108,22.0689224 46.6041029,23.3949109 46.480743,24.7262139 C46.4220356,25.3599781 46.7976256,25.7821947 47.0328478,26.2674064 C47.3110595,26.8412366 47.2990572,27.4956921 46.8752198,28.1540592 C46.46166,28.7964967 45.724263,29.2078291 44.6668286,29.4295523 C44.400451,29.4853906 44.1410419,29.5712738 43.8781556,29.6421487 C44.2865836,28.4594122 44.50355,27.3252012 44.0358677,26.4534158 C43.4372541,25.3374444 42.3140877,24.971633 41.2559803,25.0568359 C39.402049,25.2061961 37.7472909,26.9604385 39.4614294,30.0672989 C38.4711293,31.1567826 37.8621539,32.857426 36.7272515,33.8937783 C36.1839381,33.3091773 35.6405686,32.7245763 35.0972552,32.1399752 C35.071498,29.6489371 34.6936366,27.3520008 33.8966208,25.2861412 L33.8966208,25.2860987 C33.781197,25.1718145 33.651191,25.0171397 33.4952596,24.8130608 C32.6560816,23.7143369 31.8768309,23.1174486 29.8688329,22.0326133 C29.6375647,21.9073882 29.07106,21.5521351 28.6089863,21.2425304 C25.9075623,19.4304373 23.6801022,19.2940587 20.8002565,20.7650282 C20.6926987,20.8558575 20.5938902,20.9486567 20.5025551,21.0430716 C20.0428651,21.4154305 19.699426,21.4728844 19.1654368,21.3779877 C17.4900394,20.9143885 16.2392506,19.8499328 15.0905653,18.6409637 C14.1623517,16.4019205 13.8659263,13.9234531 13.513135,11.4663006 C13.1577778,10.3997475 12.4488723,9.92872201 11.4625121,9.9250656 C12.004802,7.70482887 12.0944966,5.85638422 11.5150922,4.55739366 C11.0262237,3.11686589 10.0935934,2.61430742 8.83349443,2.80356226 C7.90134087,2.94042267 7.25933116,3.51711563 6.88803171,4.50424811 C6.49539176,5.28504832 6.35178507,6.09729652 6.51998522,6.94892912 C6.68155327,8.00507995 6.62141568,8.88684253 6.15193872,9.44676984 C5.82253508,9.8076352 5.27507135,10.1317238 4.73227673,10.4565636 C4.29248298,10.9111493 4.13788354,11.7202797 4.15389592,12.7417938 C4.16264525,13.6541257 4.17138055,14.5664576 4.18012987,15.4787895 C4.03517713,15.6808559 3.86061128,15.8171211 3.62802508,15.8242355 C2.78672988,14.6638769 1.94547675,13.5035608 1.10418155,12.3432022 C0.771146371,12.2811707 0.43816728,12.2191817 0.105132105,12.1571644 C0.0700787221,12.4671801 0.0350674038,12.7772241 0,13.0872398 C1.36709594,14.7967691 2.73414981,16.5062559 4.10123172,18.215771 C4.6717746,18.4850984 5.03811048,18.300733 5.25802138,17.7906208 C5.45957833,17.374314 5.66112126,16.957993 5.86267821,16.5416862 C6.15667794,16.4700177 6.3662551,16.5690385 6.51994315,16.7808695 C6.02897146,18.5252198 5.66867877,20.6280403 4.41672618,21.9625462 C4.2015545,22.1919366 4.13331258,22.5096619 4.28529002,22.8394903 C4.6158995,23.5568135 4.74356392,24.1917114 4.54817637,24.75273 C4.178896,25.8131325 3.88509257,26.9008588 3.62802508,27.9946084 C3.50742742,28.5076967 3.54189191,29.0501923 3.41769076,29.562402 C3.32126592,29.9601575 3.06574078,30.306879 2.97078818,30.7050455 C2.82763017,31.3053917 2.74498831,31.9221635 2.70787379,32.538581 C2.6605377,33.3246816 2.71459002,34.1137583 2.71796917,34.901347 C3.45071105,35.5752609 4.23123771,36.1997423 4.91625091,36.9231028 C5.92388142,37.9871192 6.50308949,39.3186632 6.59879924,40.8558733 C6.64641576,41.6207724 6.19244641,42.4281737 6.09927452,43.3005685 C5.88103216,45.344362 7.73565054,48.4302901 10.016518,47.0739024 C9.12439544,45.730227 8.19919647,44.2701417 7.93961916,42.2642162 C7.75317723,40.8231782 7.6348931,39.3490341 7.80814093,37.9062955 C7.90500044,37.0997445 8.76258845,36.8385376 9.6221675,37.002807 C10.9815517,37.2625966 11.738186,38.2165096 11.9357188,39.6069388 C12.024544,40.2324265 11.6301094,40.9266207 11.1995977,41.6264696 C10.9958955,42.3618764 10.973882,43.0789728 11.1206996,43.7788643 C11.8180376,44.0756999 12.4407258,44.6619023 12.4352014,45.6123998 C12.4140572,49.252884 13.2552683,50.9412684 15.0552315,51.3875068 C16.3383395,50.802268 16.9520401,49.6117086 17.088566,48.1633861 C17.1617855,47.3865966 17.530505,46.9853123 18.1401675,46.7018977 C20.1519652,47.4098673 22.7925786,47.2069505 23.6612154,48.0836111 C24.5298522,48.9602575 24.0538273,49.9312479 24.1344221,51.0597759 C24.6426961,51.1306508 25.1509982,51.201469 25.6592722,51.2723439 C25.3177682,50.1917603 25.2294617,49.111035 25.6592722,48.0304514 C26.3953933,48.4733168 27.0732135,49.0351006 27.8676073,49.3591042 C28.5511903,49.6378987 29.0645821,49.1204311 29.6027497,48.4556441 C30.0433287,47.911377 30.5237283,47.306935 31.1801659,47.0738599 C31.907748,46.8155016 32.7224867,47.0738599 33.4936752,47.0738599 C33.0651405,49.2104526 33.3922447,50.8181408 33.8771732,52.315428 C34.4585826,52.0853574 35.0400201,51.8552868 35.6214155,51.6252162 C35.3697041,48.1538199 34.9200674,45.2828974 33.9669239,43.9382726 C33.7040095,44.292562 33.4411371,44.6468799 33.1782087,45.0011693 C32.1967421,43.6725307 31.1757913,42.1844412 30.1943106,40.8558025 C31.5503998,40.462823 32.3867174,40.3920332 32.8334657,39.9778522 C33.8643016,39.0222528 33.0764277,37.5769206 33.4148191,34.6111865 C33.4969281,33.8914399 34.1701914,33.5022019 34.8607571,33.4685856 C36.0828161,34.7282059 37.3368299,35.8589589 38.6991165,36.5510131 C39.3396539,42.0901964 39.4968473,47.5206651 39.505835,52.9179852 C41.6381042,52.9009077 43.7703314,52.883802 45.9026006,52.8667245 C45.1185826,51.2179087 44.565917,49.5022004 44.2726323,47.7116064 C44.5407907,46.2819629 44.688057,44.7301979 44.745839,43.0879296 C44.6582055,41.0152391 44.570572,38.9425911 44.4829246,36.8699148 C44.3303021,35.3286797 44.308527,33.7630119 44.7984331,32.246238 C44.9248916,31.8546333 45.5609002,31.5151253 46.5335615,30.7050029 C47.612813,29.8060921 48.1040652,28.5516021 48.4001681,27.2771151 C49.2891219,27.6035564 49.5160294,28.6486246 49.5306537,30.2532516 C49.5548966,32.9137177 49.7935681,35.5678205 49.9250043,38.2251121 C50.021387,40.6875082 49.9927414,43.1582377 50.2141947,45.6123573 C50.3383257,46.9877641 50.832326,48.3836496 50.3456308,49.5982875 C49.8452788,50.8470237 48.9382796,51.7068478 49.2151592,52.6010251 C49.3056951,52.8934815 50.0046175,53.1527609 50.7662574,52.8933115 C52.1742957,52.4136977 53.1564774,50.9877105 53.3952751,49.2528415 C53.5694343,47.9875948 53.2623667,46.7014159 53.1849828,45.4263621 C53.0351787,42.9588923 53.061609,40.4441442 53.1849828,37.9062529 C53.3727428,34.5453852 53.7064089,31.381156 54.5257607,28.8714674 C54.7185683,28.8803392 54.9113339,28.8891826 55.1041415,28.8980543 C55.5510721,31.9716527 55.9980168,35.0452085 56.4449474,38.1188068 C56.7341378,40.2180843 57.043519,42.3145982 57.3125186,44.4166108 C57.3820786,44.9601977 57.3595042,45.4305003 57.2336625,45.8249537 C56.8654197,46.9792466 56.8453131,48.0213812 57.0759083,49.0402876 C57.4612431,50.7430143 57.9832581,51.9284859 59.2382253,52.6209512 C60.557901,53.3491585 60.8955352,52.8551175 60.6842193,52.3020921 C60.4795216,51.7662999 60.3711786,51.1970473 60.1846946,50.6545517 C59.9461353,49.9607685 59.8437093,49.4092736 59.8363622,48.5088322 C59.8221305,46.7637591 59.924234,45.0190829 59.9152603,43.2739674 C59.898,39.9342729 59.8100861,36.5953294 59.7575061,33.2559892 C59.7399794,32.1133458 59.7224527,30.9707449 59.704926,29.8281014 C59.8188355,29.509214 59.932787,29.1903548 60.0466965,28.8714674 C62.2550736,30.9647926 64.4634647,30.9856539 66.6717998,29.7483264 C66.9033203,31.8918777 67.0772833,34.0483964 66.7769739,36.1789376 C66.5284875,37.9418534 65.6325791,39.5278441 65.0418455,41.2277646 C64.6441018,42.3721654 66.7234685,43.1620074 67.5656891,43.4067462 C67.77514,45.8702762 67.8803422,48.3489137 67.8443775,50.8479448 C68.1195325,50.9783569 68.3947296,51.1087123 68.6698987,51.2391102 C68.926251,51.0308931 69.1825754,50.9399504 69.4388577,50.8737382 C69.6351146,48.6893711 69.7421536,46.4899816 69.7281603,44.2702976 C69.8965567,43.8311737 70.2494181,43.3868911 70.9111839,43.7388563 C71.5729497,44.0908074 72.0270031,45.5884206 72.1205676,46.9807347 C72.2141181,48.3730488 71.9965628,49.3327015 71.7629671,50.4591604 C72.6318142,50.40002 73.3374949,50.0869856 73.7505639,49.3191246 C73.5481797,47.4772275 73.4358687,45.5807109 73.4087935,43.632551 C74.0857023,43.3429007 74.8375273,42.9880585 74.9861817,41.9850249 C75.0778392,41.366595 74.685031,40.9083811 74.6444112,40.2843816 C74.4999352,38.0658597 74.6093578,35.8378282 74.5918171,33.6145729 C74.6289036,31.0117165 74.1779909,28.7505081 73.3036333,26.7853558 C72.9530013,25.8021632 72.3475874,24.7807625 71.647347,23.835778 C71.3296231,23.4070139 71.1086045,22.9294267 71.2529964,22.3210874 C71.4196963,21.6188717 71.3355541,20.9672648 71.0689802,20.3015991 C70.8130204,19.6623219 70.4766902,19.2884749 69.9516045,19.0393569 C69.4227892,18.7885241 68.8095653,18.8131836 68.3348023,19.1323545 C67.788895,19.4992997 67.6205266,20.1751268 67.4672311,20.9127445 C67.3184225,21.6288347 67.310192,22.2270835 67.5197691,22.7728387 C67.7545567,23.3841542 68.2719586,23.8153701 68.5188186,24.3937779 C68.6952072,24.8070802 68.2170791,25.163212 67.7564215,25.4832758 C66.4521272,26.3893719 65.6726802,27.3785877 65.1274038,28.2468584 C64.7498228,28.8480833 64.1163241,29.2701015 63.3922334,29.0706002 C62.573793,28.8451497 61.9516936,28.3754848 61.8181963,27.8117735 C61.5966869,26.8765111 61.8867887,25.9441398 61.9982445,24.9518203 C62.3626734,21.706654 62.0339288,18.4120127 61.6045249,15.0667343 C61.2179562,12.0549266 60.8261014,9.95970232 60.0270946,9.22070994 C59.4031725,8.64366268 58.5969306,8.35486269 57.7398614,8.29063452 C57.137434,8.24551041 57.0339424,8.70368171 56.9248843,9.08781773 C56.7083525,9.85030753 56.486689,10.6113376 56.2676053,11.3731046 C56.1449185,11.381948 56.0222597,11.3908198 55.8995588,11.3996632 C55.6080689,10.6955485 55.316537,9.99147627 55.0250471,9.28736155 Z M19.2473496,23.6297291 C19.1515277,25.7864605 18.9437312,27.9370836 18.7478669,30.0869415 C18.6889352,30.7338858 18.2921449,31.1708414 17.6962374,31.335876 C17.1474697,31.4878156 16.580348,31.5594416 16.0136891,31.5076566 C15.4650476,31.4575581 15.0795865,31.1085831 14.9883776,30.6449839 C14.5454571,28.3942487 14.0427496,26.1588194 13.4898455,23.9486166 C13.335204,23.3303142 13.490799,22.5515265 14.1733585,22.1682408 C15.5903985,21.3724464 17.0982267,21.4092515 18.4060964,22.0087899 C18.9450913,22.255853 19.2831181,22.823745 19.2473496,23.6297291 Z M17.275695,44.701967 C15.9787198,43.878211 14.7015288,43.021689 13.3847695,42.2306707 C13.008815,42.0048234 12.8927462,41.5847752 13.016681,41.0083373 C13.2350776,39.9922795 13.5994224,39.0021 13.8448241,37.9923062 C14.1791913,37.6812843 14.4351231,37.4397626 14.8044315,37.3412662 C15.9327298,38.1147961 16.954592,38.9462192 17.5648854,39.9985435 C17.9370261,40.64023 18.0424667,41.4237654 17.8014957,42.4166801 C17.617143,43.1762363 17.4509759,43.9402 17.275695,44.701967 Z M15.1421078,46.249948 C14.7789547,46.2462065 14.1920349,46.3008402 14.1667123,46.179399 C14.0483581,45.6116345 14.7737107,44.8337254 14.9050768,44.2039011 C14.9349563,44.0604365 15.5720866,43.6279309 15.6434272,44.5979151 C15.6691844,44.9476128 16.514644,44.2748043 16.2444946,45.3036738 C15.7463299,45.2233319 15.3624673,45.2701708 15.3827703,45.9820377 C15.3853221,46.0718608 15.229587,46.1205138 15.1421078,46.249948 Z M49.9735041,16.3421424 L50.7884812,16.6344429 L49.6054156,22.5070117 L48.9218746,22.374162 L49.9735041,16.3421424 Z M12.8257802,16.8736262 L15.0341293,20.9658617 L13.4567411,21.151857 L12.4840098,16.9001848 L12.8257802,16.8736262 Z M56.2939515,0 C55.3812455,0.450745102 54.3957547,1.21937144 54.0855743,1.75383141 C53.4419382,2.86288686 53.4547677,4.01043386 53.822702,5.15516061 C54.0547274,5.87711807 54.0482916,6.66185813 54.2696326,7.38725942 C54.423531,7.89158941 54.9093849,8.03560675 55.4526703,7.67955993 C56.501159,6.99243761 57.1897056,5.88703857 57.6610474,4.51741404 C57.949088,3.68033624 58.0246351,2.74085051 57.6018633,1.90664966 C57.2376306,1.18788093 56.626594,0.691019664 56.2939515,0 L56.2939515,0 Z" id="Fill-5"></path>
                        <path d="M149.252175,44.4519053 C149.246983,43.9985901 149.257559,43.3682277 149.282055,42.5147706 C149.328677,40.8972685 149.401712,39.3748757 149.445721,39.1334176 C149.489521,38.8916809 149.569194,37.7463625 149.622333,36.5863222 C149.676203,35.4270137 149.795181,34.2495335 149.886736,33.9697112 C149.977176,33.6895927 150.052337,33.2349359 150.052337,32.9594693 C150.052337,32.5625505 150.131052,32.4582945 150.43483,32.4582945 C150.847307,32.4582945 151.549937,32.2542774 152.972569,31.7198083 C153.949726,31.353013 154.672445,30.6733624 154.583695,30.2056214 C154.498708,29.755721 153.350619,29.7271655 152.5545,30.1564378 C151.59487,30.6733624 150.656182,30.8754457 149.21341,30.8763865 C148.346816,30.8773796 147.611414,30.9979256 146.92983,31.2495061 C146.376109,31.454464 145.607691,31.6722972 145.221696,31.7327009 C144.583911,31.8334028 144.503315,31.90649 144.352489,32.5168688 C144.095385,33.5579311 144.319491,33.7610074 145.663408,33.7061963 C146.767731,33.6612463 147.768809,33.3164731 147.768809,32.9815435 C147.768809,32.8873577 147.966257,32.809636 148.20789,32.809636 C148.570294,32.809636 148.647093,32.8946228 148.647093,33.2943988 C148.647093,33.5607535 148.563726,34.0546631 148.46224,34.3922235 C148.360598,34.7299232 148.206078,35.3611393 148.119157,35.7958822 C148.03316,36.2312697 147.887769,36.9027317 147.797103,37.2889356 C147.706471,37.6758712 147.504388,38.6640563 147.346941,39.4847069 C147.189546,40.3061067 146.982724,41.3153207 146.88765,41.7270485 C146.792575,42.1397868 146.788725,42.6683671 146.788725,42.9026122 C146.788725,43.1368399 146.709069,43.3776533 146.613054,43.4371162 C146.516063,43.4972759 146.437383,43.8092427 146.437383,44.1313493 C146.437383,45.0353664 145.96229,47.732417 147.405951,47.880177 C148.907994,48.0339652 149.264022,45.4828452 149.252175,44.4519053 Z M120.960366,49.2512383 C121.326465,48.8382735 121.540796,47.1838706 121.270904,46.858715 C121.109363,46.6634788 121.195587,46.3448044 121.683225,45.3387962 C123.019824,42.5840598 124.333618,40.4920393 124.727819,40.4920393 C124.968371,40.4911159 124.964677,40.7517212 124.64879,45.838281 C124.55605,47.3435824 124.571661,47.4479952 124.921905,47.6360011 C125.127159,47.7449961 125.505854,47.8103826 125.763794,47.7804159 L126.23312,47.7259882 L126.438357,45.4596384 C126.551847,44.2137228 126.667079,42.6193751 126.695216,41.9164481 C126.723371,41.2147233 126.808863,40.6017834 126.88418,40.5555093 C126.959498,40.5092352 127.021365,40.2877434 127.021365,40.0643525 C127.021365,39.6447671 127.378142,39.3923504 127.762168,39.540424 C128.021798,39.640185 129.810667,42.430411 130.099445,43.1877658 C130.210949,43.4782506 130.514326,44.3046332 130.774844,45.0237979 C131.931731,48.2243405 131.88713,48.1436919 132.606347,48.3587374 C132.972149,48.4686209 133.394504,48.5104523 133.545139,48.4533066 C134.182523,48.2081027 133.627861,44.9619656 132.601904,42.927143 C132.048915,41.8312174 130.635186,39.9662814 129.950396,39.4286588 C129.094325,38.7577892 128.135427,38.4472511 127.719605,38.7069156 C127.495343,38.8475323 127.349099,38.8566094 127.274722,38.735018 C127.130168,38.5025674 127.363525,36.4814738 127.534404,36.4814738 C127.605958,36.4814738 127.813042,36.64582 127.994636,36.8463874 C128.582871,37.4965592 128.859052,37.5518755 130.023134,37.2541255 C130.997277,37.0035381 131.202531,36.870082 131.88807,36.0372357 C133.423548,34.1732927 134.200642,32.1494289 134.214371,29.9746517 C134.218082,29.4172198 133.789454,28.8933261 133.439838,29.0267125 C133.312723,29.0758091 132.973142,29.6787659 132.686246,30.3661346 C132.205769,31.5154949 131.02193,33.2788406 129.723503,34.78064 C129.14593,35.4470669 128.278901,35.9584687 127.726853,35.9584687 C127.325404,35.9584687 127.294479,35.7566642 127.53153,34.685374 C127.854873,33.2197784 128.062688,30.9753113 127.92925,30.3798112 C127.835848,29.9646164 127.683105,29.7549718 127.450689,29.7231584 C127.043004,29.6668664 126.628993,30.4822902 126.319396,31.9487744 C126.207823,32.4762222 126.04886,33.1435725 125.966277,33.43066 C125.883503,33.718392 125.722955,34.5619183 125.609256,35.3046382 C125.495818,36.0481944 125.35961,36.655803 125.307063,36.655803 C125.150906,36.655803 123.883351,35.2464995 123.883351,35.0730588 C123.883351,34.9850056 123.56905,34.2657886 123.186017,33.4750698 C122.801782,32.6851699 122.488683,31.9822603 122.488683,31.9150967 C122.488683,31.8479157 122.250692,31.440195 121.960085,31.0089889 C121.092132,29.7240643 120.289549,29.7612439 120.500134,31.0771456 C120.752551,32.6542624 121.185569,34.1279595 121.557051,34.675356 C121.781365,35.0059474 121.96573,35.377377 121.96573,35.499857 C121.96573,35.8322777 124.004002,37.8733201 124.359891,37.8967882 C124.528837,37.9086354 124.765939,37.9051335 124.885701,37.8896275 C125.298021,37.8361928 125.101809,38.2110895 124.463537,38.6968977 C122.923617,39.8681929 121.531719,41.5687653 120.568239,43.4548 C119.938991,44.6867428 119.001994,47.1611517 119.001994,47.5907201 C119.001994,48.109962 119.586622,49.046925 120.083354,49.3221652 C120.607248,49.6127023 120.643539,49.6099321 120.960366,49.2512383 Z M129.135024,23.2455363 C129.501122,22.8325541 129.715454,21.1781686 129.445562,20.8529956 C129.284021,20.6577769 129.370245,20.339085 129.857882,19.3330768 C131.194482,16.5783578 132.508258,14.4863373 132.902476,14.4863373 C133.143028,14.4853965 133.139335,14.7460192 132.823448,19.832579 C132.730708,21.3378804 132.746301,21.4422758 133.096563,21.6302991 C133.301799,21.7392941 133.680512,21.8046806 133.938451,21.7746966 L134.407778,21.7202862 L134.613014,19.4539365 C134.726504,18.2080034 134.841737,16.6136557 134.869874,15.9107462 C134.898029,15.2090039 134.983521,14.5960814 135.058838,14.5497899 C135.134155,14.5035159 135.196023,14.282024 135.196023,14.0586505 C135.196023,13.6390652 135.5528,13.3866484 135.936826,13.5347046 C136.196456,13.6344656 137.985325,16.424709 138.274085,17.1820464 C138.385606,17.4725487 138.688984,18.2989312 138.949502,19.018096 C140.106389,22.2186385 140.061787,22.1379899 140.781004,22.353018 C141.146806,22.4629015 141.569162,22.5047329 141.719797,22.4475872 C142.35718,22.2023834 141.802519,18.9562636 140.776562,16.9214411 C140.223572,15.825498 138.809843,13.960562 138.125036,13.4229394 C137.268983,12.7520872 136.310085,12.4415317 135.894263,12.7012136 C135.669983,12.841813 135.523757,12.8509075 135.44938,12.7293161 C135.304826,12.4968481 135.538182,10.4757544 135.709062,10.4757544 C135.780616,10.4757544 135.9877,10.640118 136.169294,10.8406681 C136.757529,11.4908398 137.033692,11.5461561 138.197792,11.2484061 C139.171935,10.9978187 139.377189,10.86438 140.062728,10.0315163 C141.598205,8.16757335 142.3753,6.14370956 142.389029,3.96893233 C142.39274,3.41150041 141.964112,2.88760674 141.614495,3.02101059 C141.487381,3.07008969 141.1478,3.67306395 140.860904,4.36041523 C140.380427,5.50979299 139.196587,7.27313859 137.89816,8.77493807 C137.320588,9.44134755 136.453559,9.95274931 135.901511,9.95274931 C135.500045,9.95274931 135.469137,9.75096226 135.706187,8.67967201 C136.029531,7.21407642 136.237346,4.96960931 136.103907,4.37409187 C136.010506,3.95891441 135.857763,3.74925241 135.625347,3.7174564 C135.217661,3.66114698 134.803651,4.47657084 134.494054,5.94305497 C134.38248,6.47050283 134.2235,7.13787053 134.140935,7.42495799 C134.058161,7.71267266 133.897613,8.55619896 133.783914,9.29891886 C133.670476,10.0424924 133.534267,10.6500837 133.481721,10.6500837 C133.325564,10.6500837 132.058009,9.2407975 132.058009,9.06735681 C132.058009,8.97928622 131.743708,8.26006924 131.360675,7.46935045 C130.97644,6.67946793 130.66334,5.97654096 130.66334,5.90937734 C130.66334,5.84221372 130.425332,5.43447565 130.134743,5.00328695 C129.266773,3.71834495 128.464207,3.7555245 128.674792,5.07144365 C128.927191,6.64854304 129.360227,8.12224008 129.731709,8.66963667 C129.956023,9.00022803 130.14037,9.37167509 130.14037,9.49415505 C130.14037,9.82657578 132.17866,11.8676181 132.534531,11.8910688 C132.703494,11.9029335 132.940597,11.8994141 133.060359,11.8839081 C133.472679,11.8304734 133.276467,12.2053701 132.638195,12.6911783 C131.098275,13.8624909 129.706376,15.5630634 128.742896,17.4490806 C128.113649,18.6810234 127.176651,21.1554497 127.176651,21.5850007 C127.176651,22.10426 127.76128,23.041223 128.258012,23.3164458 C128.781905,23.6069829 128.818196,23.6042301 129.135024,23.2455363 Z M142.073107,48.2635062 C142.184872,48.1291789 142.467308,47.9710875 142.700455,47.9130184 C143.061919,47.8220382 143.120929,47.7095936 143.099064,47.1547402 C143.084638,46.7960987 143.177134,45.522307 143.304301,44.3237979 C143.666705,40.9178096 143.709286,36.0529333 143.394235,34.0971391 C143.045629,31.9279719 142.785947,31.4231559 142.015909,31.4231559 C141.490099,31.4231559 141.359465,31.5337711 140.723963,32.5125655 C139.711439,34.0734271 138.321405,36.9390401 137.555025,39.0501034 C137.337035,39.6493667 137.081116,40.1397744 136.985554,40.1397744 C136.708694,40.1397744 136.981146,35.206602 137.476049,31.2322753 C137.577587,30.4196739 137.550425,30.2390551 137.315152,30.1481795 C136.929297,30.0003324 136.578112,30.1582149 136.280066,30.613011 C135.958848,31.104464 135.420285,36.7993642 135.175969,42.3024604 C135.07978,44.4753211 135.102534,44.9311626 135.315889,45.0918152 C135.456488,45.1970992 135.624598,45.4251245 135.690838,45.5994537 C135.77356,45.8209979 135.951391,45.9000262 136.281948,45.8609999 C136.712439,45.8109799 136.771467,45.7119506 136.942974,44.7586976 C137.127338,43.7335769 137.812825,41.7850305 138.105244,41.456373 C138.186136,41.3654451 138.252359,41.1874049 138.252359,41.0605345 C138.252359,40.9342564 138.448327,40.5201069 138.6882,40.1397744 C138.927863,39.760191 139.124093,39.3624709 139.124093,39.2553575 C139.124093,39.1481919 139.267462,38.8522712 139.443621,38.5980251 C139.619832,38.3436919 139.887597,37.8216276 140.039173,37.4376364 C140.837401,35.4253411 140.889895,35.3381765 141.119802,35.6524604 C141.277632,35.8695618 141.321397,36.8228323 141.283207,39.2209307 C141.226026,42.836372 140.965508,45.5150593 140.589375,46.3558154 C140.167228,47.2990854 140.298837,47.8258537 141.061715,48.2453346 C141.617265,48.5512905 141.831544,48.5549493 142.073107,48.2635062 Z M180.173923,48.0599943 C180.285688,47.9256671 180.568124,47.7675756 180.801271,47.7094891 C181.162735,47.6185264 181.221763,47.5060643 181.19988,46.9512109 C181.185454,46.5925694 181.27795,45.3187952 181.405134,44.120286 C181.767522,40.7142803 181.810102,35.8494214 181.495052,33.8936098 C181.146445,31.7244601 180.886763,31.2196266 180.116725,31.2196266 C179.590915,31.2196266 179.460281,31.3302592 178.824779,32.3090536 C177.812255,33.8699153 176.422221,36.7355108 175.655841,38.8465915 C175.437851,39.4458374 175.181932,39.9362451 175.08637,39.9362451 C174.80951,39.9362451 175.08198,35.0030727 175.576882,31.028746 C175.678421,30.2161446 175.651259,30.0355432 175.415969,29.9446676 C175.030113,29.7968031 174.678928,29.9546856 174.380882,30.4094991 C174.059664,30.9009347 173.521118,36.5958523 173.276803,42.0989311 C173.180596,44.2717918 173.20335,44.7276333 173.416705,44.8882859 C173.557305,44.9935874 173.725414,45.2215952 173.791654,45.3959244 C173.874376,45.617486 174.052207,45.6964969 174.382764,45.657488 C174.813256,45.6074507 174.872283,45.5084388 175.04379,44.5551683 C175.228154,43.530065 175.913641,41.5815186 176.20606,41.2528437 C176.286953,41.1619332 176.353175,40.983893 176.353175,40.8570226 C176.353175,40.7307271 176.549143,40.3165776 176.789016,39.9362451 C177.028697,39.5566617 177.224909,39.158959 177.224909,39.0518456 C177.224909,38.9446626 177.368278,38.648742 177.544437,38.3944959 C177.720648,38.1401626 177.988414,37.6180983 178.139989,37.2341245 C178.938217,35.2218118 178.990711,35.1346472 179.220618,35.4489486 C179.378448,35.66605 179.422213,36.619303 179.384041,39.0174188 C179.326843,42.6328601 179.066324,45.31153 178.690208,46.1522861 C178.268044,47.0955735 178.399654,47.6223245 179.162531,48.0418227 C179.718082,48.3477613 179.932378,48.35142 180.173923,48.0599943 Z M160.285425,22.2604699 C160.39719,22.1261426 160.679625,21.9680511 160.912773,21.9099646 C161.274237,21.8190019 161.333264,21.7065399 161.311382,21.1516865 C161.296956,20.7930449 161.389452,19.5192707 161.516636,18.3207616 C161.879023,14.9147558 161.921604,10.049897 161.606553,8.09408537 C161.257947,5.9249356 160.998265,5.42010211 160.228227,5.42010211 C159.702416,5.42010211 159.571783,5.5307348 158.936281,6.50952916 C157.923756,8.07039081 156.533722,10.9359864 155.767343,13.0470671 C155.549353,13.6463129 155.293434,14.1367206 155.197872,14.1367206 C154.921011,14.1367206 155.193481,9.20356568 155.688384,5.22922153 C155.789922,4.41662012 155.76276,4.23601879 155.52747,4.14514319 C155.141615,3.99727869 154.79043,4.15516111 154.492384,4.60997469 C154.171166,5.1014103 153.63262,10.7963279 153.388304,16.2994066 C153.292097,18.4722674 153.314851,18.9281089 153.528207,19.0887615 C153.668806,19.1940629 153.836933,19.4220708 153.903156,19.5964174 C153.985878,19.8179615 154.163709,19.8969724 154.494265,19.8579635 C154.924757,19.8079262 154.983784,19.7089143 155.155291,18.7556613 C155.339656,17.7305406 156.025143,15.7819941 156.317562,15.4533192 C156.398454,15.3624088 156.464677,15.1843686 156.464677,15.0574981 C156.464677,14.9312027 156.660645,14.5170531 156.900517,14.1367206 C157.140198,13.7571373 157.33641,13.3594345 157.33641,13.2523212 C157.33641,13.1451382 157.47978,12.8492175 157.655938,12.5949888 C157.832149,12.3406382 158.099915,11.8185739 158.251491,11.4346001 C159.049718,9.42228736 159.102212,9.33512275 159.332119,9.6494241 C159.489949,9.8665255 159.533715,10.8197785 159.495542,13.2178944 C159.438344,16.8333357 159.177826,19.5120056 158.80171,20.3527617 C158.379546,21.296049 158.511155,21.8228 159.274033,22.2422982 C159.829583,22.5482368 160.043879,22.5518955 160.285425,22.2604699 Z M112.689606,21.1726283 C113.016591,21.0401304 113.316258,20.9648131 113.357113,21.004815 C113.396906,21.0454617 113.267179,21.1300652 113.068196,21.1935178 C112.869458,21.2563432 112.706976,21.379764 112.706976,21.4669286 C112.706976,21.9281014 114.076069,21.0164184 116.280848,19.0862004 C117.252168,18.2352173 117.54835,17.8568186 117.733585,17.2266479 C117.939536,16.5246618 117.932376,16.3840102 117.666422,15.9789029 C117.215929,15.2905934 116.589556,14.9228573 115.147673,14.4979929 C113.751105,14.0868052 113.055652,13.795275 113.055652,13.62281 C113.055652,13.517526 114.49102,12.2416263 116.499517,10.562919 C117.815227,9.46323017 118.489999,8.42725526 118.59436,7.3458774 C118.699644,6.24807015 118.496272,5.92843752 117.29217,5.29643742 C115.971233,4.60281405 114.264145,4.29596951 112.53364,4.4403321 C110.23539,4.63183989 108,5.64253479 108,6.48956301 C108,6.79478726 108.074377,6.82639162 108.544592,6.72291957 C108.906056,6.6438564 109.135004,6.67669776 109.223859,6.82198373 C109.360939,7.04349302 109.592466,6.98812441 110.127336,6.60488234 C110.289818,6.4876988 110.468781,6.43701684 110.524098,6.49233318 C110.579466,6.54676098 110.490612,7.60367769 110.326945,8.83957544 C109.954819,11.6479382 109.950219,17.0467261 110.318844,18.534152 C110.546921,19.4502255 110.541294,19.5536975 110.259834,19.808867 C109.928598,20.1075578 109.983862,20.5534163 110.435992,21.2372308 C110.654975,21.567526 110.797509,21.6093573 111.394838,21.5194225 C111.780693,21.4604126 112.363702,21.3044467 112.689606,21.1726283 Z M111.627289,9.49779635 C111.592914,7.78265872 111.611939,6.31800395 111.66912,6.24456824 C111.727259,6.1699478 112.670494,6.04184038 113.765583,5.96025095 C115.859433,5.80409335 116.890965,5.98838824 116.890965,6.51860626 C116.890965,6.96260049 115.182047,8.98017477 112.005896,12.2872035 C111.700986,12.6049022 111.68818,12.5140789 111.627289,9.49779635 Z M111.202372,18.5704082 C111.310426,17.892134 111.628229,15.2834327 111.650007,14.8938315 C111.662796,14.6550914 112.32464,14.7840873 112.706976,15.0999567 C112.850398,15.2190393 113.438738,15.4468032 114.014498,15.6067241 C114.589108,15.7664359 115.170183,15.9344407 115.305451,15.9807148 C115.547013,16.063489 115.211125,16.3340425 112.292095,18.405156 L111.092384,19.2558952 L111.202372,18.5704082 Z M170.305017,45.7728073 C170.360578,44.8149025 170.618326,43.1406031 170.87799,42.0527615 C171.416606,39.7998968 171.575324,36.2279595 171.213913,34.5292686 C171.101364,34.0025177 170.928864,33.1989411 170.830827,32.744929 C170.462151,31.0479107 169.779486,30.507727 167.95896,30.4723594 C166.567741,30.4458424 165.877602,30.742007 164.144345,32.1092353 C163.688503,32.4688177 163.159226,32.8130857 162.967649,32.8739772 C162.777029,32.9346248 162.620854,33.0989884 162.620854,33.2398316 C162.620854,33.6157563 163.278204,33.7937965 164.088035,33.6366458 C165.459201,33.3705176 165.410209,33.3242435 165.410209,34.9013952 C165.410209,36.2916212 165.010625,39.4231185 164.723746,40.282203 C164.64383,40.521884 164.482985,41.0711099 164.366777,41.5025425 C164.250517,41.934672 164.084586,42.4239473 163.998101,42.5901402 C163.911877,42.756368 163.841159,42.9996902 163.841159,43.129627 C163.841159,43.4392417 163.34542,44.4288031 163.121053,44.5668762 C163.025787,44.6268444 162.800585,44.5424325 162.620854,44.379062 C162.18409,43.9848089 161.92352,44.1819616 161.92352,44.9065098 C161.92352,46.30928 163.948377,46.115002 165.264923,44.585013 C165.81232,43.9494936 166.222811,43.0497275 166.591488,41.676924 C167.245074,39.2424649 167.38597,38.0321607 167.187876,36.5494214 C167.087923,35.799297 167.039872,35.0966139 167.080763,34.9875667 C167.122594,34.8795125 167.178886,34.2149673 167.2061,33.5113608 C167.253263,32.3225734 167.291348,32.2101288 167.739088,31.9423455 C168.198571,31.6671227 168.234827,31.6708685 168.485415,32.0013728 C168.706018,32.292903 168.7325,32.8084339 168.647896,35.1393861 C168.591692,36.673783 168.467295,38.9092079 168.372029,40.1078738 C168.27577,41.3064352 168.149579,43.2284647 168.091458,44.3799505 L167.986156,46.471971 L168.45449,46.9403916 C168.712534,47.1984009 169.093755,47.4433957 169.301779,47.485227 C170.170673,47.6586329 170.197887,47.6114703 170.305017,45.7728073 Z M150.376517,19.8016541 C150.432077,18.8437667 150.689825,17.1694499 150.949489,16.0816258 C151.488105,13.828761 151.646824,10.2568237 151.285412,8.55813286 C151.172863,8.03136448 151.000363,7.22780532 150.902327,6.77379318 C150.53365,5.07677492 149.850985,4.53657382 148.030459,4.50122363 C146.63924,4.47470663 145.949101,4.7708712 144.215844,6.1380821 C143.760003,6.49766446 143.230726,6.84194988 143.039148,6.90284142 C142.848529,6.96348903 142.692354,7.12783519 142.692354,7.26869586 C142.692354,7.64462049 143.349686,7.82266071 144.159535,7.66551004 C145.530701,7.39936439 145.481709,7.35309031 145.481709,8.93025939 C145.481709,10.3204854 145.082124,13.4519827 144.795246,14.3110673 C144.715329,14.5507308 144.554485,15.0999567 144.438277,15.5314067 C144.322017,15.9635363 144.156085,16.4528115 144.0696,16.618987 C143.983376,16.7852322 143.912658,17.0285544 143.912658,17.1584912 C143.912658,17.4681059 143.416902,18.4576499 143.192553,18.5957404 C143.097287,18.6556912 142.872084,18.5712967 142.692354,18.4079262 C142.25559,18.0136731 141.995019,18.2108258 141.995019,18.9353741 C141.995019,20.3381442 144.019876,20.1438663 145.336423,18.6138598 C145.883819,17.9783578 146.29431,17.0785918 146.662987,15.7057882 C147.316573,13.2713291 147.457469,12.0610075 147.259376,10.5782857 C147.159423,9.8281438 147.111372,9.12547817 147.152262,9.01643093 C147.194094,8.90837677 147.250386,8.2438315 147.277599,7.54022505 C147.324762,6.35143767 147.362848,6.23897562 147.810588,5.97120968 C148.27007,5.69598693 148.306327,5.69973276 148.556914,6.03021959 C148.777517,6.32174978 148.803999,6.83729808 148.719396,9.16825033 C148.663191,10.7026298 148.538795,12.9380721 148.443529,14.1367206 C148.347269,15.3352994 148.221078,17.2573115 148.162957,18.4088148 L148.057656,20.5008178 L148.525989,20.9692558 C148.784033,21.2272477 149.165254,21.4722599 149.373279,21.5140913 C150.242172,21.6874797 150.269386,21.6403171 150.376517,19.8016541 Z M166.969991,21.1535158 C166.869132,20.8892518 167.134389,20.8667245 167.385917,21.1191413 C167.512997,21.2463079 168.040445,20.9101936 169.126457,20.011351 C171.015035,18.4486251 171.583635,17.7968679 171.727928,17.0267251 C171.937625,15.9072443 171.039688,15.0655996 169.103825,14.5679267 C167.765448,14.2239026 166.924692,13.8614978 166.924692,13.6300229 C166.924692,13.5481896 167.179688,13.2831764 167.491219,13.0417358 C167.802645,12.8002255 168.361941,12.3197486 168.733336,11.9747315 C169.104766,11.6296272 169.466979,11.348324 169.538777,11.348324 C169.786542,11.348324 171.760473,9.33980939 172.131031,8.71240883 C172.378117,8.29381657 172.50335,7.78610837 172.50335,7.20498189 C172.50335,6.42234712 172.437824,6.27078905 171.896734,5.79593964 C169.978067,4.1116572 164.694651,4.15418545 162.442727,5.87219779 C161.778182,6.37894775 161.825344,6.90723188 162.519177,6.7338783 C162.755094,6.67392758 163.048454,6.70943458 163.171875,6.81196581 C163.334357,6.94629306 163.542416,6.91355623 163.928271,6.69112356 C164.221631,6.52331033 164.492167,6.4233402 164.531228,6.46961428 C164.569314,6.51583609 164.542152,7.10255519 164.471277,7.77455727 C163.912016,13.0570327 163.900117,15.739222 164.422181,19.0862004 C164.502185,19.6026895 164.461242,19.8016541 164.251598,19.9188028 C163.973605,20.0749604 163.995435,20.3165229 164.354129,21.0663512 C164.526542,21.4259858 164.646548,21.4550639 165.797842,21.4150619 C166.716685,21.3832137 167.030987,21.3134367 166.969991,21.1544566 L166.969991,21.1535158 Z M165.497234,9.47326551 C165.46631,7.86799398 165.465421,6.46517155 165.495405,6.35706512 C165.618129,5.91753105 169.448842,5.68788548 170.367686,6.06464639 C170.679165,6.191813 170.934387,6.40239839 170.934387,6.53047097 C170.934387,6.88634234 169.810254,8.31193594 168.305649,9.86553242 C167.562076,10.6326612 166.744788,11.5152487 166.487981,11.8276161 C165.633496,12.8655249 165.559119,12.6893141 165.497234,9.47326551 Z M165.080506,18.9581452 C165.026131,18.8172846 165.065157,18.4004694 165.167671,18.0317925 C165.269453,17.6634292 165.353865,17.0385898 165.354806,16.642699 C165.356635,15.3687331 165.531905,14.8341247 165.948476,14.8341247 C166.154619,14.8341247 166.478886,14.9394086 166.667641,15.0674638 C166.856588,15.1953273 167.404054,15.3996406 167.88359,15.5214237 C168.36283,15.6439036 168.892351,15.779224 169.060182,15.8235816 C169.646831,15.9781537 169.346311,16.3268296 167.488344,17.6415466 C165.156712,19.292134 165.199484,19.2696242 165.080506,18.9581452 Z M124.133991,20.7939857 C124.225546,20.7149226 124.731321,20.5489735 125.25896,20.4244203 C126.534668,20.1231684 127.350981,19.3702215 127.350981,18.4959794 C127.350981,18.1508577 127.444417,17.7740445 127.559737,17.6587252 C127.982824,17.2357424 126.911446,17.4953024 125.520524,18.152687 C125.159948,18.3233227 121.17752,19.3667196 120.888847,19.3667196 C120.634514,19.3667196 120.69821,18.7356603 120.974095,18.5067465 C121.140323,18.3688999 121.262855,17.7312723 121.344584,16.5790895 C121.4118,15.6330494 121.555274,14.6850754 121.663328,14.4726607 C121.787637,14.2283454 122.177239,13.9939957 122.731169,13.8296844 C123.210461,13.6881443 123.935009,13.4238803 124.341806,13.2441675 C124.747611,13.0642456 125.188103,12.9164334 125.320601,12.9164334 C125.718303,12.9164334 126.479352,12.2181582 126.479352,11.8530007 C126.479352,11.2847146 125.983508,11.2664906 124.141152,11.7650869 C123.173316,12.0273299 122.214436,12.2834576 122.009182,12.3343661 C121.700525,12.4115651 121.598935,12.3144174 121.419901,11.7741814 C121.192137,11.0822132 121.106593,7.59642994 121.313729,7.38934646 C121.488058,7.21501723 123.211402,7.02161039 124.744109,7.00443184 C125.516813,6.99533731 126.146931,6.90284142 126.269463,6.78011754 C126.622774,6.42793973 126.503761,5.85846888 125.971661,5.34830412 C125.474981,4.87240935 125.433342,4.8643079 123.836241,4.94960832 C122.940866,4.99680579 121.815792,5.12043563 121.336483,5.22389026 C120.856947,5.32731004 120.20958,5.45635827 119.898101,5.51167462 C119.196376,5.63439849 119.161758,6.00835439 119.789158,6.66390966 L120.247718,7.14250491 L120.035303,8.94017278 C119.918154,9.92908959 119.753756,11.2474653 119.669396,11.8704231 C119.340773,14.2836617 119.165503,16.3821808 119.161758,17.945621 C119.156426,19.7598228 119.393285,20.404367 120.181443,20.7177276 C120.729867,20.934829 123.898753,20.9964697 124.133991,20.7939857 Z M158.563109,46.7384477 C158.782736,46.6522239 159.276698,46.4978957 159.660934,46.3951728 C160.044019,46.2926416 160.515175,46.1627048 160.706944,46.106465 C161.28807,45.9365088 161.778286,45.1258413 161.891724,44.1488241 C162.003524,43.1862849 161.861043,43.0147084 161.330581,43.4686683 C160.709505,44.0016565 155.608519,45.4816604 155.220834,45.2410561 C155.082692,45.1566965 155.124523,44.9514598 155.357932,44.5546805 C155.565991,44.2025027 155.736574,43.4686683 155.811892,42.6089042 C156.033436,40.0592303 155.993434,40.1463949 157.107549,39.8304732 C157.648673,39.6779569 158.424095,39.4000163 158.830944,39.2140663 C159.236749,39.0269489 159.713532,38.8753734 159.889691,38.8753734 C160.323649,38.8753734 161.013771,38.1105793 160.939394,37.7138 C160.841271,37.1973805 159.903419,37.2308491 158.014824,37.8175159 C157.067599,38.1115201 156.256809,38.3523335 156.211476,38.3523335 C156.166143,38.3523335 156.032495,38.1198655 155.915364,37.8356527 C155.691293,37.2944759 155.601306,33.5488888 155.807501,33.3429552 C155.871842,33.2792413 156.983187,33.1439732 158.278844,33.0433236 C160.757608,32.8508576 161.073722,32.7209208 160.85662,31.9891771 C160.800433,31.7965194 160.5926,31.4633495 160.394559,31.248182 C160.070292,30.893234 159.875265,30.8560022 158.357907,30.8560022 C157.434586,30.8560022 156.604544,30.9222773 156.513913,31.0029259 C156.42295,31.0838707 155.779103,31.2535133 155.084573,31.3796868 C153.661802,31.637731 153.557442,31.800213 154.271031,32.6481297 C154.64598,33.0939881 154.705931,33.3038941 154.626868,33.8940628 C153.783638,40.1800725 153.406528,43.9772998 153.542772,44.8270982 C153.689957,45.7478061 154.154771,46.5459991 154.54533,46.5459991 C154.710565,46.5459991 154.893989,46.6238776 154.953957,46.7203283 C155.087396,46.9362973 158.016409,46.950967 158.563109,46.7384477 Z M189.972059,20.7804485 C190.191686,20.6942247 190.685648,20.5398964 191.069866,20.4371736 C191.452969,20.3346423 191.924107,20.2047055 192.115876,20.1484484 C192.697003,19.9785096 193.187219,19.1678421 193.300657,18.1908248 C193.412474,17.2282682 193.269993,17.0567091 192.739531,17.510669 C192.118455,18.0436398 187.017469,19.5236612 186.629784,19.2830569 C186.491642,19.1986973 186.533473,18.9934432 186.766882,18.5966813 C186.974941,18.2445034 187.145524,17.510669 187.220842,16.650905 C187.442386,14.1012136 187.402384,14.1883957 188.516499,13.8724566 C189.057623,13.7199577 189.833045,13.442017 190.239877,13.256067 C190.645699,13.0689497 191.122465,12.9173742 191.298623,12.9173742 C191.732582,12.9173742 192.422721,12.15258 192.348344,11.7558007 C192.250204,11.2393639 191.312352,11.2728499 189.423774,11.8595167 C188.476531,12.1535209 187.665759,12.3943168 187.620426,12.3943168 C187.575093,12.3943168 187.441445,12.1618662 187.324296,11.877636 C187.100226,11.3364593 187.010256,7.5908896 187.216434,7.384956 C187.280792,7.32124203 188.392137,7.18597397 189.687794,7.08532437 C192.166558,6.89285834 192.482672,6.76292156 192.26557,6.0311604 C192.209365,5.83850273 192.00155,5.50535026 191.803509,5.29016533 C191.479242,4.93523478 191.284215,4.89798554 189.766857,4.89798554 C188.843536,4.89798554 188.013494,4.96426061 187.922863,5.04490923 C187.8319,5.12585402 187.188035,5.29549661 186.493523,5.42168756 C185.070735,5.67973176 184.966392,5.84221372 185.679981,6.69013048 C186.054913,7.13598891 186.114881,7.3458774 186.0358,7.93604615 C185.192587,14.2220733 184.815461,18.0193006 184.951722,18.869099 C185.098889,19.7898068 185.563721,20.5879999 185.954263,20.5879999 C186.119515,20.5879999 186.302939,20.6658783 186.36289,20.7623291 C186.496328,20.978298 189.425359,20.9929678 189.972059,20.7804485 Z M182.10266,19.7098029 C182.28861,19.6101463 182.440412,19.4573861 182.440412,19.3683921 C182.440412,19.2805306 182.646311,19.0024854 182.897839,18.7510095 C183.297423,18.3514251 183.34206,18.1961561 183.250209,17.5272204 C183.145848,16.7662243 183.410164,14.6032769 183.944738,11.8323028 C184.098422,11.0387093 184.261792,9.43784563 184.308066,8.27562751 C184.38807,6.28174779 184.36901,6.11832502 183.969373,5.39916031 C183.609843,4.7508702 183.454522,4.62819859 182.934339,4.58373645 C182.581952,4.5537698 182.247964,4.62720551 182.145188,4.75813537 C182.0471,4.88242727 181.872771,5.72971683 181.758392,6.64138241 C181.643073,7.55202007 181.475991,8.68963766 181.386945,9.16919114 C180.697956,12.8608209 180.503678,14.5535532 180.583386,16.1715954 C180.757715,19.6754283 181.021091,20.2881243 182.10266,19.7098029 Z M177.183217,21.1572791 C177.77403,20.7149226 178.520409,19.3376763 179.181504,17.4644472 C179.842583,15.5904689 179.955132,13.0542277 179.420471,12.0738131 C179.084409,11.4571099 177.844016,10.7853517 176.62115,10.5554622 C175.828254,10.4067092 175.687655,9.96900447 175.98821,8.59067803 C176.10724,8.04598193 176.271551,7.16783718 176.354029,6.6404416 C176.436786,6.11374291 176.572995,5.35363539 176.656466,4.95335415 C176.822641,4.16415111 176.762691,3.97356671 176.295002,3.8011191 C175.639551,3.55863316 175.457068,3.84645237 174.960336,5.89939426 C174.873171,6.25991743 174.680705,6.98535423 174.531708,7.51212261 C174.383896,8.03946593 174.098638,9.45138289 173.898959,10.6500837 C173.699106,11.8485579 173.463136,13.2613983 173.375031,13.7881144 C173.286925,14.31551 173.120785,15.7482642 173.004524,16.971461 C172.802981,19.0996854 172.809306,19.2130708 173.137963,19.5864343 C173.327868,19.8016541 173.572811,20.1893912 173.682799,20.4490208 C174.143971,21.5349808 176.137206,21.9380671 177.183217,21.1572791 Z M175.101876,19.9894858 C175.06123,19.9488391 175.080238,19.2230887 175.144648,18.3779421 C175.20899,17.5316631 175.269045,16.0943616 175.278035,15.1827309 C175.296154,13.2994838 175.57514,12.6174987 176.528411,12.1244776 C177.052339,11.8530007 177.106715,11.8557708 177.537224,12.1772154 C178.238949,12.7012136 178.353536,13.3957255 178.018345,15.1018906 C177.492831,17.7758739 175.772049,20.660547 175.101876,19.9894858 L175.101876,19.9894858 Z" id="Fill-6"></path>
                    </g>
                </g>
            </g>
        </g>
    </g>
</svg>